<svg width="216" height="89" viewBox="0 0 216 89" fill="none" xmlns="http://www.w3.org/2000/svg">
<g filter="url(#filter0_d_4_223)">
<rect x="8" y="13" width="200" height="64" rx="8" fill="#FF7777"/>
<path d="M108 4L119 13H97L108 4Z" fill="#FF7777"/>
</g>
<path d="M27.25 38V29.732H24.052V28.9H31.41V29.732H28.212V38H27.25ZM36.2358 31.11C36.7905 31.11 37.2758 31.2183 37.6918 31.435C38.1165 31.643 38.4458 31.9637 38.6798 32.397C38.9225 32.8303 39.0438 33.3763 39.0438 34.035V38H38.1208V34.126C38.1208 33.4067 37.9388 32.865 37.5748 32.501C37.2195 32.1283 36.7168 31.942 36.0668 31.942C35.5815 31.942 35.1568 32.0417 34.7928 32.241C34.4375 32.4317 34.1602 32.7133 33.9608 33.086C33.7702 33.45 33.6748 33.892 33.6748 34.412V38H32.7518V28.354H33.6748V33.047L33.4928 32.696C33.7095 32.202 34.0562 31.8163 34.5328 31.539C35.0095 31.253 35.5772 31.11 36.2358 31.11ZM41.537 38V31.175H42.46V38H41.537ZM42.005 29.667C41.8143 29.667 41.654 29.602 41.524 29.472C41.394 29.342 41.329 29.186 41.329 29.004C41.329 28.822 41.394 28.6703 41.524 28.549C41.654 28.419 41.8143 28.354 42.005 28.354C42.1957 28.354 42.356 28.4147 42.486 28.536C42.616 28.6573 42.681 28.809 42.681 28.991C42.681 29.1817 42.616 29.342 42.486 29.472C42.3647 29.602 42.2043 29.667 42.005 29.667ZM46.8612 38.065C46.2979 38.065 45.7649 37.987 45.2622 37.831C44.7595 37.6663 44.3652 37.4627 44.0792 37.22L44.4952 36.492C44.7725 36.7 45.1279 36.882 45.5612 37.038C45.9945 37.1853 46.4495 37.259 46.9262 37.259C47.5762 37.259 48.0442 37.1593 48.3302 36.96C48.6162 36.752 48.7592 36.479 48.7592 36.141C48.7592 35.8897 48.6769 35.6947 48.5122 35.556C48.3562 35.4087 48.1482 35.3003 47.8882 35.231C47.6282 35.153 47.3379 35.088 47.0172 35.036C46.6965 34.984 46.3759 34.9233 46.0552 34.854C45.7432 34.7847 45.4572 34.685 45.1972 34.555C44.9372 34.4163 44.7249 34.23 44.5602 33.996C44.4042 33.762 44.3262 33.45 44.3262 33.06C44.3262 32.6873 44.4302 32.3537 44.6382 32.059C44.8462 31.7643 45.1495 31.5347 45.5482 31.37C45.9555 31.1967 46.4495 31.11 47.0302 31.11C47.4722 31.11 47.9142 31.1707 48.3562 31.292C48.7982 31.4047 49.1622 31.5563 49.4482 31.747L49.0452 32.488C48.7419 32.28 48.4169 32.1327 48.0702 32.046C47.7235 31.9507 47.3769 31.903 47.0302 31.903C46.4149 31.903 45.9599 32.0113 45.6652 32.228C45.3792 32.436 45.2362 32.7047 45.2362 33.034C45.2362 33.294 45.3142 33.4977 45.4702 33.645C45.6349 33.7923 45.8472 33.9093 46.1072 33.996C46.3759 34.074 46.6662 34.139 46.9782 34.191C47.2989 34.243 47.6152 34.308 47.9272 34.386C48.2479 34.4553 48.5382 34.555 48.7982 34.685C49.0669 34.8063 49.2792 34.984 49.4352 35.218C49.5999 35.4433 49.6822 35.7423 49.6822 36.115C49.6822 36.5137 49.5695 36.8603 49.3442 37.155C49.1275 37.441 48.8069 37.6663 48.3822 37.831C47.9662 37.987 47.4592 38.065 46.8612 38.065ZM54.9342 38V30.317C54.9342 29.7103 55.1119 29.2207 55.4672 28.848C55.8225 28.4753 56.3339 28.289 57.0012 28.289C57.2612 28.289 57.5125 28.3237 57.7552 28.393C57.9979 28.4623 58.2015 28.5707 58.3662 28.718L58.0542 29.407C57.9242 29.2943 57.7725 29.212 57.5992 29.16C57.4259 29.0993 57.2395 29.069 57.0402 29.069C56.6502 29.069 56.3512 29.1773 56.1432 29.394C55.9352 29.6107 55.8312 29.9313 55.8312 30.356V31.396L55.8572 31.825V38H54.9342ZM53.7122 31.942V31.175H57.9372V31.942H53.7122ZM59.1852 38V31.175H60.1082V38H59.1852ZM59.6532 29.667C59.4625 29.667 59.3022 29.602 59.1722 29.472C59.0422 29.342 58.9772 29.186 58.9772 29.004C58.9772 28.822 59.0422 28.6703 59.1722 28.549C59.3022 28.419 59.4625 28.354 59.6532 28.354C59.8439 28.354 60.0042 28.4147 60.1342 28.536C60.2642 28.6573 60.3292 28.809 60.3292 28.991C60.3292 29.1817 60.2642 29.342 60.1342 29.472C60.0129 29.602 59.8525 29.667 59.6532 29.667ZM65.5991 38.065C64.8884 38.065 64.2644 37.9177 63.7271 37.623C63.1898 37.3197 62.7694 36.908 62.4661 36.388C62.1628 35.8593 62.0111 35.257 62.0111 34.581C62.0111 33.905 62.1541 33.307 62.4401 32.787C62.7348 32.267 63.1334 31.8597 63.6361 31.565C64.1474 31.2617 64.7194 31.11 65.3521 31.11C65.9934 31.11 66.5611 31.2573 67.0551 31.552C67.5578 31.838 67.9521 32.2453 68.2381 32.774C68.5241 33.294 68.6671 33.8963 68.6671 34.581C68.6671 34.6243 68.6628 34.672 68.6541 34.724C68.6541 34.7673 68.6541 34.815 68.6541 34.867H62.7131V34.178H68.1601L67.7961 34.451C67.7961 33.957 67.6878 33.5193 67.4711 33.138C67.2631 32.748 66.9771 32.4447 66.6131 32.228C66.2491 32.0113 65.8288 31.903 65.3521 31.903C64.8841 31.903 64.4638 32.0113 64.0911 32.228C63.7184 32.4447 63.4281 32.748 63.2201 33.138C63.0121 33.528 62.9081 33.9743 62.9081 34.477V34.62C62.9081 35.14 63.0208 35.5993 63.2461 35.998C63.4801 36.388 63.8008 36.6957 64.2081 36.921C64.6241 37.1377 65.0964 37.246 65.6251 37.246C66.0411 37.246 66.4268 37.1723 66.7821 37.025C67.1461 36.8777 67.4581 36.6523 67.7181 36.349L68.2381 36.947C67.9348 37.311 67.5534 37.5883 67.0941 37.779C66.6434 37.9697 66.1451 38.065 65.5991 38.065ZM70.5458 38V28.354H71.4688V38H70.5458ZM76.754 38.065C76.104 38.065 75.519 37.9177 74.999 37.623C74.4877 37.3283 74.0847 36.921 73.79 36.401C73.4953 35.8723 73.348 35.2657 73.348 34.581C73.348 33.8877 73.4953 33.281 73.79 32.761C74.0847 32.241 74.4877 31.838 74.999 31.552C75.519 31.2573 76.104 31.11 76.754 31.11C77.352 31.11 77.885 31.2443 78.353 31.513C78.8297 31.7817 79.2067 32.176 79.484 32.696C79.77 33.2073 79.913 33.8357 79.913 34.581C79.913 35.3177 79.7743 35.946 79.497 36.466C79.2197 36.986 78.8427 37.3847 78.366 37.662C77.898 37.9307 77.3607 38.065 76.754 38.065ZM76.819 37.246C77.3043 37.246 77.7377 37.1377 78.119 36.921C78.509 36.6957 78.8123 36.3837 79.029 35.985C79.2543 35.5777 79.367 35.1097 79.367 34.581C79.367 34.0437 79.2543 33.5757 79.029 33.177C78.8123 32.7783 78.509 32.4707 78.119 32.254C77.7377 32.0287 77.3043 31.916 76.819 31.916C76.3423 31.916 75.9133 32.0287 75.532 32.254C75.1507 32.4707 74.8473 32.7783 74.622 33.177C74.3967 33.5757 74.284 34.0437 74.284 34.581C74.284 35.1097 74.3967 35.5777 74.622 35.985C74.8473 36.3837 75.1507 36.6957 75.532 36.921C75.9133 37.1377 76.3423 37.246 76.819 37.246ZM79.393 38V35.946L79.484 34.568L79.354 33.19V28.354H80.277V38H79.393ZM89.0839 38.065C88.4079 38.065 87.8012 37.9177 87.2639 37.623C86.7352 37.3197 86.3192 36.908 86.0159 36.388C85.7126 35.8593 85.5609 35.257 85.5609 34.581C85.5609 33.8963 85.7126 33.294 86.0159 32.774C86.3192 32.254 86.7352 31.8467 87.2639 31.552C87.8012 31.2573 88.4079 31.11 89.0839 31.11C89.6646 31.11 90.1889 31.2227 90.6569 31.448C91.1249 31.6733 91.4932 32.0113 91.7619 32.462L91.0729 32.93C90.8389 32.5833 90.5486 32.3277 90.2019 32.163C89.8552 31.9983 89.4782 31.916 89.0709 31.916C88.5856 31.916 88.1479 32.0287 87.7579 32.254C87.3679 32.4707 87.0602 32.7783 86.8349 33.177C86.6096 33.5757 86.4969 34.0437 86.4969 34.581C86.4969 35.1183 86.6096 35.5863 86.8349 35.985C87.0602 36.3837 87.3679 36.6957 87.7579 36.921C88.1479 37.1377 88.5856 37.246 89.0709 37.246C89.4782 37.246 89.8552 37.1637 90.2019 36.999C90.5486 36.8343 90.8389 36.583 91.0729 36.245L91.7619 36.713C91.4932 37.155 91.1249 37.493 90.6569 37.727C90.1889 37.9523 89.6646 38.065 89.0839 38.065ZM97.8521 38V36.492L97.8131 36.245V33.723C97.8131 33.1423 97.6484 32.696 97.3191 32.384C96.9984 32.072 96.5174 31.916 95.8761 31.916C95.4341 31.916 95.0138 31.9897 94.6151 32.137C94.2164 32.2843 93.8784 32.4793 93.6011 32.722L93.1851 32.033C93.5318 31.7383 93.9478 31.513 94.4331 31.357C94.9184 31.1923 95.4298 31.11 95.9671 31.11C96.8511 31.11 97.5314 31.331 98.0081 31.773C98.4934 32.2063 98.7361 32.8693 98.7361 33.762V38H97.8521ZM95.4991 38.065C94.9878 38.065 94.5414 37.9827 94.1601 37.818C93.7874 37.6447 93.5014 37.4107 93.3021 37.116C93.1028 36.8127 93.0031 36.466 93.0031 36.076C93.0031 35.7207 93.0854 35.4 93.2501 35.114C93.4234 34.8193 93.7008 34.5853 94.0821 34.412C94.4721 34.23 94.9921 34.139 95.6421 34.139H97.9951V34.828H95.6681C95.0094 34.828 94.5501 34.945 94.2901 35.179C94.0388 35.413 93.9131 35.7033 93.9131 36.05C93.9131 36.44 94.0648 36.752 94.3681 36.986C94.6714 37.22 95.0961 37.337 95.6421 37.337C96.1621 37.337 96.6084 37.22 96.9811 36.986C97.3624 36.7433 97.6398 36.3967 97.8131 35.946L98.0211 36.583C97.8478 37.0337 97.5444 37.3933 97.1111 37.662C96.6864 37.9307 96.1491 38.065 95.4991 38.065ZM104.727 31.11C105.282 31.11 105.767 31.2183 106.183 31.435C106.608 31.643 106.937 31.9637 107.171 32.397C107.414 32.8303 107.535 33.3763 107.535 34.035V38H106.612V34.126C106.612 33.4067 106.43 32.865 106.066 32.501C105.711 32.1283 105.208 31.942 104.558 31.942C104.073 31.942 103.648 32.0417 103.284 32.241C102.929 32.4317 102.651 32.7133 102.452 33.086C102.261 33.45 102.166 33.892 102.166 34.412V38H101.243V31.175H102.127V33.047L101.984 32.696C102.201 32.202 102.547 31.8163 103.024 31.539C103.501 31.253 104.068 31.11 104.727 31.11ZM109.368 31.526L109.94 29.134L110.044 29.68C109.844 29.68 109.675 29.6193 109.537 29.498C109.407 29.368 109.342 29.199 109.342 28.991C109.342 28.783 109.407 28.614 109.537 28.484C109.675 28.354 109.84 28.289 110.031 28.289C110.23 28.289 110.39 28.3583 110.512 28.497C110.642 28.627 110.707 28.7917 110.707 28.991C110.707 29.0603 110.702 29.1297 110.694 29.199C110.685 29.2683 110.668 29.3463 110.642 29.433C110.624 29.511 110.594 29.6107 110.551 29.732L109.992 31.526H109.368ZM114.84 38.065C114.198 38.065 113.704 37.8917 113.358 37.545C113.011 37.1983 112.838 36.7087 112.838 36.076V29.667H113.761V36.024C113.761 36.4227 113.86 36.7303 114.06 36.947C114.268 37.1637 114.562 37.272 114.944 37.272C115.351 37.272 115.689 37.155 115.958 36.921L116.283 37.584C116.101 37.7487 115.88 37.87 115.62 37.948C115.368 38.026 115.108 38.065 114.84 38.065ZM111.616 31.942V31.175H115.841V31.942H111.616ZM124.888 38.065C124.29 38.065 123.753 37.9307 123.276 37.662C122.799 37.3847 122.422 36.986 122.145 36.466C121.868 35.946 121.729 35.3177 121.729 34.581C121.729 33.8357 121.868 33.2073 122.145 32.696C122.431 32.176 122.812 31.7817 123.289 31.513C123.766 31.2443 124.299 31.11 124.888 31.11C125.538 31.11 126.119 31.2573 126.63 31.552C127.15 31.838 127.557 32.241 127.852 32.761C128.147 33.281 128.294 33.8877 128.294 34.581C128.294 35.2657 128.147 35.8723 127.852 36.401C127.557 36.921 127.15 37.3283 126.63 37.623C126.119 37.9177 125.538 38.065 124.888 38.065ZM121.365 38V28.354H122.288V33.19L122.158 34.568L122.249 35.946V38H121.365ZM124.823 37.246C125.308 37.246 125.742 37.1377 126.123 36.921C126.504 36.6957 126.808 36.3837 127.033 35.985C127.258 35.5777 127.371 35.1097 127.371 34.581C127.371 34.0437 127.258 33.5757 127.033 33.177C126.808 32.7783 126.504 32.4707 126.123 32.254C125.742 32.0287 125.308 31.916 124.823 31.916C124.338 31.916 123.9 32.0287 123.51 32.254C123.129 32.4707 122.825 32.7783 122.6 33.177C122.383 33.5757 122.275 34.0437 122.275 34.581C122.275 35.1097 122.383 35.5777 122.6 35.985C122.825 36.3837 123.129 36.6957 123.51 36.921C123.9 37.1377 124.338 37.246 124.823 37.246ZM133.075 38.065C132.364 38.065 131.74 37.9177 131.203 37.623C130.665 37.3197 130.245 36.908 129.942 36.388C129.638 35.8593 129.487 35.257 129.487 34.581C129.487 33.905 129.63 33.307 129.916 32.787C130.21 32.267 130.609 31.8597 131.112 31.565C131.623 31.2617 132.195 31.11 132.828 31.11C133.469 31.11 134.037 31.2573 134.531 31.552C135.033 31.838 135.428 32.2453 135.714 32.774C136 33.294 136.143 33.8963 136.143 34.581C136.143 34.6243 136.138 34.672 136.13 34.724C136.13 34.7673 136.13 34.815 136.13 34.867H130.189V34.178H135.636L135.272 34.451C135.272 33.957 135.163 33.5193 134.947 33.138C134.739 32.748 134.453 32.4447 134.089 32.228C133.725 32.0113 133.304 31.903 132.828 31.903C132.36 31.903 131.939 32.0113 131.567 32.228C131.194 32.4447 130.904 32.748 130.696 33.138C130.488 33.528 130.384 33.9743 130.384 34.477V34.62C130.384 35.14 130.496 35.5993 130.722 35.998C130.956 36.388 131.276 36.6957 131.684 36.921C132.1 37.1377 132.572 37.246 133.101 37.246C133.517 37.246 133.902 37.1723 134.258 37.025C134.622 36.8777 134.934 36.6523 135.194 36.349L135.714 36.947C135.41 37.311 135.029 37.5883 134.57 37.779C134.119 37.9697 133.621 38.065 133.075 38.065ZM144.323 38.065C143.612 38.065 142.988 37.9177 142.451 37.623C141.913 37.3197 141.493 36.908 141.19 36.388C140.886 35.8593 140.735 35.257 140.735 34.581C140.735 33.905 140.878 33.307 141.164 32.787C141.458 32.267 141.857 31.8597 142.36 31.565C142.871 31.2617 143.443 31.11 144.076 31.11C144.717 31.11 145.285 31.2573 145.779 31.552C146.281 31.838 146.676 32.2453 146.962 32.774C147.248 33.294 147.391 33.8963 147.391 34.581C147.391 34.6243 147.386 34.672 147.378 34.724C147.378 34.7673 147.378 34.815 147.378 34.867H141.437V34.178H146.884L146.52 34.451C146.52 33.957 146.411 33.5193 146.195 33.138C145.987 32.748 145.701 32.4447 145.337 32.228C144.973 32.0113 144.552 31.903 144.076 31.903C143.608 31.903 143.187 32.0113 142.815 32.228C142.442 32.4447 142.152 32.748 141.944 33.138C141.736 33.528 141.632 33.9743 141.632 34.477V34.62C141.632 35.14 141.744 35.5993 141.97 35.998C142.204 36.388 142.524 36.6957 142.932 36.921C143.348 37.1377 143.82 37.246 144.349 37.246C144.765 37.246 145.15 37.1723 145.506 37.025C145.87 36.8777 146.182 36.6523 146.442 36.349L146.962 36.947C146.658 37.311 146.277 37.5883 145.818 37.779C145.367 37.9697 144.869 38.065 144.323 38.065ZM157.797 31.11C158.352 31.11 158.833 31.2183 159.24 31.435C159.656 31.643 159.977 31.9637 160.202 32.397C160.436 32.8303 160.553 33.3763 160.553 34.035V38H159.63V34.126C159.63 33.4067 159.457 32.865 159.11 32.501C158.772 32.1283 158.291 31.942 157.667 31.942C157.199 31.942 156.792 32.0417 156.445 32.241C156.107 32.4317 155.843 32.7133 155.652 33.086C155.47 33.45 155.379 33.892 155.379 34.412V38H154.456V34.126C154.456 33.4067 154.283 32.865 153.936 32.501C153.59 32.1283 153.104 31.942 152.48 31.942C152.021 31.942 151.618 32.0417 151.271 32.241C150.925 32.4317 150.656 32.7133 150.465 33.086C150.283 33.45 150.192 33.892 150.192 34.412V38H149.269V31.175H150.153V33.021L150.01 32.696C150.218 32.202 150.552 31.8163 151.011 31.539C151.479 31.253 152.03 31.11 152.662 31.11C153.33 31.11 153.897 31.279 154.365 31.617C154.833 31.9463 155.137 32.4447 155.275 33.112L154.911 32.969C155.111 32.4143 155.462 31.968 155.964 31.63C156.476 31.2833 157.087 31.11 157.797 31.11ZM166.58 38.065C165.99 38.065 165.457 37.9307 164.981 37.662C164.504 37.3847 164.123 36.9903 163.837 36.479C163.559 35.959 163.421 35.3263 163.421 34.581C163.421 33.8357 163.559 33.2073 163.837 32.696C164.114 32.176 164.491 31.7817 164.968 31.513C165.444 31.2443 165.982 31.11 166.58 31.11C167.23 31.11 167.81 31.2573 168.322 31.552C168.842 31.838 169.249 32.2453 169.544 32.774C169.838 33.294 169.986 33.8963 169.986 34.581C169.986 35.2743 169.838 35.881 169.544 36.401C169.249 36.921 168.842 37.3283 168.322 37.623C167.81 37.9177 167.23 38.065 166.58 38.065ZM163.057 40.522V31.175H163.941V33.229L163.85 34.594L163.98 35.972V40.522H163.057ZM166.515 37.246C167 37.246 167.433 37.1377 167.815 36.921C168.196 36.6957 168.499 36.3837 168.725 35.985C168.95 35.5777 169.063 35.1097 169.063 34.581C169.063 34.0523 168.95 33.5887 168.725 33.19C168.499 32.7913 168.196 32.4793 167.815 32.254C167.433 32.0287 167 31.916 166.515 31.916C166.029 31.916 165.592 32.0287 165.202 32.254C164.82 32.4793 164.517 32.7913 164.292 33.19C164.075 33.5887 163.967 34.0523 163.967 34.581C163.967 35.1097 164.075 35.5777 164.292 35.985C164.517 36.3837 164.82 36.6957 165.202 36.921C165.592 37.1377 166.029 37.246 166.515 37.246ZM174.025 38.065C173.384 38.065 172.89 37.8917 172.543 37.545C172.196 37.1983 172.023 36.7087 172.023 36.076V29.667H172.946V36.024C172.946 36.4227 173.046 36.7303 173.245 36.947C173.453 37.1637 173.748 37.272 174.129 37.272C174.536 37.272 174.874 37.155 175.143 36.921L175.468 37.584C175.286 37.7487 175.065 37.87 174.805 37.948C174.554 38.026 174.294 38.065 174.025 38.065ZM170.801 31.942V31.175H175.026V31.942H170.801ZM177.073 40.587C176.753 40.587 176.445 40.535 176.15 40.431C175.864 40.327 175.617 40.171 175.409 39.963L175.838 39.274C176.012 39.4387 176.198 39.5643 176.397 39.651C176.605 39.7463 176.835 39.794 177.086 39.794C177.39 39.794 177.65 39.7073 177.866 39.534C178.092 39.3693 178.304 39.0747 178.503 38.65L178.945 37.649L179.049 37.506L181.857 31.175H182.767L179.348 38.819C179.158 39.261 178.945 39.612 178.711 39.872C178.486 40.132 178.239 40.314 177.97 40.418C177.702 40.5307 177.403 40.587 177.073 40.587ZM178.893 38.195L175.747 31.175H176.709L179.491 37.441L178.893 38.195ZM183.714 38.065C183.523 38.065 183.359 37.9957 183.22 37.857C183.09 37.7183 183.025 37.5493 183.025 37.35C183.025 37.142 183.09 36.973 183.22 36.843C183.359 36.713 183.523 36.648 183.714 36.648C183.905 36.648 184.065 36.713 184.195 36.843C184.334 36.973 184.403 37.142 184.403 37.35C184.403 37.5493 184.334 37.7183 184.195 37.857C184.065 37.9957 183.905 38.065 183.714 38.065ZM25.482 58V48.9H28.888C29.6593 48.9 30.3223 49.0257 30.877 49.277C31.4317 49.5197 31.8563 49.875 32.151 50.343C32.4543 50.8023 32.606 51.3613 32.606 52.02C32.606 52.6613 32.4543 53.216 32.151 53.684C31.8563 54.1433 31.4317 54.4987 30.877 54.75C30.3223 55.0013 29.6593 55.127 28.888 55.127H26.015L26.444 54.672V58H25.482ZM26.444 54.75L26.015 54.282H28.862C29.772 54.282 30.461 54.087 30.929 53.697C31.4057 53.2983 31.644 52.7393 31.644 52.02C31.644 51.292 31.4057 50.7287 30.929 50.33C30.461 49.9313 29.772 49.732 28.862 49.732H26.015L26.444 49.277V54.75ZM34.6181 58V48.354H35.5411V58H34.6181ZM41.0083 58.065C40.2976 58.065 39.6736 57.9177 39.1363 57.623C38.5989 57.3197 38.1786 56.908 37.8753 56.388C37.5719 55.8593 37.4203 55.257 37.4203 54.581C37.4203 53.905 37.5633 53.307 37.8493 52.787C38.1439 52.267 38.5426 51.8597 39.0453 51.565C39.5566 51.2617 40.1286 51.11 40.7613 51.11C41.4026 51.11 41.9703 51.2573 42.4643 51.552C42.9669 51.838 43.3613 52.2453 43.6473 52.774C43.9333 53.294 44.0763 53.8963 44.0763 54.581C44.0763 54.6243 44.0719 54.672 44.0633 54.724C44.0633 54.7673 44.0633 54.815 44.0633 54.867H38.1223V54.178H43.5693L43.2053 54.451C43.2053 53.957 43.0969 53.5193 42.8803 53.138C42.6723 52.748 42.3863 52.4447 42.0223 52.228C41.6583 52.0113 41.2379 51.903 40.7613 51.903C40.2933 51.903 39.8729 52.0113 39.5003 52.228C39.1276 52.4447 38.8373 52.748 38.6293 53.138C38.4213 53.528 38.3173 53.9743 38.3173 54.477V54.62C38.3173 55.14 38.4299 55.5993 38.6553 55.998C38.8893 56.388 39.2099 56.6957 39.6173 56.921C40.0333 57.1377 40.5056 57.246 41.0343 57.246C41.4503 57.246 41.8359 57.1723 42.1913 57.025C42.5553 56.8777 42.8673 56.6523 43.1273 56.349L43.6473 56.947C43.3439 57.311 42.9626 57.5883 42.5033 57.779C42.0526 57.9697 41.5543 58.065 41.0083 58.065ZM50.0415 58V56.492L50.0025 56.245V53.723C50.0025 53.1423 49.8379 52.696 49.5085 52.384C49.1879 52.072 48.7069 51.916 48.0655 51.916C47.6235 51.916 47.2032 51.9897 46.8045 52.137C46.4059 52.2843 46.0679 52.4793 45.7905 52.722L45.3745 52.033C45.7212 51.7383 46.1372 51.513 46.6225 51.357C47.1079 51.1923 47.6192 51.11 48.1565 51.11C49.0405 51.11 49.7209 51.331 50.1975 51.773C50.6829 52.2063 50.9255 52.8693 50.9255 53.762V58H50.0415ZM47.6885 58.065C47.1772 58.065 46.7309 57.9827 46.3495 57.818C45.9769 57.6447 45.6909 57.4107 45.4915 57.116C45.2922 56.8127 45.1925 56.466 45.1925 56.076C45.1925 55.7207 45.2749 55.4 45.4395 55.114C45.6129 54.8193 45.8902 54.5853 46.2715 54.412C46.6615 54.23 47.1815 54.139 47.8315 54.139H50.1845V54.828H47.8575C47.1989 54.828 46.7395 54.945 46.4795 55.179C46.2282 55.413 46.1025 55.7033 46.1025 56.05C46.1025 56.44 46.2542 56.752 46.5575 56.986C46.8609 57.22 47.2855 57.337 47.8315 57.337C48.3515 57.337 48.7979 57.22 49.1705 56.986C49.5519 56.7433 49.8292 56.3967 50.0025 55.946L50.2105 56.583C50.0372 57.0337 49.7339 57.3933 49.3005 57.662C48.8759 57.9307 48.3385 58.065 47.6885 58.065ZM55.2655 58.065C54.7022 58.065 54.1692 57.987 53.6665 57.831C53.1638 57.6663 52.7695 57.4627 52.4835 57.22L52.8995 56.492C53.1768 56.7 53.5322 56.882 53.9655 57.038C54.3988 57.1853 54.8538 57.259 55.3305 57.259C55.9805 57.259 56.4485 57.1593 56.7345 56.96C57.0205 56.752 57.1635 56.479 57.1635 56.141C57.1635 55.8897 57.0812 55.6947 56.9165 55.556C56.7605 55.4087 56.5525 55.3003 56.2925 55.231C56.0325 55.153 55.7422 55.088 55.4215 55.036C55.1008 54.984 54.7802 54.9233 54.4595 54.854C54.1475 54.7847 53.8615 54.685 53.6015 54.555C53.3415 54.4163 53.1292 54.23 52.9645 53.996C52.8085 53.762 52.7305 53.45 52.7305 53.06C52.7305 52.6873 52.8345 52.3537 53.0425 52.059C53.2505 51.7643 53.5538 51.5347 53.9525 51.37C54.3598 51.1967 54.8538 51.11 55.4345 51.11C55.8765 51.11 56.3185 51.1707 56.7605 51.292C57.2025 51.4047 57.5665 51.5563 57.8525 51.747L57.4495 52.488C57.1462 52.28 56.8212 52.1327 56.4745 52.046C56.1278 51.9507 55.7812 51.903 55.4345 51.903C54.8192 51.903 54.3642 52.0113 54.0695 52.228C53.7835 52.436 53.6405 52.7047 53.6405 53.034C53.6405 53.294 53.7185 53.4977 53.8745 53.645C54.0392 53.7923 54.2515 53.9093 54.5115 53.996C54.7802 54.074 55.0705 54.139 55.3825 54.191C55.7032 54.243 56.0195 54.308 56.3315 54.386C56.6522 54.4553 56.9425 54.555 57.2025 54.685C57.4712 54.8063 57.6835 54.984 57.8395 55.218C58.0042 55.4433 58.0865 55.7423 58.0865 56.115C58.0865 56.5137 57.9738 56.8603 57.7485 57.155C57.5318 57.441 57.2112 57.6663 56.7865 57.831C56.3705 57.987 55.8635 58.065 55.2655 58.065ZM62.6792 58.065C61.9685 58.065 61.3445 57.9177 60.8072 57.623C60.2698 57.3197 59.8495 56.908 59.5462 56.388C59.2428 55.8593 59.0912 55.257 59.0912 54.581C59.0912 53.905 59.2342 53.307 59.5202 52.787C59.8148 52.267 60.2135 51.8597 60.7162 51.565C61.2275 51.2617 61.7995 51.11 62.4322 51.11C63.0735 51.11 63.6412 51.2573 64.1352 51.552C64.6378 51.838 65.0322 52.2453 65.3182 52.774C65.6042 53.294 65.7472 53.8963 65.7472 54.581C65.7472 54.6243 65.7428 54.672 65.7342 54.724C65.7342 54.7673 65.7342 54.815 65.7342 54.867H59.7932V54.178H65.2402L64.8762 54.451C64.8762 53.957 64.7678 53.5193 64.5512 53.138C64.3432 52.748 64.0572 52.4447 63.6932 52.228C63.3292 52.0113 62.9088 51.903 62.4322 51.903C61.9642 51.903 61.5438 52.0113 61.1712 52.228C60.7985 52.4447 60.5082 52.748 60.3002 53.138C60.0922 53.528 59.9882 53.9743 59.9882 54.477V54.62C59.9882 55.14 60.1008 55.5993 60.3262 55.998C60.5602 56.388 60.8808 56.6957 61.2882 56.921C61.7042 57.1377 62.1765 57.246 62.7052 57.246C63.1212 57.246 63.5068 57.1723 63.8622 57.025C64.2262 56.8777 64.5382 56.6523 64.7982 56.349L65.3182 56.947C65.0148 57.311 64.6335 57.5883 64.1742 57.779C63.7235 57.9697 63.2252 58.065 62.6792 58.065ZM71.1842 58V50.317C71.1842 49.7103 71.3619 49.2207 71.7172 48.848C72.0725 48.4753 72.5839 48.289 73.2512 48.289C73.5112 48.289 73.7625 48.3237 74.0052 48.393C74.2479 48.4623 74.4515 48.5707 74.6162 48.718L74.3042 49.407C74.1742 49.2943 74.0225 49.212 73.8492 49.16C73.6759 49.0993 73.4895 49.069 73.2902 49.069C72.9002 49.069 72.6012 49.1773 72.3932 49.394C72.1852 49.6107 72.0812 49.9313 72.0812 50.356V51.396L72.1072 51.825V58H71.1842ZM69.9622 51.942V51.175H74.1872V51.942H69.9622ZM75.4352 58V51.175H76.3582V58H75.4352ZM75.9032 49.667C75.7125 49.667 75.5522 49.602 75.4222 49.472C75.2922 49.342 75.2272 49.186 75.2272 49.004C75.2272 48.822 75.2922 48.6703 75.4222 48.549C75.5522 48.419 75.7125 48.354 75.9032 48.354C76.0939 48.354 76.2542 48.4147 76.3842 48.536C76.5142 48.6573 76.5792 48.809 76.5792 48.991C76.5792 49.1817 76.5142 49.342 76.3842 49.472C76.2629 49.602 76.1025 49.667 75.9032 49.667ZM78.9501 58V48.354H79.8731V58H78.9501ZM82.4413 58V48.354H83.3643V58H82.4413ZM89.3349 58V51.175H90.2579V58H89.3349ZM89.8029 49.667C89.6122 49.667 89.4519 49.602 89.3219 49.472C89.1919 49.342 89.1269 49.186 89.1269 49.004C89.1269 48.822 89.1919 48.6703 89.3219 48.549C89.4519 48.419 89.6122 48.354 89.8029 48.354C89.9935 48.354 90.1539 48.4147 90.2839 48.536C90.4139 48.6573 90.4789 48.809 90.4789 48.991C90.4789 49.1817 90.4139 49.342 90.2839 49.472C90.1625 49.602 90.0022 49.667 89.8029 49.667ZM94.9841 58.065C94.3427 58.065 93.8487 57.8917 93.5021 57.545C93.1554 57.1983 92.9821 56.7087 92.9821 56.076V49.667H93.9051V56.024C93.9051 56.4227 94.0047 56.7303 94.2041 56.947C94.4121 57.1637 94.7067 57.272 95.0881 57.272C95.4954 57.272 95.8334 57.155 96.1021 56.921L96.4271 57.584C96.2451 57.7487 96.0241 57.87 95.7641 57.948C95.5127 58.026 95.2527 58.065 94.9841 58.065ZM91.7601 51.942V51.175H95.9851V51.942H91.7601ZM101.51 58V51.175H102.433V58H101.51ZM101.978 49.667C101.787 49.667 101.627 49.602 101.497 49.472C101.367 49.342 101.302 49.186 101.302 49.004C101.302 48.822 101.367 48.6703 101.497 48.549C101.627 48.419 101.787 48.354 101.978 48.354C102.168 48.354 102.329 48.4147 102.459 48.536C102.589 48.6573 102.654 48.809 102.654 48.991C102.654 49.1817 102.589 49.342 102.459 49.472C102.337 49.602 102.177 49.667 101.978 49.667ZM108.485 51.11C109.04 51.11 109.525 51.2183 109.941 51.435C110.366 51.643 110.695 51.9637 110.929 52.397C111.172 52.8303 111.293 53.3763 111.293 54.035V58H110.37V54.126C110.37 53.4067 110.188 52.865 109.824 52.501C109.469 52.1283 108.966 51.942 108.316 51.942C107.831 51.942 107.406 52.0417 107.042 52.241C106.687 52.4317 106.409 52.7133 106.21 53.086C106.019 53.45 105.924 53.892 105.924 54.412V58H105.001V51.175H105.885V53.047L105.742 52.696C105.959 52.202 106.305 51.8163 106.782 51.539C107.259 51.253 107.826 51.11 108.485 51.11ZM113.877 58.065C113.686 58.065 113.522 57.9957 113.383 57.857C113.253 57.7183 113.188 57.5493 113.188 57.35C113.188 57.142 113.253 56.973 113.383 56.843C113.522 56.713 113.686 56.648 113.877 56.648C114.068 56.648 114.228 56.713 114.358 56.843C114.497 56.973 114.566 57.142 114.566 57.35C114.566 57.5493 114.497 57.7183 114.358 57.857C114.228 57.9957 114.068 58.065 113.877 58.065Z" fill="white"/>
<defs>
<filter id="filter0_d_4_223" x="0" y="0" width="216" height="89" filterUnits="userSpaceOnUse" color-interpolation-filters="sRGB">
<feFlood flood-opacity="0" result="BackgroundImageFix"/>
<feColorMatrix in="SourceAlpha" type="matrix" values="0 0 0 0 0 0 0 0 0 0 0 0 0 0 0 0 0 0 127 0" result="hardAlpha"/>
<feOffset dy="4"/>
<feGaussianBlur stdDeviation="4"/>
<feColorMatrix type="matrix" values="0 0 0 0 0 0 0 0 0 0 0 0 0 0 0 0 0 0 0.08 0"/>
<feBlend mode="normal" in2="BackgroundImageFix" result="effect1_dropShadow_4_223"/>
<feBlend mode="normal" in="SourceGraphic" in2="effect1_dropShadow_4_223" result="shape"/>
</filter>
</defs>
</svg>
