<svg width="192" height="28" viewBox="0 0 192 28" fill="none" xmlns="http://www.w3.org/2000/svg">
<path d="M5.13 4.184C6.294 4.184 7.296 4.424 8.136 4.904C8.976 5.384 9.624 6.086 10.08 7.01C10.536 7.922 10.764 9.062 10.764 10.43C10.764 11.882 10.488 13.112 9.936 14.12C9.396 15.128 8.646 15.896 7.686 16.424C6.726 16.952 5.61 17.216 4.338 17.216C3.678 17.216 3.042 17.144 2.43 17C1.818 16.856 1.29 16.64 0.846 16.352L1.926 14.21C2.274 14.45 2.646 14.618 3.042 14.714C3.438 14.798 3.852 14.84 4.284 14.84C5.364 14.84 6.222 14.51 6.858 13.85C7.506 13.19 7.83 12.212 7.83 10.916C7.83 10.7 7.824 10.46 7.812 10.196C7.8 9.932 7.77 9.668 7.722 9.404L8.514 10.16C8.31 10.628 8.022 11.024 7.65 11.348C7.278 11.66 6.846 11.9 6.354 12.068C5.862 12.224 5.31 12.302 4.698 12.302C3.894 12.302 3.162 12.14 2.502 11.816C1.854 11.492 1.332 11.036 0.936 10.448C0.552 9.86 0.36 9.17 0.36 8.378C0.36 7.514 0.57 6.77 0.99 6.146C1.422 5.522 1.998 5.042 2.718 4.706C3.45 4.358 4.254 4.184 5.13 4.184ZM5.31 6.362C4.89 6.362 4.524 6.44 4.212 6.596C3.9 6.74 3.654 6.956 3.474 7.244C3.294 7.52 3.204 7.85 3.204 8.234C3.204 8.81 3.396 9.272 3.78 9.62C4.176 9.956 4.698 10.124 5.346 10.124C5.766 10.124 6.138 10.046 6.462 9.89C6.798 9.722 7.056 9.494 7.236 9.206C7.416 8.918 7.506 8.594 7.506 8.234C7.506 7.874 7.416 7.556 7.236 7.28C7.068 6.992 6.822 6.77 6.498 6.614C6.174 6.446 5.778 6.362 5.31 6.362ZM11.9846 17V15.11L16.8446 10.52C17.2286 10.172 17.5106 9.86 17.6906 9.584C17.8706 9.308 17.9906 9.056 18.0506 8.828C18.1226 8.6 18.1586 8.39 18.1586 8.198C18.1586 7.694 17.9846 7.31 17.6366 7.046C17.3006 6.77 16.8026 6.632 16.1426 6.632C15.6146 6.632 15.1226 6.734 14.6666 6.938C14.2226 7.142 13.8446 7.46 13.5326 7.892L11.4086 6.524C11.8886 5.804 12.5606 5.234 13.4246 4.814C14.2886 4.394 15.2846 4.184 16.4126 4.184C17.3486 4.184 18.1646 4.34 18.8606 4.652C19.5686 4.952 20.1146 5.378 20.4986 5.93C20.8946 6.482 21.0926 7.142 21.0926 7.91C21.0926 8.318 21.0386 8.726 20.9306 9.134C20.8346 9.53 20.6306 9.95 20.3186 10.394C20.0186 10.838 19.5746 11.336 18.9866 11.888L14.9546 15.686L14.3966 14.624H21.5066V17H11.9846ZM24.7036 17L33.3076 4.4H35.4496L26.8456 17H24.7036ZM25.8016 11.204C25.1896 11.204 24.6496 11.066 24.1816 10.79C23.7136 10.502 23.3416 10.1 23.0656 9.584C22.8016 9.056 22.6696 8.438 22.6696 7.73C22.6696 7.022 22.8016 6.41 23.0656 5.894C23.3416 5.378 23.7136 4.976 24.1816 4.688C24.6496 4.4 25.1896 4.256 25.8016 4.256C26.4136 4.256 26.9536 4.4 27.4216 4.688C27.8896 4.976 28.2556 5.378 28.5196 5.894C28.7836 6.41 28.9156 7.022 28.9156 7.73C28.9156 8.438 28.7836 9.056 28.5196 9.584C28.2556 10.1 27.8896 10.502 27.4216 10.79C26.9536 11.066 26.4136 11.204 25.8016 11.204ZM25.8016 9.728C26.1976 9.728 26.5156 9.566 26.7556 9.242C26.9956 8.906 27.1156 8.402 27.1156 7.73C27.1156 7.058 26.9956 6.56 26.7556 6.236C26.5156 5.9 26.1976 5.732 25.8016 5.732C25.4176 5.732 25.0996 5.9 24.8476 6.236C24.6076 6.56 24.4876 7.058 24.4876 7.73C24.4876 8.39 24.6076 8.888 24.8476 9.224C25.0996 9.56 25.4176 9.728 25.8016 9.728ZM34.3516 17.144C33.7516 17.144 33.2116 17.006 32.7316 16.73C32.2636 16.442 31.8976 16.04 31.6336 15.524C31.3696 14.996 31.2376 14.378 31.2376 13.67C31.2376 12.962 31.3696 12.35 31.6336 11.834C31.8976 11.318 32.2636 10.916 32.7316 10.628C33.2116 10.34 33.7516 10.196 34.3516 10.196C34.9756 10.196 35.5216 10.34 35.9896 10.628C36.4576 10.916 36.8236 11.318 37.0876 11.834C37.3516 12.35 37.4836 12.962 37.4836 13.67C37.4836 14.378 37.3516 14.996 37.0876 15.524C36.8236 16.04 36.4576 16.442 35.9896 16.73C35.5216 17.006 34.9756 17.144 34.3516 17.144ZM34.3516 15.668C34.7476 15.668 35.0656 15.506 35.3056 15.182C35.5456 14.846 35.6656 14.342 35.6656 13.67C35.6656 13.01 35.5456 12.512 35.3056 12.176C35.0656 11.84 34.7476 11.672 34.3516 11.672C33.9676 11.672 33.6496 11.84 33.3976 12.176C33.1576 12.5 33.0376 12.998 33.0376 13.67C33.0376 14.342 33.1576 14.846 33.3976 15.182C33.6496 15.506 33.9676 15.668 34.3516 15.668ZM48.7004 17.216C47.6924 17.216 46.7264 17.084 45.8024 16.82C44.8784 16.544 44.1344 16.19 43.5704 15.758L44.5604 13.562C45.1004 13.946 45.7364 14.264 46.4684 14.516C47.2124 14.756 47.9624 14.876 48.7184 14.876C49.2944 14.876 49.7564 14.822 50.1044 14.714C50.4644 14.594 50.7284 14.432 50.8964 14.228C51.0644 14.024 51.1484 13.79 51.1484 13.526C51.1484 13.19 51.0164 12.926 50.7524 12.734C50.4884 12.53 50.1404 12.368 49.7084 12.248C49.2764 12.116 48.7964 11.996 48.2684 11.888C47.7524 11.768 47.2304 11.624 46.7024 11.456C46.1864 11.288 45.7124 11.072 45.2804 10.808C44.8484 10.544 44.4944 10.196 44.2184 9.764C43.9544 9.332 43.8224 8.78 43.8224 8.108C43.8224 7.388 44.0144 6.734 44.3984 6.146C44.7944 5.546 45.3824 5.072 46.1624 4.724C46.9544 4.364 47.9444 4.184 49.1324 4.184C49.9244 4.184 50.7044 4.28 51.4724 4.472C52.2404 4.652 52.9184 4.928 53.5064 5.3L52.6064 7.514C52.0184 7.178 51.4304 6.932 50.8424 6.776C50.2544 6.608 49.6784 6.524 49.1144 6.524C48.5504 6.524 48.0884 6.59 47.7284 6.722C47.3684 6.854 47.1104 7.028 46.9544 7.244C46.7984 7.448 46.7204 7.688 46.7204 7.964C46.7204 8.288 46.8524 8.552 47.1164 8.756C47.3804 8.948 47.7284 9.104 48.1604 9.224C48.5924 9.344 49.0664 9.464 49.5824 9.584C50.1104 9.704 50.6324 9.842 51.1484 9.998C51.6764 10.154 52.1564 10.364 52.5884 10.628C53.0204 10.892 53.3684 11.24 53.6324 11.672C53.9084 12.104 54.0464 12.65 54.0464 13.31C54.0464 14.018 53.8484 14.666 53.4524 15.254C53.0564 15.842 52.4624 16.316 51.6704 16.676C50.8904 17.036 49.9004 17.216 48.7004 17.216ZM59.9269 17.144C59.1229 17.144 58.4029 16.988 57.7669 16.676C57.1429 16.364 56.6569 15.89 56.3089 15.254C55.9609 14.606 55.7869 13.784 55.7869 12.788V7.316H58.5949V12.374C58.5949 13.178 58.7629 13.772 59.0989 14.156C59.4469 14.528 59.9329 14.714 60.5569 14.714C60.9889 14.714 61.3729 14.624 61.7089 14.444C62.0449 14.252 62.3089 13.964 62.5009 13.58C62.6929 13.184 62.7889 12.692 62.7889 12.104V7.316H65.5969V17H62.9329V14.336L63.4189 15.11C63.0949 15.782 62.6149 16.292 61.9789 16.64C61.3549 16.976 60.6709 17.144 59.9269 17.144ZM72.8783 17.144C71.8343 17.144 70.9043 16.934 70.0883 16.514C69.2723 16.082 68.6303 15.488 68.1623 14.732C67.7063 13.976 67.4783 13.118 67.4783 12.158C67.4783 11.186 67.7063 10.328 68.1623 9.584C68.6303 8.828 69.2723 8.24 70.0883 7.82C70.9043 7.388 71.8343 7.172 72.8783 7.172C73.8983 7.172 74.7863 7.388 75.5423 7.82C76.2983 8.24 76.8563 8.846 77.2163 9.638L75.0383 10.808C74.7863 10.352 74.4683 10.016 74.0843 9.8C73.7123 9.584 73.3043 9.476 72.8603 9.476C72.3803 9.476 71.9483 9.584 71.5643 9.8C71.1803 10.016 70.8743 10.322 70.6463 10.718C70.4303 11.114 70.3223 11.594 70.3223 12.158C70.3223 12.722 70.4303 13.202 70.6463 13.598C70.8743 13.994 71.1803 14.3 71.5643 14.516C71.9483 14.732 72.3803 14.84 72.8603 14.84C73.3043 14.84 73.7123 14.738 74.0843 14.534C74.4683 14.318 74.7863 13.976 75.0383 13.508L77.2163 14.696C76.8563 15.476 76.2983 16.082 75.5423 16.514C74.7863 16.934 73.8983 17.144 72.8783 17.144ZM83.3901 17.144C82.3461 17.144 81.4161 16.934 80.6001 16.514C79.7841 16.082 79.1421 15.488 78.6741 14.732C78.2181 13.976 77.9901 13.118 77.9901 12.158C77.9901 11.186 78.2181 10.328 78.6741 9.584C79.1421 8.828 79.7841 8.24 80.6001 7.82C81.4161 7.388 82.3461 7.172 83.3901 7.172C84.4101 7.172 85.2981 7.388 86.0541 7.82C86.8101 8.24 87.3681 8.846 87.7281 9.638L85.5501 10.808C85.2981 10.352 84.9801 10.016 84.5961 9.8C84.2241 9.584 83.8161 9.476 83.3721 9.476C82.8921 9.476 82.4601 9.584 82.0761 9.8C81.6921 10.016 81.3861 10.322 81.1581 10.718C80.9421 11.114 80.8341 11.594 80.8341 12.158C80.8341 12.722 80.9421 13.202 81.1581 13.598C81.3861 13.994 81.6921 14.3 82.0761 14.516C82.4601 14.732 82.8921 14.84 83.3721 14.84C83.8161 14.84 84.2241 14.738 84.5961 14.534C84.9801 14.318 85.2981 13.976 85.5501 13.508L87.7281 14.696C87.3681 15.476 86.8101 16.082 86.0541 16.514C85.2981 16.934 84.4101 17.144 83.3901 17.144ZM94.0278 17.144C92.9238 17.144 91.9518 16.928 91.1118 16.496C90.2838 16.064 89.6418 15.476 89.1858 14.732C88.7298 13.976 88.5018 13.118 88.5018 12.158C88.5018 11.186 88.7238 10.328 89.1678 9.584C89.6238 8.828 90.2418 8.24 91.0218 7.82C91.8018 7.388 92.6838 7.172 93.6678 7.172C94.6158 7.172 95.4678 7.376 96.2238 7.784C96.9918 8.18 97.5978 8.756 98.0418 9.512C98.4858 10.256 98.7078 11.15 98.7078 12.194C98.7078 12.302 98.7018 12.428 98.6898 12.572C98.6778 12.704 98.6658 12.83 98.6538 12.95H90.7878V11.312H97.1778L96.0978 11.798C96.0978 11.294 95.9958 10.856 95.7918 10.484C95.5878 10.112 95.3058 9.824 94.9458 9.62C94.5858 9.404 94.1658 9.296 93.6858 9.296C93.2058 9.296 92.7798 9.404 92.4078 9.62C92.0478 9.824 91.7658 10.118 91.5618 10.502C91.3578 10.874 91.2558 11.318 91.2558 11.834V12.266C91.2558 12.794 91.3698 13.262 91.5978 13.67C91.8378 14.066 92.1678 14.372 92.5878 14.588C93.0198 14.792 93.5238 14.894 94.0998 14.894C94.6158 14.894 95.0658 14.816 95.4498 14.66C95.8458 14.504 96.2058 14.27 96.5298 13.958L98.0238 15.578C97.5798 16.082 97.0218 16.472 96.3498 16.748C95.6778 17.012 94.9038 17.144 94.0278 17.144ZM103.835 17.144C103.007 17.144 102.209 17.048 101.441 16.856C100.685 16.652 100.085 16.4 99.6413 16.1L100.577 14.084C101.021 14.36 101.543 14.588 102.143 14.768C102.755 14.936 103.355 15.02 103.943 15.02C104.591 15.02 105.047 14.942 105.311 14.786C105.587 14.63 105.725 14.414 105.725 14.138C105.725 13.91 105.617 13.742 105.401 13.634C105.197 13.514 104.921 13.424 104.573 13.364C104.225 13.304 103.841 13.244 103.421 13.184C103.013 13.124 102.599 13.046 102.179 12.95C101.759 12.842 101.375 12.686 101.027 12.482C100.679 12.278 100.397 12.002 100.181 11.654C99.9773 11.306 99.8752 10.856 99.8752 10.304C99.8752 9.692 100.049 9.152 100.397 8.684C100.757 8.216 101.273 7.85 101.945 7.586C102.617 7.31 103.421 7.172 104.357 7.172C105.017 7.172 105.689 7.244 106.373 7.388C107.057 7.532 107.627 7.742 108.083 8.018L107.147 10.016C106.679 9.74 106.205 9.554 105.725 9.458C105.257 9.35 104.801 9.296 104.357 9.296C103.733 9.296 103.277 9.38 102.989 9.548C102.701 9.716 102.557 9.932 102.557 10.196C102.557 10.436 102.659 10.616 102.863 10.736C103.079 10.856 103.361 10.952 103.709 11.024C104.057 11.096 104.435 11.162 104.843 11.222C105.263 11.27 105.683 11.348 106.103 11.456C106.523 11.564 106.901 11.72 107.237 11.924C107.585 12.116 107.867 12.386 108.083 12.734C108.299 13.07 108.407 13.514 108.407 14.066C108.407 14.666 108.227 15.2 107.867 15.668C107.507 16.124 106.985 16.484 106.301 16.748C105.629 17.012 104.807 17.144 103.835 17.144ZM113.398 17.144C112.57 17.144 111.772 17.048 111.004 16.856C110.248 16.652 109.648 16.4 109.204 16.1L110.14 14.084C110.584 14.36 111.106 14.588 111.706 14.768C112.318 14.936 112.918 15.02 113.506 15.02C114.154 15.02 114.61 14.942 114.874 14.786C115.15 14.63 115.288 14.414 115.288 14.138C115.288 13.91 115.18 13.742 114.964 13.634C114.76 13.514 114.484 13.424 114.136 13.364C113.788 13.304 113.404 13.244 112.984 13.184C112.576 13.124 112.162 13.046 111.742 12.95C111.322 12.842 110.938 12.686 110.59 12.482C110.242 12.278 109.96 12.002 109.744 11.654C109.54 11.306 109.438 10.856 109.438 10.304C109.438 9.692 109.612 9.152 109.96 8.684C110.32 8.216 110.836 7.85 111.508 7.586C112.18 7.31 112.984 7.172 113.92 7.172C114.58 7.172 115.252 7.244 115.936 7.388C116.62 7.532 117.19 7.742 117.646 8.018L116.71 10.016C116.242 9.74 115.768 9.554 115.288 9.458C114.82 9.35 114.364 9.296 113.92 9.296C113.296 9.296 112.84 9.38 112.552 9.548C112.264 9.716 112.12 9.932 112.12 10.196C112.12 10.436 112.222 10.616 112.426 10.736C112.642 10.856 112.924 10.952 113.272 11.024C113.62 11.096 113.998 11.162 114.406 11.222C114.826 11.27 115.246 11.348 115.666 11.456C116.086 11.564 116.464 11.72 116.8 11.924C117.148 12.116 117.43 12.386 117.646 12.734C117.862 13.07 117.97 13.514 117.97 14.066C117.97 14.666 117.79 15.2 117.43 15.668C117.07 16.124 116.548 16.484 115.864 16.748C115.192 17.012 114.37 17.144 113.398 17.144ZM124.998 17V4.4H130.452C131.58 4.4 132.552 4.586 133.368 4.958C134.184 5.318 134.814 5.84 135.258 6.524C135.702 7.208 135.924 8.024 135.924 8.972C135.924 9.908 135.702 10.718 135.258 11.402C134.814 12.074 134.184 12.59 133.368 12.95C132.552 13.31 131.58 13.49 130.452 13.49H126.618L127.914 12.212V17H124.998ZM133.008 17L129.858 12.428H132.972L136.158 17H133.008ZM127.914 12.536L126.618 11.168H130.29C131.19 11.168 131.862 10.976 132.306 10.592C132.75 10.196 132.972 9.656 132.972 8.972C132.972 8.276 132.75 7.736 132.306 7.352C131.862 6.968 131.19 6.776 130.29 6.776H126.618L127.914 5.39V12.536ZM143.888 17V15.11L143.708 14.696V11.312C143.708 10.712 143.522 10.244 143.15 9.908C142.79 9.572 142.232 9.404 141.476 9.404C140.96 9.404 140.45 9.488 139.946 9.656C139.454 9.812 139.034 10.028 138.686 10.304L137.678 8.342C138.206 7.97 138.842 7.682 139.586 7.478C140.33 7.274 141.086 7.172 141.854 7.172C143.33 7.172 144.476 7.52 145.292 8.216C146.108 8.912 146.516 9.998 146.516 11.474V17H143.888ZM140.936 17.144C140.18 17.144 139.532 17.018 138.992 16.766C138.452 16.502 138.038 16.148 137.75 15.704C137.462 15.26 137.318 14.762 137.318 14.21C137.318 13.634 137.456 13.13 137.732 12.698C138.02 12.266 138.47 11.93 139.082 11.69C139.694 11.438 140.492 11.312 141.476 11.312H144.05V12.95H141.782C141.122 12.95 140.666 13.058 140.414 13.274C140.174 13.49 140.054 13.76 140.054 14.084C140.054 14.444 140.192 14.732 140.468 14.948C140.756 15.152 141.146 15.254 141.638 15.254C142.106 15.254 142.526 15.146 142.898 14.93C143.27 14.702 143.54 14.372 143.708 13.94L144.14 15.236C143.936 15.86 143.564 16.334 143.024 16.658C142.484 16.982 141.788 17.144 140.936 17.144ZM153.018 17.144C151.878 17.144 150.99 16.856 150.354 16.28C149.718 15.692 149.4 14.822 149.4 13.67V5.174H152.208V13.634C152.208 14.042 152.316 14.36 152.532 14.588C152.748 14.804 153.042 14.912 153.414 14.912C153.858 14.912 154.236 14.792 154.548 14.552L155.304 16.532C155.016 16.736 154.668 16.892 154.26 17C153.864 17.096 153.45 17.144 153.018 17.144ZM147.906 9.692V7.532H154.62V9.692H147.906ZM161.387 17.144C160.283 17.144 159.311 16.928 158.471 16.496C157.643 16.064 157.001 15.476 156.545 14.732C156.089 13.976 155.861 13.118 155.861 12.158C155.861 11.186 156.083 10.328 156.527 9.584C156.983 8.828 157.601 8.24 158.381 7.82C159.161 7.388 160.043 7.172 161.027 7.172C161.975 7.172 162.827 7.376 163.583 7.784C164.351 8.18 164.957 8.756 165.401 9.512C165.845 10.256 166.067 11.15 166.067 12.194C166.067 12.302 166.061 12.428 166.049 12.572C166.037 12.704 166.025 12.83 166.013 12.95H158.147V11.312H164.537L163.457 11.798C163.457 11.294 163.355 10.856 163.151 10.484C162.947 10.112 162.665 9.824 162.305 9.62C161.945 9.404 161.525 9.296 161.045 9.296C160.565 9.296 160.139 9.404 159.767 9.62C159.407 9.824 159.125 10.118 158.921 10.502C158.717 10.874 158.615 11.318 158.615 11.834V12.266C158.615 12.794 158.729 13.262 158.957 13.67C159.197 14.066 159.527 14.372 159.947 14.588C160.379 14.792 160.883 14.894 161.459 14.894C161.975 14.894 162.425 14.816 162.809 14.66C163.205 14.504 163.565 14.27 163.889 13.958L165.383 15.578C164.939 16.082 164.381 16.472 163.709 16.748C163.037 17.012 162.263 17.144 161.387 17.144Z" fill="#5BC8AF"/>
<path fill-rule="evenodd" clip-rule="evenodd" d="M186.343 5.92888L191.707 11.2928C192.098 11.6834 192.098 12.3165 191.707 12.7071L186.343 18.071C185.953 18.4615 185.319 18.4615 184.929 18.071C184.538 17.6805 184.538 17.0473 184.929 16.6568L188.586 12.9999H175V10.9999H188.586L184.929 7.34309C184.538 6.95257 184.538 6.3194 184.929 5.92888C185.319 5.53836 185.953 5.53836 186.343 5.92888Z" fill="#5BC8AF"/>
</svg>
