<svg width="229" height="75" viewBox="0 0 229 75" fill="none" xmlns="http://www.w3.org/2000/svg">
<mask id="path-1-outside-1_1_586" maskUnits="userSpaceOnUse" x="-1" y="-1" width="231" height="77" fill="black">
<rect fill="white" x="-1" y="-1" width="231" height="77"/>
<path d="M9.11022 26L0.866219 0.799998H6.91422L14.0782 23.12H11.0542L18.5422 0.799998H23.9422L31.1422 23.12H28.2262L35.5702 0.799998H41.1502L32.9062 26H26.6422L20.2702 6.416H21.9262L15.3742 26H9.11022ZM40.2502 26L51.4822 0.799998H57.2422L68.5102 26H62.3902L53.1742 3.752H55.4782L46.2262 26H40.2502ZM45.8662 20.6L47.4142 16.172H60.3742L61.9582 20.6H45.8662ZM75.0791 26V5.552H67.0151V0.799998H88.9751V5.552H80.9111V26H75.0791ZM103.821 26.432C101.877 26.432 100.065 26.12 98.3854 25.496C96.7294 24.848 95.2894 23.936 94.0654 22.76C92.8414 21.584 91.8814 20.204 91.1854 18.62C90.5134 17.036 90.1774 15.296 90.1774 13.4C90.1774 11.504 90.5134 9.764 91.1854 8.18C91.8814 6.596 92.8414 5.216 94.0654 4.04C95.3134 2.864 96.7654 1.964 98.4214 1.34C100.077 0.691999 101.889 0.368 103.857 0.368C106.041 0.368 108.009 0.752 109.761 1.52C111.537 2.264 113.025 3.368 114.225 4.832L110.481 8.288C109.617 7.304 108.657 6.572 107.601 6.092C106.545 5.588 105.393 5.336 104.145 5.336C102.969 5.336 101.889 5.528 100.905 5.912C99.9214 6.296 99.0694 6.848 98.3494 7.568C97.6294 8.288 97.0654 9.14 96.6574 10.124C96.2734 11.108 96.0814 12.2 96.0814 13.4C96.0814 14.6 96.2734 15.692 96.6574 16.676C97.0654 17.66 97.6294 18.512 98.3494 19.232C99.0694 19.952 99.9214 20.504 100.905 20.888C101.889 21.272 102.969 21.464 104.145 21.464C105.393 21.464 106.545 21.224 107.601 20.744C108.657 20.24 109.617 19.484 110.481 18.476L114.225 21.932C113.025 23.396 111.537 24.512 109.761 25.28C108.009 26.048 106.029 26.432 103.821 26.432ZM135.444 0.799998H141.276V26H135.444V0.799998ZM123.996 26H118.164V0.799998H123.996V26ZM135.876 15.668H123.564V10.736H135.876V15.668Z"/>
<path d="M162.653 26V5.552H154.589V0.799998H176.549V5.552H168.485V26H162.653ZM196.967 0.799998H202.799V26H196.967V0.799998ZM185.519 26H179.687V0.799998H185.519V26ZM197.399 15.668H185.087V10.736H197.399V15.668ZM214.125 10.952H226.257V15.488H214.125V10.952ZM214.557 21.32H228.273V26H208.761V0.799998H227.805V5.48H214.557V21.32ZM64.341 74L53.469 48.8H59.769L69.273 71.12H65.565L75.213 48.8H81.009L70.101 74H64.341ZM83.113 74V48.8H88.945V74H83.113ZM94.9255 74V48.8H106.374C109.11 48.8 111.522 49.328 113.61 50.384C115.698 51.416 117.33 52.868 118.506 54.74C119.682 56.612 120.27 58.832 120.27 61.4C120.27 63.944 119.682 66.164 118.506 68.06C117.33 69.932 115.698 71.396 113.61 72.452C111.522 73.484 109.11 74 106.374 74H94.9255ZM100.758 69.212H106.086C107.766 69.212 109.218 68.9 110.441 68.276C111.69 67.628 112.65 66.716 113.322 65.54C114.018 64.364 114.366 62.984 114.366 61.4C114.366 59.792 114.018 58.412 113.322 57.26C112.65 56.084 111.69 55.184 110.441 54.56C109.218 53.912 107.766 53.588 106.086 53.588H100.758V69.212ZM130.032 58.952H142.164V63.488H130.032V58.952ZM130.464 69.32H144.18V74H124.668V48.8H143.712V53.48H130.464V69.32ZM161.06 74.432C159.068 74.432 157.22 74.108 155.516 73.46C153.836 72.812 152.372 71.9 151.124 70.724C149.9 69.548 148.94 68.168 148.244 66.584C147.572 65 147.236 63.272 147.236 61.4C147.236 59.528 147.572 57.8 148.244 56.216C148.94 54.632 149.912 53.252 151.16 52.076C152.408 50.9 153.872 49.988 155.552 49.34C157.232 48.692 159.056 48.368 161.024 48.368C163.016 48.368 164.84 48.692 166.496 49.34C168.176 49.988 169.628 50.9 170.852 52.076C172.1 53.252 173.072 54.632 173.768 56.216C174.464 57.776 174.812 59.504 174.812 61.4C174.812 63.272 174.464 65.012 173.768 66.62C173.072 68.204 172.1 69.584 170.852 70.76C169.628 71.912 168.176 72.812 166.496 73.46C164.84 74.108 163.028 74.432 161.06 74.432ZM161.024 69.464C162.152 69.464 163.184 69.272 164.12 68.888C165.08 68.504 165.92 67.952 166.64 67.232C167.36 66.512 167.912 65.66 168.296 64.676C168.704 63.692 168.908 62.6 168.908 61.4C168.908 60.2 168.704 59.108 168.296 58.124C167.912 57.14 167.36 56.288 166.64 55.568C165.944 54.848 165.116 54.296 164.156 53.912C163.196 53.528 162.152 53.336 161.024 53.336C159.896 53.336 158.852 53.528 157.892 53.912C156.956 54.296 156.128 54.848 155.408 55.568C154.688 56.288 154.124 57.14 153.716 58.124C153.332 59.108 153.14 60.2 153.14 61.4C153.14 62.576 153.332 63.668 153.716 64.676C154.124 65.66 154.676 66.512 155.372 67.232C156.092 67.952 156.932 68.504 157.892 68.888C158.852 69.272 159.896 69.464 161.024 69.464Z"/>
</mask>
<path d="M162.653 26V5.552H154.589V0.799998H176.549V5.552H168.485V26H162.653ZM196.967 0.799998H202.799V26H196.967V0.799998ZM185.519 26H179.687V0.799998H185.519V26ZM197.399 15.668H185.087V10.736H197.399V15.668ZM214.125 10.952H226.257V15.488H214.125V10.952ZM214.557 21.32H228.273V26H208.761V0.799998H227.805V5.48H214.557V21.32ZM64.341 74L53.469 48.8H59.769L69.273 71.12H65.565L75.213 48.8H81.009L70.101 74H64.341ZM83.113 74V48.8H88.945V74H83.113ZM94.9255 74V48.8H106.374C109.11 48.8 111.522 49.328 113.61 50.384C115.698 51.416 117.33 52.868 118.506 54.74C119.682 56.612 120.27 58.832 120.27 61.4C120.27 63.944 119.682 66.164 118.506 68.06C117.33 69.932 115.698 71.396 113.61 72.452C111.522 73.484 109.11 74 106.374 74H94.9255ZM100.758 69.212H106.086C107.766 69.212 109.218 68.9 110.441 68.276C111.69 67.628 112.65 66.716 113.322 65.54C114.018 64.364 114.366 62.984 114.366 61.4C114.366 59.792 114.018 58.412 113.322 57.26C112.65 56.084 111.69 55.184 110.441 54.56C109.218 53.912 107.766 53.588 106.086 53.588H100.758V69.212ZM130.032 58.952H142.164V63.488H130.032V58.952ZM130.464 69.32H144.18V74H124.668V48.8H143.712V53.48H130.464V69.32ZM161.06 74.432C159.068 74.432 157.22 74.108 155.516 73.46C153.836 72.812 152.372 71.9 151.124 70.724C149.9 69.548 148.94 68.168 148.244 66.584C147.572 65 147.236 63.272 147.236 61.4C147.236 59.528 147.572 57.8 148.244 56.216C148.94 54.632 149.912 53.252 151.16 52.076C152.408 50.9 153.872 49.988 155.552 49.34C157.232 48.692 159.056 48.368 161.024 48.368C163.016 48.368 164.84 48.692 166.496 49.34C168.176 49.988 169.628 50.9 170.852 52.076C172.1 53.252 173.072 54.632 173.768 56.216C174.464 57.776 174.812 59.504 174.812 61.4C174.812 63.272 174.464 65.012 173.768 66.62C173.072 68.204 172.1 69.584 170.852 70.76C169.628 71.912 168.176 72.812 166.496 73.46C164.84 74.108 163.028 74.432 161.06 74.432ZM161.024 69.464C162.152 69.464 163.184 69.272 164.12 68.888C165.08 68.504 165.92 67.952 166.64 67.232C167.36 66.512 167.912 65.66 168.296 64.676C168.704 63.692 168.908 62.6 168.908 61.4C168.908 60.2 168.704 59.108 168.296 58.124C167.912 57.14 167.36 56.288 166.64 55.568C165.944 54.848 165.116 54.296 164.156 53.912C163.196 53.528 162.152 53.336 161.024 53.336C159.896 53.336 158.852 53.528 157.892 53.912C156.956 54.296 156.128 54.848 155.408 55.568C154.688 56.288 154.124 57.14 153.716 58.124C153.332 59.108 153.14 60.2 153.14 61.4C153.14 62.576 153.332 63.668 153.716 64.676C154.124 65.66 154.676 66.512 155.372 67.232C156.092 67.952 156.932 68.504 157.892 68.888C158.852 69.272 159.896 69.464 161.024 69.464Z" fill="white"/>
<path d="M9.11022 26L8.15979 26.3109L8.38521 27H9.11022V26ZM0.866219 0.799998V-0.200002H-0.513077L-0.0842133 1.11093L0.866219 0.799998ZM6.91422 0.799998L7.86637 0.494387L7.6435 -0.200002H6.91422V0.799998ZM14.0782 23.12V24.12H15.4494L15.0304 22.8144L14.0782 23.12ZM11.0542 23.12L10.1061 22.8019L9.66396 24.12H11.0542V23.12ZM18.5422 0.799998V-0.200002H17.8229L17.5941 0.481936L18.5422 0.799998ZM23.9422 0.799998L24.8939 0.492995L24.6704 -0.200002H23.9422V0.799998ZM31.1422 23.12V24.12H32.5155L32.0939 22.813L31.1422 23.12ZM28.2262 23.12L27.2763 22.8075L26.8445 24.12H28.2262V23.12ZM35.5702 0.799998V-0.200002H34.8465L34.6203 0.48745L35.5702 0.799998ZM41.1502 0.799998L42.1007 1.11093L42.5295 -0.200002H41.1502V0.799998ZM32.9062 26V27H33.6312L33.8567 26.3109L32.9062 26ZM26.6422 26L25.6913 26.3094L25.916 27H26.6422V26ZM20.2702 6.416V5.416H18.8932L19.3193 6.7254L20.2702 6.416ZM21.9262 6.416L22.8746 6.73327L23.3153 5.416H21.9262V6.416ZM15.3742 26V27H16.0941L16.3226 26.3173L15.3742 26ZM10.0607 25.6891L1.81665 0.489071L-0.0842133 1.11093L8.15979 26.3109L10.0607 25.6891ZM0.866219 1.8H6.91422V-0.200002H0.866219V1.8ZM5.96206 1.10561L13.1261 23.4256L15.0304 22.8144L7.86637 0.494387L5.96206 1.10561ZM14.0782 22.12H11.0542V24.12H14.0782V22.12ZM12.0023 23.4381L19.4903 1.11806L17.5941 0.481936L10.1061 22.8019L12.0023 23.4381ZM18.5422 1.8H23.9422V-0.200002H18.5422V1.8ZM22.9905 1.107L30.1905 23.427L32.0939 22.813L24.8939 0.492995L22.9905 1.107ZM31.1422 22.12H28.2262V24.12H31.1422V22.12ZM29.1761 23.4325L36.5201 1.11255L34.6203 0.48745L27.2763 22.8075L29.1761 23.4325ZM35.5702 1.8H41.1502V-0.200002H35.5702V1.8ZM40.1998 0.489071L31.9558 25.6891L33.8567 26.3109L42.1007 1.11093L40.1998 0.489071ZM32.9062 25H26.6422V27H32.9062V25ZM27.5932 25.6906L21.2212 6.1066L19.3193 6.7254L25.6913 26.3094L27.5932 25.6906ZM20.2702 7.416H21.9262V5.416H20.2702V7.416ZM20.9779 6.09873L14.4259 25.6827L16.3226 26.3173L22.8746 6.73327L20.9779 6.09873ZM15.3742 25H9.11022V27H15.3742V25ZM40.2502 26L39.3368 25.5929L38.7097 27H40.2502V26ZM51.4822 0.799998V-0.200002H50.8331L50.5688 0.392892L51.4822 0.799998ZM57.2422 0.799998L58.1551 0.391804L57.8905 -0.200002H57.2422V0.799998ZM68.5102 26V27H70.0528L69.4231 25.5918L68.5102 26ZM62.3902 26L61.4663 26.3827L61.7221 27H62.3902V26ZM53.1742 3.752V2.752H51.6776L52.2504 4.1347L53.1742 3.752ZM55.4782 3.752L56.4016 4.13598L56.9771 2.752H55.4782V3.752ZM46.2262 26V27H46.8934L47.1496 26.384L46.2262 26ZM45.8662 20.6L44.9222 20.27L44.4573 21.6H45.8662V20.6ZM47.4142 16.172V15.172H46.7045L46.4702 15.842L47.4142 16.172ZM60.3742 16.172L61.3158 15.8352L61.0786 15.172H60.3742V16.172ZM61.9582 20.6V21.6H63.378L62.8998 20.2632L61.9582 20.6ZM41.1636 26.4071L52.3956 1.2071L50.5688 0.392892L39.3368 25.5929L41.1636 26.4071ZM51.4822 1.8H57.2422V-0.200002H51.4822V1.8ZM56.3293 1.20819L67.5973 26.4082L69.4231 25.5918L58.1551 0.391804L56.3293 1.20819ZM68.5102 25H62.3902V27H68.5102V25ZM63.3141 25.6173L54.0981 3.3693L52.2504 4.1347L61.4663 26.3827L63.3141 25.6173ZM53.1742 4.752H55.4782V2.752H53.1742V4.752ZM54.5549 3.36802L45.3029 25.616L47.1496 26.384L56.4016 4.13598L54.5549 3.36802ZM46.2262 25H40.2502V27H46.2262V25ZM46.8102 20.93L48.3582 16.502L46.4702 15.842L44.9222 20.27L46.8102 20.93ZM47.4142 17.172H60.3742V15.172H47.4142V17.172ZM59.4326 16.5088L61.0167 20.9368L62.8998 20.2632L61.3158 15.8352L59.4326 16.5088ZM61.9582 19.6H45.8662V21.6H61.9582V19.6ZM75.0791 26H74.0791V27H75.0791V26ZM75.0791 5.552H76.0791V4.552H75.0791V5.552ZM67.0151 5.552H66.0151V6.552H67.0151V5.552ZM67.0151 0.799998V-0.200002H66.0151V0.799998H67.0151ZM88.9751 0.799998H89.9751V-0.200002H88.9751V0.799998ZM88.9751 5.552V6.552H89.9751V5.552H88.9751ZM80.9111 5.552V4.552H79.9111V5.552H80.9111ZM80.9111 26V27H81.9111V26H80.9111ZM76.0791 26V5.552H74.0791V26H76.0791ZM75.0791 4.552H67.0151V6.552H75.0791V4.552ZM68.0151 5.552V0.799998H66.0151V5.552H68.0151ZM67.0151 1.8H88.9751V-0.200002H67.0151V1.8ZM87.9751 0.799998V5.552H89.9751V0.799998H87.9751ZM88.9751 4.552H80.9111V6.552H88.9751V4.552ZM79.9111 5.552V26H81.9111V5.552H79.9111ZM80.9111 25H75.0791V27H80.9111V25ZM98.3854 25.496L98.021 26.4272L98.0291 26.4304L98.0372 26.4334L98.3854 25.496ZM94.0654 22.76L93.3726 23.4811L94.0654 22.76ZM91.1854 18.62L90.2648 19.0106L90.2699 19.0223L91.1854 18.62ZM91.1854 8.18L90.2698 7.77769L90.2649 7.78945L91.1854 8.18ZM94.0654 4.04L93.3796 3.31218L93.3726 3.31889L94.0654 4.04ZM98.4214 1.34L98.7741 2.27584L98.7858 2.27124L98.4214 1.34ZM109.761 1.52L109.36 2.43587L109.367 2.43917L109.375 2.44234L109.761 1.52ZM114.225 4.832L114.904 5.5668L115.597 4.92728L114.999 4.19807L114.225 4.832ZM110.481 8.288L109.73 8.9478L110.406 9.71816L111.16 9.0228L110.481 8.288ZM107.601 6.092L107.171 6.99448L107.179 6.9985L107.188 7.00237L107.601 6.092ZM98.3494 7.568L99.0565 8.27511L98.3494 7.568ZM96.6574 10.124L95.7337 9.74098L95.7297 9.75068L95.7259 9.76046L96.6574 10.124ZM96.6574 16.676L95.7259 17.0395L95.7297 17.0493L95.7337 17.059L96.6574 16.676ZM98.3494 19.232L97.6423 19.9391L98.3494 19.232ZM107.601 20.744L108.015 21.6544L108.024 21.6505L108.032 21.6465L107.601 20.744ZM110.481 18.476L111.16 17.7412L110.397 17.0375L109.722 17.8252L110.481 18.476ZM114.225 21.932L114.999 22.5659L115.597 21.8367L114.904 21.1972L114.225 21.932ZM109.761 25.28L109.365 24.3621L109.36 24.3641L109.761 25.28ZM103.821 25.432C101.986 25.432 100.293 25.1378 98.7336 24.5586L98.0372 26.4334C99.8378 27.1022 101.769 27.432 103.821 27.432V25.432ZM98.7498 24.5648C97.2101 23.9623 95.8831 23.1197 94.7583 22.0389L93.3726 23.4811C94.6957 24.7523 96.2488 25.7337 98.021 26.4272L98.7498 24.5648ZM94.7583 22.0389C93.6305 20.9554 92.7453 19.6843 92.101 18.2177L90.2699 19.0223C91.0175 20.7237 92.0524 22.2127 93.3726 23.4811L94.7583 22.0389ZM92.106 18.2295C91.4915 16.781 91.1774 15.1755 91.1774 13.4H89.1774C89.1774 15.4165 89.5353 17.291 90.2649 19.0105L92.106 18.2295ZM91.1774 13.4C91.1774 11.6245 91.4915 10.019 92.106 8.57055L90.2649 7.78945C89.5353 9.50904 89.1774 11.3835 89.1774 13.4H91.1774ZM92.101 8.58227C92.7453 7.11573 93.6305 5.84465 94.7583 4.7611L93.3726 3.31889C92.0524 4.58735 91.0175 6.07627 90.2699 7.77773L92.101 8.58227ZM94.7512 4.76779C95.8999 3.68538 97.2377 2.85467 98.774 2.27577L98.0688 0.404227C96.2932 1.07332 94.727 2.04262 93.3796 3.31221L94.7512 4.76779ZM98.7858 2.27124C100.314 1.67328 102.001 1.368 103.857 1.368V-0.632C101.778 -0.632 99.8409 -0.289287 98.057 0.408754L98.7858 2.27124ZM103.857 1.368C105.923 1.368 107.751 1.73069 109.36 2.43587L110.163 0.604131C108.268 -0.226686 106.16 -0.632 103.857 -0.632V1.368ZM109.375 2.44234C111.003 3.12437 112.357 4.13047 113.452 5.46593L114.999 4.19807C113.693 2.60553 112.072 1.40363 110.148 0.597662L109.375 2.44234ZM113.547 4.0972L109.803 7.5532L111.16 9.0228L114.904 5.5668L113.547 4.0972ZM111.233 7.6282C110.287 6.55144 109.216 5.72741 108.015 5.18163L107.188 7.00237C108.099 7.41659 108.947 8.05656 109.73 8.9478L111.233 7.6282ZM108.032 5.18952C106.833 4.61709 105.532 4.336 104.145 4.336V6.336C105.255 6.336 106.258 6.55891 107.171 6.99448L108.032 5.18952ZM104.145 4.336C102.859 4.336 101.654 4.54636 100.542 4.98042L101.269 6.84358C102.125 6.50964 103.08 6.336 104.145 6.336V4.336ZM100.542 4.98042C99.434 5.41277 98.4638 6.03945 97.6423 6.86089L99.0565 8.27511C99.6751 7.65655 100.409 7.17923 101.269 6.84358L100.542 4.98042ZM97.6423 6.86089C96.8253 7.67793 96.1896 8.64148 95.7337 9.74098L97.5812 10.507C97.9413 9.63852 98.4336 8.89807 99.0565 8.27511L97.6423 6.86089ZM95.7259 9.76046C95.2909 10.875 95.0814 12.0924 95.0814 13.4H97.0814C97.0814 12.3076 97.256 11.341 97.589 10.4875L95.7259 9.76046ZM95.0814 13.4C95.0814 14.7076 95.2909 15.925 95.7259 17.0395L97.589 16.3125C97.256 15.459 97.0814 14.4924 97.0814 13.4H95.0814ZM95.7337 17.059C96.1896 18.1585 96.8253 19.1221 97.6423 19.9391L99.0565 18.5249C98.4336 17.9019 97.9413 17.1615 97.5812 16.293L95.7337 17.059ZM97.6423 19.9391C98.4638 20.7605 99.434 21.3872 100.542 21.8196L101.269 19.9564C100.409 19.6208 99.6751 19.1435 99.0565 18.5249L97.6423 19.9391ZM100.542 21.8196C101.654 22.2536 102.859 22.464 104.145 22.464V20.464C103.08 20.464 102.125 20.2904 101.269 19.9564L100.542 21.8196ZM104.145 22.464C105.525 22.464 106.82 22.1978 108.015 21.6544L107.188 19.8336C106.271 20.2502 105.262 20.464 104.145 20.464V22.464ZM108.032 21.6465C109.23 21.0748 110.298 20.2264 111.241 19.1268L109.722 17.8252C108.937 18.7416 108.085 19.4052 107.171 19.8415L108.032 21.6465ZM109.803 19.2108L113.547 22.6668L114.904 21.1972L111.16 17.7412L109.803 19.2108ZM113.452 21.2981C112.355 22.636 110.998 23.656 109.365 24.3621L110.158 26.1979C112.077 25.368 113.695 24.156 114.999 22.5659L113.452 21.2981ZM109.36 24.3641C107.753 25.0687 105.912 25.432 103.821 25.432V27.432C106.146 27.432 108.266 27.0273 110.163 26.1959L109.36 24.3641ZM135.444 0.799998V-0.200002H134.444V0.799998H135.444ZM141.276 0.799998H142.276V-0.200002H141.276V0.799998ZM141.276 26V27H142.276V26H141.276ZM135.444 26H134.444V27H135.444V26ZM123.996 26V27H124.996V26H123.996ZM118.164 26H117.164V27H118.164V26ZM118.164 0.799998V-0.200002H117.164V0.799998H118.164ZM123.996 0.799998H124.996V-0.200002H123.996V0.799998ZM135.876 15.668V16.668H136.876V15.668H135.876ZM123.564 15.668H122.564V16.668H123.564V15.668ZM123.564 10.736V9.736H122.564V10.736H123.564ZM135.876 10.736H136.876V9.736H135.876V10.736ZM135.444 1.8H141.276V-0.200002H135.444V1.8ZM140.276 0.799998V26H142.276V0.799998H140.276ZM141.276 25H135.444V27H141.276V25ZM136.444 26V0.799998H134.444V26H136.444ZM123.996 25H118.164V27H123.996V25ZM119.164 26V0.799998H117.164V26H119.164ZM118.164 1.8H123.996V-0.200002H118.164V1.8ZM122.996 0.799998V26H124.996V0.799998H122.996ZM135.876 14.668H123.564V16.668H135.876V14.668ZM124.564 15.668V10.736H122.564V15.668H124.564ZM123.564 11.736H135.876V9.736H123.564V11.736ZM134.876 10.736V15.668H136.876V10.736H134.876ZM162.653 26H161.653V27H162.653V26ZM162.653 5.552H163.653V4.552H162.653V5.552ZM154.589 5.552H153.589V6.552H154.589V5.552ZM154.589 0.799998V-0.200002H153.589V0.799998H154.589ZM176.549 0.799998H177.549V-0.200002H176.549V0.799998ZM176.549 5.552V6.552H177.549V5.552H176.549ZM168.485 5.552V4.552H167.485V5.552H168.485ZM168.485 26V27H169.485V26H168.485ZM163.653 26V5.552H161.653V26H163.653ZM162.653 4.552H154.589V6.552H162.653V4.552ZM155.589 5.552V0.799998H153.589V5.552H155.589ZM154.589 1.8H176.549V-0.200002H154.589V1.8ZM175.549 0.799998V5.552H177.549V0.799998H175.549ZM176.549 4.552H168.485V6.552H176.549V4.552ZM167.485 5.552V26H169.485V5.552H167.485ZM168.485 25H162.653V27H168.485V25ZM196.967 0.799998V-0.200002H195.967V0.799998H196.967ZM202.799 0.799998H203.799V-0.200002H202.799V0.799998ZM202.799 26V27H203.799V26H202.799ZM196.967 26H195.967V27H196.967V26ZM185.519 26V27H186.519V26H185.519ZM179.687 26H178.687V27H179.687V26ZM179.687 0.799998V-0.200002H178.687V0.799998H179.687ZM185.519 0.799998H186.519V-0.200002H185.519V0.799998ZM197.399 15.668V16.668H198.399V15.668H197.399ZM185.087 15.668H184.087V16.668H185.087V15.668ZM185.087 10.736V9.736H184.087V10.736H185.087ZM197.399 10.736H198.399V9.736H197.399V10.736ZM196.967 1.8H202.799V-0.200002H196.967V1.8ZM201.799 0.799998V26H203.799V0.799998H201.799ZM202.799 25H196.967V27H202.799V25ZM197.967 26V0.799998H195.967V26H197.967ZM185.519 25H179.687V27H185.519V25ZM180.687 26V0.799998H178.687V26H180.687ZM179.687 1.8H185.519V-0.200002H179.687V1.8ZM184.519 0.799998V26H186.519V0.799998H184.519ZM197.399 14.668H185.087V16.668H197.399V14.668ZM186.087 15.668V10.736H184.087V15.668H186.087ZM185.087 11.736H197.399V9.736H185.087V11.736ZM196.399 10.736V15.668H198.399V10.736H196.399ZM214.125 10.952V9.952H213.125V10.952H214.125ZM226.257 10.952H227.257V9.952H226.257V10.952ZM226.257 15.488V16.488H227.257V15.488H226.257ZM214.125 15.488H213.125V16.488H214.125V15.488ZM214.557 21.32H213.557V22.32H214.557V21.32ZM228.273 21.32H229.273V20.32H228.273V21.32ZM228.273 26V27H229.273V26H228.273ZM208.761 26H207.761V27H208.761V26ZM208.761 0.799998V-0.200002H207.761V0.799998H208.761ZM227.805 0.799998H228.805V-0.200002H227.805V0.799998ZM227.805 5.48V6.48H228.805V5.48H227.805ZM214.557 5.48V4.48H213.557V5.48H214.557ZM214.125 11.952H226.257V9.952H214.125V11.952ZM225.257 10.952V15.488H227.257V10.952H225.257ZM226.257 14.488H214.125V16.488H226.257V14.488ZM215.125 15.488V10.952H213.125V15.488H215.125ZM214.557 22.32H228.273V20.32H214.557V22.32ZM227.273 21.32V26H229.273V21.32H227.273ZM228.273 25H208.761V27H228.273V25ZM209.761 26V0.799998H207.761V26H209.761ZM208.761 1.8H227.805V-0.200002H208.761V1.8ZM226.805 0.799998V5.48H228.805V0.799998H226.805ZM227.805 4.48H214.557V6.48H227.805V4.48ZM213.557 5.48V21.32H215.557V5.48H213.557ZM64.341 74L63.4228 74.3961L63.6833 75H64.341V74ZM53.469 48.8V47.8H51.9484L52.5508 49.1961L53.469 48.8ZM59.769 48.8L60.689 48.4082L60.43 47.8H59.769V48.8ZM69.273 71.12V72.12H70.7857L70.193 70.7282L69.273 71.12ZM65.565 71.12L64.6471 70.7232L64.0433 72.12H65.565V71.12ZM75.213 48.8V47.8H74.5558L74.2951 48.4032L75.213 48.8ZM81.009 48.8L81.9267 49.1972L82.5315 47.8H81.009V48.8ZM70.101 74V75H70.7578L71.0187 74.3972L70.101 74ZM65.2592 73.6039L54.3872 48.4039L52.5508 49.1961L63.4228 74.3961L65.2592 73.6039ZM53.469 49.8H59.769V47.8H53.469V49.8ZM58.8489 49.1918L68.3529 71.5118L70.193 70.7282L60.689 48.4082L58.8489 49.1918ZM69.273 70.12H65.565V72.12H69.273V70.12ZM66.4829 71.5168L76.1309 49.1968L74.2951 48.4032L64.6471 70.7232L66.4829 71.5168ZM75.213 49.8H81.009V47.8H75.213V49.8ZM80.0913 48.4028L69.1833 73.6028L71.0187 74.3972L81.9267 49.1972L80.0913 48.4028ZM70.101 73H64.341V75H70.101V73ZM83.113 74H82.113V75H83.113V74ZM83.113 48.8V47.8H82.113V48.8H83.113ZM88.945 48.8H89.945V47.8H88.945V48.8ZM88.945 74V75H89.945V74H88.945ZM84.113 74V48.8H82.113V74H84.113ZM83.113 49.8H88.945V47.8H83.113V49.8ZM87.945 48.8V74H89.945V48.8H87.945ZM88.945 73H83.113V75H88.945V73ZM94.9255 74H93.9255V75H94.9255V74ZM94.9255 48.8V47.8H93.9255V48.8H94.9255ZM113.609 50.384L113.158 51.2764L113.166 51.2805L113.609 50.384ZM118.506 68.06L119.352 68.592L119.355 68.5871L118.506 68.06ZM113.609 72.452L114.053 73.3485L114.061 73.3444L113.609 72.452ZM100.758 69.212H99.7575V70.212H100.758V69.212ZM110.441 68.276L110.896 69.1669L110.902 69.1635L110.441 68.276ZM113.322 65.54L112.461 65.0307L112.457 65.0372L112.453 65.0439L113.322 65.54ZM113.322 57.26L112.453 57.7561L112.459 57.7667L112.466 57.7771L113.322 57.26ZM110.441 54.56L109.974 55.4438L109.984 55.4492L109.994 55.4544L110.441 54.56ZM100.758 53.588V52.588H99.7575V53.588H100.758ZM95.9255 74V48.8H93.9255V74H95.9255ZM94.9255 49.8H106.374V47.8H94.9255V49.8ZM106.374 49.8C108.979 49.8 111.232 50.3022 113.158 51.2764L114.061 49.4916C111.811 48.3538 109.24 47.8 106.374 47.8V49.8ZM113.166 51.2805C115.098 52.2352 116.586 53.565 117.659 55.2719L119.352 54.208C118.073 52.171 116.297 50.5968 114.053 49.4875L113.166 51.2805ZM117.659 55.2719C118.719 56.9602 119.27 58.9892 119.27 61.4H121.27C121.27 58.6748 120.644 56.2638 119.352 54.208L117.659 55.2719ZM119.27 61.4C119.27 63.7845 118.72 65.8165 117.656 67.5329L119.355 68.5871C120.643 66.5115 121.27 64.1035 121.27 61.4H119.27ZM117.659 67.5281C116.585 69.2371 115.094 70.5806 113.158 71.5596L114.061 73.3444C116.301 72.2114 118.074 70.6269 119.352 68.5919L117.659 67.5281ZM113.166 71.5555C111.238 72.5085 108.983 73 106.374 73V75C109.236 75 111.805 74.4595 114.053 73.3485L113.166 71.5555ZM106.374 73H94.9255V75H106.374V73ZM100.758 70.212H106.085V68.212H100.758V70.212ZM106.085 70.212C107.889 70.212 109.503 69.8769 110.896 69.1669L109.987 67.3851C108.932 67.9231 107.642 68.212 106.085 68.212V70.212ZM110.902 69.1635C112.314 68.4305 113.419 67.3856 114.19 66.0361L112.453 65.0439C111.88 66.0464 111.065 66.8255 109.981 67.3885L110.902 69.1635ZM114.182 66.0493C114.983 64.696 115.365 63.1343 115.365 61.4H113.365C113.365 62.8337 113.052 64.032 112.461 65.0307L114.182 66.0493ZM115.365 61.4C115.365 59.6454 114.985 58.0789 114.177 56.7429L112.466 57.7771C113.05 58.7451 113.365 59.9386 113.365 61.4H115.365ZM114.19 56.7639C113.417 55.411 112.308 54.375 110.889 53.6656L109.994 55.4544C111.071 55.993 111.882 56.757 112.453 57.7561L114.19 56.7639ZM110.909 53.6762C109.514 52.9373 107.894 52.588 106.085 52.588V54.588C107.637 54.588 108.921 54.8867 109.974 55.4438L110.909 53.6762ZM106.085 52.588H100.758V54.588H106.085V52.588ZM99.7575 53.588V69.212H101.758V53.588H99.7575ZM130.032 58.952V57.952H129.032V58.952H130.032ZM142.164 58.952H143.164V57.952H142.164V58.952ZM142.164 63.488V64.488H143.164V63.488H142.164ZM130.032 63.488H129.032V64.488H130.032V63.488ZM130.464 69.32H129.464V70.32H130.464V69.32ZM144.18 69.32H145.18V68.32H144.18V69.32ZM144.18 74V75H145.18V74H144.18ZM124.668 74H123.668V75H124.668V74ZM124.668 48.8V47.8H123.668V48.8H124.668ZM143.712 48.8H144.712V47.8H143.712V48.8ZM143.712 53.48V54.48H144.712V53.48H143.712ZM130.464 53.48V52.48H129.464V53.48H130.464ZM130.032 59.952H142.164V57.952H130.032V59.952ZM141.164 58.952V63.488H143.164V58.952H141.164ZM142.164 62.488H130.032V64.488H142.164V62.488ZM131.032 63.488V58.952H129.032V63.488H131.032ZM130.464 70.32H144.18V68.32H130.464V70.32ZM143.18 69.32V74H145.18V69.32H143.18ZM144.18 73H124.668V75H144.18V73ZM125.668 74V48.8H123.668V74H125.668ZM124.668 49.8H143.712V47.8H124.668V49.8ZM142.712 48.8V53.48H144.712V48.8H142.712ZM143.712 52.48H130.464V54.48H143.712V52.48ZM129.464 53.48V69.32H131.464V53.48H129.464ZM155.516 73.46L155.156 74.393L155.161 74.3947L155.516 73.46ZM151.124 70.724L150.431 71.4451L150.438 71.4518L151.124 70.724ZM148.244 66.584L147.323 66.9746L147.329 66.9863L148.244 66.584ZM148.244 56.216L147.328 55.8137L147.323 55.8254L148.244 56.216ZM155.552 49.34L155.192 48.407L155.552 49.34ZM166.496 49.34L166.132 50.2713L166.136 50.273L166.496 49.34ZM170.852 52.076L170.159 52.7971L170.166 52.8038L170.852 52.076ZM173.768 56.216L172.852 56.6183L172.855 56.6234L173.768 56.216ZM173.768 66.62L174.684 67.0223L174.686 67.0172L173.768 66.62ZM170.852 70.76L171.537 71.4882L171.538 71.4878L170.852 70.76ZM166.496 73.46L166.136 72.527L166.132 72.5288L166.496 73.46ZM164.12 68.888L163.749 67.9595L163.74 67.9628L164.12 68.888ZM166.64 67.232L165.933 66.5249L166.64 67.232ZM168.296 64.676L167.372 64.293L167.368 64.3027L167.364 64.3125L168.296 64.676ZM168.296 58.124L167.364 58.4875L167.368 58.4973L167.372 58.507L168.296 58.124ZM166.64 55.568L165.921 56.263L165.927 56.2691L165.933 56.2751L166.64 55.568ZM164.156 53.912L163.785 54.8405L164.156 53.912ZM157.892 53.912L157.521 52.9835L157.512 52.9868L157.892 53.912ZM155.408 55.568L156.115 56.2751L155.408 55.568ZM153.716 58.124L152.792 57.741L152.788 57.7507L152.784 57.7605L153.716 58.124ZM153.716 64.676L152.782 65.032L152.787 65.0456L152.792 65.059L153.716 64.676ZM155.372 67.232L154.653 67.927L154.659 67.9331L154.665 67.9391L155.372 67.232ZM157.892 68.888L157.521 69.8165L157.892 68.888ZM161.06 73.432C159.178 73.432 157.452 73.1263 155.871 72.5253L155.161 74.3947C156.988 75.0897 158.958 75.432 161.06 75.432V73.432ZM155.876 72.527C154.311 71.9233 152.959 71.0789 151.81 69.9962L150.438 71.4518C151.785 72.7211 153.361 73.7007 155.156 74.393L155.876 72.527ZM151.817 70.0029C150.689 68.9193 149.804 67.6483 149.16 66.1817L147.329 66.9863C148.076 68.6877 149.111 70.1767 150.431 71.4451L151.817 70.0029ZM149.165 66.1935C148.549 64.7435 148.236 63.1497 148.236 61.4H146.236C146.236 63.3943 146.595 65.2565 147.323 66.9745L149.165 66.1935ZM148.236 61.4C148.236 59.6503 148.549 58.0565 149.165 56.6066L147.323 55.8254C146.595 57.5435 146.236 59.4057 146.236 61.4H148.236ZM149.16 56.6183C149.802 55.156 150.696 53.8869 151.846 52.8038L150.474 51.3482C149.128 52.6171 148.078 54.108 147.329 55.8137L149.16 56.6183ZM151.846 52.8038C152.995 51.7211 154.347 50.8767 155.912 50.273L155.192 48.407C153.397 49.0993 151.821 50.0789 150.474 51.3482L151.846 52.8038ZM155.912 50.273C157.467 49.6732 159.168 49.368 161.024 49.368V47.368C158.944 47.368 156.997 47.7108 155.192 48.407L155.912 50.273ZM161.024 49.368C162.906 49.368 164.605 49.6738 166.132 50.2712L166.86 48.4088C165.075 47.7102 163.126 47.368 161.024 47.368V49.368ZM166.136 50.273C167.7 50.8761 169.037 51.7187 170.159 52.7971L171.545 51.3549C170.219 50.0813 168.652 49.0999 166.856 48.407L166.136 50.273ZM170.166 52.8038C171.316 53.8869 172.21 55.156 172.853 56.6183L174.684 55.8137C173.934 54.108 172.884 52.6171 171.538 51.3482L170.166 52.8038ZM172.855 56.6234C173.488 58.0418 173.812 59.6289 173.812 61.4H175.812C175.812 59.3791 175.44 57.5102 174.681 55.8086L172.855 56.6234ZM173.812 61.4C173.812 63.1448 173.488 64.7486 172.85 66.2228L174.686 67.0172C175.44 65.2754 175.812 63.3992 175.812 61.4H173.812ZM172.853 66.2177C172.21 67.68 171.316 68.9491 170.166 70.0322L171.538 71.4878C172.884 70.2189 173.934 68.728 174.684 67.0223L172.853 66.2177ZM170.167 70.0318C169.043 71.089 167.704 71.9222 166.136 72.527L166.856 74.393C168.648 73.7018 170.213 72.7351 171.537 71.4882L170.167 70.0318ZM166.132 72.5288C164.604 73.1267 162.917 73.432 161.06 73.432V75.432C163.139 75.432 165.077 75.0893 166.86 74.3912L166.132 72.5288ZM161.024 70.464C162.267 70.464 163.43 70.252 164.5 69.8132L163.74 67.9628C162.938 68.292 162.037 68.464 161.024 68.464V70.464ZM164.491 69.8165C165.575 69.383 166.53 68.7564 167.347 67.9391L165.933 66.5249C165.31 67.1476 164.585 67.625 163.749 67.9595L164.491 69.8165ZM167.347 67.9391C168.169 67.1177 168.795 66.1474 169.228 65.0395L167.364 64.3125C167.029 65.1726 166.551 65.9063 165.933 66.5249L167.347 67.9391ZM169.22 65.059C169.684 63.9392 169.908 62.7149 169.908 61.4H167.908C167.908 62.4851 167.724 63.4448 167.372 64.293L169.22 65.059ZM169.908 61.4C169.908 60.0851 169.684 58.8608 169.22 57.741L167.372 58.507C167.724 59.3552 167.908 60.3149 167.908 61.4H169.908ZM169.228 57.7605C168.795 56.6526 168.169 55.6823 167.347 54.8609L165.933 56.2751C166.551 56.8937 167.029 57.6274 167.364 58.4875L169.228 57.7605ZM167.359 54.873C166.562 54.0482 165.614 53.4182 164.527 52.9835L163.785 54.8405C164.618 55.1738 165.326 55.6478 165.921 56.263L167.359 54.873ZM164.527 52.9835C163.439 52.5481 162.268 52.336 161.024 52.336V54.336C162.036 54.336 162.953 54.5079 163.785 54.8405L164.527 52.9835ZM161.024 52.336C159.78 52.336 158.609 52.5481 157.521 52.9835L158.263 54.8405C159.095 54.5079 160.012 54.336 161.024 54.336V52.336ZM157.512 52.9868C156.453 53.4214 155.514 54.0479 154.701 54.8609L156.115 56.2751C156.742 55.6481 157.459 55.1706 158.272 54.8372L157.512 52.9868ZM154.701 54.8609C153.884 55.6779 153.248 56.6415 152.792 57.741L154.64 58.507C155 57.6385 155.492 56.8981 156.115 56.2751L154.701 54.8609ZM152.784 57.7605C152.35 58.875 152.14 60.0924 152.14 61.4H154.14C154.14 60.3076 154.315 59.341 154.648 58.4875L152.784 57.7605ZM152.14 61.4C152.14 62.6867 152.35 63.9005 152.782 65.032L154.651 64.32C154.314 63.4355 154.14 62.4653 154.14 61.4H152.14ZM152.792 65.059C153.245 66.1515 153.864 67.1112 154.653 67.927L156.091 66.537C155.488 65.9128 155.003 65.1685 154.64 64.293L152.792 65.059ZM154.665 67.9391C155.482 68.7564 156.437 69.383 157.521 69.8165L158.263 67.9595C157.427 67.625 156.702 67.1476 156.079 66.5249L154.665 67.9391ZM157.521 69.8165C158.609 70.2519 159.78 70.464 161.024 70.464V68.464C160.012 68.464 159.095 68.2921 158.263 67.9595L157.521 69.8165Z" fill="white" mask="url(#path-1-outside-1_1_586)"/>
</svg>
