<svg width="442" height="33" viewBox="0 0 442 33" fill="none" xmlns="http://www.w3.org/2000/svg">
<mask id="path-1-outside-1_1_279" maskUnits="userSpaceOnUse" x="-1" y="-1" width="444" height="35" fill="black">
<rect fill="white" x="-1" y="-1" width="444" height="35"/>
<path d="M11.044 32L0.968 1.2H8.36L17.116 28.48H13.42L22.572 1.2H29.172L37.972 28.48H34.408L43.384 1.2H50.204L40.128 32H32.472L24.684 8.064H26.708L18.7 32H11.044ZM49.104 32L62.832 1.2H69.872L83.644 32H76.164L64.9 4.808H67.716L56.408 32H49.104ZM55.968 25.4L57.86 19.988H73.7L75.636 25.4H55.968ZM91.6726 32V7.008H81.8166V1.2H108.657V7.008H98.8006V32H91.6726ZM126.802 32.528C124.426 32.528 122.211 32.1467 120.158 31.384C118.134 30.592 116.374 29.4773 114.878 28.04C113.382 26.6027 112.209 24.916 111.358 22.98C110.537 21.044 110.126 18.9173 110.126 16.6C110.126 14.2827 110.537 12.156 111.358 10.22C112.209 8.284 113.382 6.59733 114.878 5.16C116.403 3.72267 118.178 2.62266 120.202 1.86C122.226 1.068 124.441 0.671999 126.846 0.671999C129.515 0.671999 131.921 1.14133 134.062 2.08C136.233 2.98933 138.051 4.33867 139.518 6.128L134.942 10.352C133.886 9.14933 132.713 8.25466 131.422 7.668C130.131 7.052 128.723 6.744 127.198 6.744C125.761 6.744 124.441 6.97867 123.238 7.448C122.035 7.91733 120.994 8.592 120.114 9.472C119.234 10.352 118.545 11.3933 118.046 12.596C117.577 13.7987 117.342 15.1333 117.342 16.6C117.342 18.0667 117.577 19.4013 118.046 20.604C118.545 21.8067 119.234 22.848 120.114 23.728C120.994 24.608 122.035 25.2827 123.238 25.752C124.441 26.2213 125.761 26.456 127.198 26.456C128.723 26.456 130.131 26.1627 131.422 25.576C132.713 24.96 133.886 24.036 134.942 22.804L139.518 27.028C138.051 28.8173 136.233 30.1813 134.062 31.12C131.921 32.0587 129.501 32.528 126.802 32.528ZM165.452 1.2H172.58V32H165.452V1.2ZM151.46 32H144.332V1.2H151.46V32ZM165.98 19.372H150.932V13.344H165.98V19.372Z"/>
<path d="M198.708 32V7.008H188.852V1.2H215.692V7.008H205.836V32H198.708ZM240.647 1.2H247.775V32H240.647V1.2ZM226.655 32H219.527V1.2H226.655V32ZM241.175 19.372H226.127V13.344H241.175V19.372ZM261.618 13.608H276.446V19.152H261.618V13.608ZM262.146 26.28H278.91V32H255.062V1.2H278.338V6.92H262.146V26.28ZM306.283 32L292.995 1.2H300.695L312.311 28.48H307.779L319.571 1.2H326.655L313.323 32H306.283ZM329.226 32V1.2H336.354V32H329.226ZM343.664 32V1.2H357.656C361 1.2 363.948 1.84533 366.5 3.136C369.052 4.39733 371.046 6.172 372.484 8.46C373.921 10.748 374.64 13.4613 374.64 16.6C374.64 19.7093 373.921 22.4227 372.484 24.74C371.046 27.028 369.052 28.8173 366.5 30.108C363.948 31.3693 361 32 357.656 32H343.664ZM350.792 26.148H357.304C359.357 26.148 361.132 25.7667 362.628 25.004C364.153 24.212 365.326 23.0973 366.148 21.66C366.998 20.2227 367.424 18.536 367.424 16.6C367.424 14.6347 366.998 12.948 366.148 11.54C365.326 10.1027 364.153 9.00267 362.628 8.24C361.132 7.448 359.357 7.052 357.304 7.052H350.792V26.148ZM386.571 13.608H401.399V19.152H386.571V13.608ZM387.099 26.28H403.863V32H380.015V1.2H403.291V6.92H387.099V26.28ZM424.495 32.528C422.06 32.528 419.801 32.132 417.719 31.34C415.665 30.548 413.876 29.4333 412.351 27.996C410.855 26.5587 409.681 24.872 408.831 22.936C408.009 21 407.599 18.888 407.599 16.6C407.599 14.312 408.009 12.2 408.831 10.264C409.681 8.328 410.869 6.64133 412.395 5.204C413.92 3.76666 415.709 2.652 417.763 1.86C419.816 1.068 422.045 0.671999 424.451 0.671999C426.885 0.671999 429.115 1.068 431.139 1.86C433.192 2.652 434.967 3.76666 436.463 5.204C437.988 6.64133 439.176 8.328 440.027 10.264C440.877 12.1707 441.303 14.2827 441.303 16.6C441.303 18.888 440.877 21.0147 440.027 22.98C439.176 24.916 437.988 26.6027 436.463 28.04C434.967 29.448 433.192 30.548 431.139 31.34C429.115 32.132 426.9 32.528 424.495 32.528ZM424.451 26.456C425.829 26.456 427.091 26.2213 428.235 25.752C429.408 25.2827 430.435 24.608 431.315 23.728C432.195 22.848 432.869 21.8067 433.339 20.604C433.837 19.4013 434.087 18.0667 434.087 16.6C434.087 15.1333 433.837 13.7987 433.339 12.596C432.869 11.3933 432.195 10.352 431.315 9.472C430.464 8.592 429.452 7.91733 428.279 7.448C427.105 6.97867 425.829 6.744 424.451 6.744C423.072 6.744 421.796 6.97867 420.623 7.448C419.479 7.91733 418.467 8.592 417.587 9.472C416.707 10.352 416.017 11.3933 415.519 12.596C415.049 13.7987 414.815 15.1333 414.815 16.6C414.815 18.0373 415.049 19.372 415.519 20.604C416.017 21.8067 416.692 22.848 417.543 23.728C418.423 24.608 419.449 25.2827 420.623 25.752C421.796 26.2213 423.072 26.456 424.451 26.456Z"/>
</mask>
<path d="M198.708 32V7.008H188.852V1.2H215.692V7.008H205.836V32H198.708ZM240.647 1.2H247.775V32H240.647V1.2ZM226.655 32H219.527V1.2H226.655V32ZM241.175 19.372H226.127V13.344H241.175V19.372ZM261.618 13.608H276.446V19.152H261.618V13.608ZM262.146 26.28H278.91V32H255.062V1.2H278.338V6.92H262.146V26.28ZM306.283 32L292.995 1.2H300.695L312.311 28.48H307.779L319.571 1.2H326.655L313.323 32H306.283ZM329.226 32V1.2H336.354V32H329.226ZM343.664 32V1.2H357.656C361 1.2 363.948 1.84533 366.5 3.136C369.052 4.39733 371.046 6.172 372.484 8.46C373.921 10.748 374.64 13.4613 374.64 16.6C374.64 19.7093 373.921 22.4227 372.484 24.74C371.046 27.028 369.052 28.8173 366.5 30.108C363.948 31.3693 361 32 357.656 32H343.664ZM350.792 26.148H357.304C359.357 26.148 361.132 25.7667 362.628 25.004C364.153 24.212 365.326 23.0973 366.148 21.66C366.998 20.2227 367.424 18.536 367.424 16.6C367.424 14.6347 366.998 12.948 366.148 11.54C365.326 10.1027 364.153 9.00267 362.628 8.24C361.132 7.448 359.357 7.052 357.304 7.052H350.792V26.148ZM386.571 13.608H401.399V19.152H386.571V13.608ZM387.099 26.28H403.863V32H380.015V1.2H403.291V6.92H387.099V26.28ZM424.495 32.528C422.06 32.528 419.801 32.132 417.719 31.34C415.665 30.548 413.876 29.4333 412.351 27.996C410.855 26.5587 409.681 24.872 408.831 22.936C408.009 21 407.599 18.888 407.599 16.6C407.599 14.312 408.009 12.2 408.831 10.264C409.681 8.328 410.869 6.64133 412.395 5.204C413.92 3.76666 415.709 2.652 417.763 1.86C419.816 1.068 422.045 0.671999 424.451 0.671999C426.885 0.671999 429.115 1.068 431.139 1.86C433.192 2.652 434.967 3.76666 436.463 5.204C437.988 6.64133 439.176 8.328 440.027 10.264C440.877 12.1707 441.303 14.2827 441.303 16.6C441.303 18.888 440.877 21.0147 440.027 22.98C439.176 24.916 437.988 26.6027 436.463 28.04C434.967 29.448 433.192 30.548 431.139 31.34C429.115 32.132 426.9 32.528 424.495 32.528ZM424.451 26.456C425.829 26.456 427.091 26.2213 428.235 25.752C429.408 25.2827 430.435 24.608 431.315 23.728C432.195 22.848 432.869 21.8067 433.339 20.604C433.837 19.4013 434.087 18.0667 434.087 16.6C434.087 15.1333 433.837 13.7987 433.339 12.596C432.869 11.3933 432.195 10.352 431.315 9.472C430.464 8.592 429.452 7.91733 428.279 7.448C427.105 6.97867 425.829 6.744 424.451 6.744C423.072 6.744 421.796 6.97867 420.623 7.448C419.479 7.91733 418.467 8.592 417.587 9.472C416.707 10.352 416.017 11.3933 415.519 12.596C415.049 13.7987 414.815 15.1333 414.815 16.6C414.815 18.0373 415.049 19.372 415.519 20.604C416.017 21.8067 416.692 22.848 417.543 23.728C418.423 24.608 419.449 25.2827 420.623 25.752C421.796 26.2213 423.072 26.456 424.451 26.456Z" fill="white"/>
<path d="M11.044 32L10.0936 32.3109L10.319 33H11.044V32ZM0.968 1.2V0.199998H-0.411294L0.0175665 1.51093L0.968 1.2ZM8.36 1.2L9.31216 0.894386L9.08928 0.199998H8.36V1.2ZM17.116 28.48V29.48H18.4872L18.0682 28.1744L17.116 28.48ZM13.42 28.48L12.4719 28.1619L12.0297 29.48H13.42V28.48ZM22.572 1.2V0.199998H21.8527L21.6239 0.881936L22.572 1.2ZM29.172 1.2L30.1237 0.892995L29.9002 0.199998H29.172V1.2ZM37.972 28.48V29.48H39.3453L38.9237 28.173L37.972 28.48ZM34.408 28.48L33.4581 28.1674L33.0262 29.48H34.408V28.48ZM43.384 1.2V0.199998H42.6603L42.4341 0.887449L43.384 1.2ZM50.204 1.2L51.1544 1.51093L51.5833 0.199998H50.204V1.2ZM40.128 32V33H40.853L41.0784 32.3109L40.128 32ZM32.472 32L31.5211 32.3094L31.7458 33H32.472V32ZM24.684 8.064V7.064H23.307L23.7331 8.3734L24.684 8.064ZM26.708 8.064L27.6563 8.38127L28.097 7.064H26.708V8.064ZM18.7 32V33H19.4199L19.6483 32.3173L18.7 32ZM11.9944 31.6891L1.91843 0.889071L0.0175665 1.51093L10.0936 32.3109L11.9944 31.6891ZM0.968 2.2H8.36V0.199998H0.968V2.2ZM7.40784 1.50561L16.1638 28.7856L18.0682 28.1744L9.31216 0.894386L7.40784 1.50561ZM17.116 27.48H13.42V29.48H17.116V27.48ZM14.3681 28.7981L23.5201 1.51806L21.6239 0.881936L12.4719 28.1619L14.3681 28.7981ZM22.572 2.2H29.172V0.199998H22.572V2.2ZM28.2203 1.507L37.0203 28.787L38.9237 28.173L30.1237 0.892995L28.2203 1.507ZM37.972 27.48H34.408V29.48H37.972V27.48ZM35.3579 28.7925L44.3339 1.51255L42.4341 0.887449L33.4581 28.1674L35.3579 28.7925ZM43.384 2.2H50.204V0.199998H43.384V2.2ZM49.2536 0.889071L39.1776 31.6891L41.0784 32.3109L51.1544 1.51093L49.2536 0.889071ZM40.128 31H32.472V33H40.128V31ZM33.4229 31.6906L25.6349 7.7546L23.7331 8.3734L31.5211 32.3094L33.4229 31.6906ZM24.684 9.064H26.708V7.064H24.684V9.064ZM25.7597 7.74673L17.7517 31.6827L19.6483 32.3173L27.6563 8.38127L25.7597 7.74673ZM18.7 31H11.044V33H18.7V31ZM49.104 32L48.1906 31.5929L47.5635 33H49.104V32ZM62.832 1.2V0.199998H62.1829L61.9186 0.792892L62.832 1.2ZM69.872 1.2L70.7849 0.791803L70.5203 0.199998H69.872V1.2ZM83.644 32V33H85.1866L84.5569 31.5918L83.644 32ZM76.164 32L75.2401 32.3827L75.4958 33H76.164V32ZM64.9 4.808V3.808H63.4034L63.9761 5.1907L64.9 4.808ZM67.716 4.808L68.6393 5.19198L69.2149 3.808H67.716V4.808ZM56.408 32V33H57.0752L57.3313 32.384L56.408 32ZM55.968 25.4L55.024 25.07L54.5591 26.4H55.968V25.4ZM57.86 19.988V18.988H57.1502L56.916 19.658L57.86 19.988ZM73.7 19.988L74.6416 19.6512L74.4043 18.988H73.7V19.988ZM75.636 25.4V26.4H77.0558L76.5776 25.0632L75.636 25.4ZM50.0174 32.4071L63.7454 1.6071L61.9186 0.792892L48.1906 31.5929L50.0174 32.4071ZM62.832 2.2H69.872V0.199998H62.832V2.2ZM68.9591 1.60819L82.7311 32.4082L84.5569 31.5918L70.7849 0.791803L68.9591 1.60819ZM83.644 31H76.164V33H83.644V31ZM77.0879 31.6173L65.8239 4.42529L63.9761 5.1907L75.2401 32.3827L77.0879 31.6173ZM64.9 5.808H67.716V3.808H64.9V5.808ZM66.7927 4.42402L55.4847 31.616L57.3313 32.384L68.6393 5.19198L66.7927 4.42402ZM56.408 31H49.104V33H56.408V31ZM56.912 25.73L58.804 20.318L56.916 19.658L55.024 25.07L56.912 25.73ZM57.86 20.988H73.7V18.988H57.86V20.988ZM72.7584 20.3248L74.6944 25.7368L76.5776 25.0632L74.6416 19.6512L72.7584 20.3248ZM75.636 24.4H55.968V26.4H75.636V24.4ZM91.6726 32H90.6726V33H91.6726V32ZM91.6726 7.008H92.6726V6.008H91.6726V7.008ZM81.8166 7.008H80.8166V8.008H81.8166V7.008ZM81.8166 1.2V0.199998H80.8166V1.2H81.8166ZM108.657 1.2H109.657V0.199998H108.657V1.2ZM108.657 7.008V8.008H109.657V7.008H108.657ZM98.8006 7.008V6.008H97.8006V7.008H98.8006ZM98.8006 32V33H99.8006V32H98.8006ZM92.6726 32V7.008H90.6726V32H92.6726ZM91.6726 6.008H81.8166V8.008H91.6726V6.008ZM82.8166 7.008V1.2H80.8166V7.008H82.8166ZM81.8166 2.2H108.657V0.199998H81.8166V2.2ZM107.657 1.2V7.008H109.657V1.2H107.657ZM108.657 6.008H98.8006V8.008H108.657V6.008ZM97.8006 7.008V32H99.8006V7.008H97.8006ZM98.8006 31H91.6726V33H98.8006V31ZM120.158 31.384L119.794 32.3152L119.802 32.3184L119.81 32.3214L120.158 31.384ZM114.878 28.04L114.185 28.7611L114.878 28.04ZM111.358 22.98L110.438 23.3706L110.443 23.3823L111.358 22.98ZM111.358 10.22L110.443 9.81769L110.438 9.82945L111.358 10.22ZM114.878 5.16L114.192 4.43218L114.185 4.43889L114.878 5.16ZM120.202 1.86L120.555 2.79584L120.567 2.79124L120.202 1.86ZM134.062 2.08L133.661 2.99587L133.668 2.99917L133.676 3.00234L134.062 2.08ZM139.518 6.128L140.196 6.8628L140.889 6.22328L140.292 5.49407L139.518 6.128ZM134.942 10.352L134.191 11.0118L134.867 11.7822L135.62 11.0868L134.942 10.352ZM131.422 7.668L130.991 8.57048L131 8.5745L131.008 8.57837L131.422 7.668ZM120.114 9.472L120.821 10.1791L120.114 9.472ZM118.046 12.596L117.122 12.213L117.118 12.2227L117.115 12.2325L118.046 12.596ZM118.046 20.604L117.115 20.9675L117.118 20.9773L117.122 20.987L118.046 20.604ZM120.114 23.728L119.407 24.4351V24.4351L120.114 23.728ZM131.422 25.576L131.836 26.4864L131.844 26.4825L131.853 26.4785L131.422 25.576ZM134.942 22.804L135.62 22.0692L134.858 21.3655L134.183 22.1532L134.942 22.804ZM139.518 27.028L140.292 27.6619L140.889 26.9327L140.196 26.2932L139.518 27.028ZM134.062 31.12L133.665 30.2021L133.661 30.2041L134.062 31.12ZM126.802 31.528C124.535 31.528 122.439 31.1645 120.506 30.4466L119.81 32.3214C121.984 33.1289 124.317 33.528 126.802 33.528V31.528ZM120.523 30.4528C118.615 29.7063 116.968 28.661 115.571 27.3189L114.185 28.7611C115.78 30.2937 117.653 31.4777 119.794 32.3152L120.523 30.4528ZM115.571 27.3189C114.171 25.974 113.073 24.3963 112.274 22.5777L110.443 23.3823C111.345 25.4357 112.593 27.2313 114.185 28.7611L115.571 27.3189ZM112.279 22.5895C111.515 20.789 111.126 18.7969 111.126 16.6H109.126C109.126 19.0378 109.559 21.299 110.438 23.3705L112.279 22.5895ZM111.126 16.6C111.126 14.4031 111.515 12.411 112.279 10.6105L110.438 9.82945C109.559 11.901 109.126 14.1622 109.126 16.6H111.126ZM112.274 10.6223C113.073 8.80373 114.171 7.22598 115.571 5.8811L114.185 4.43889C112.593 5.96868 111.345 7.76427 110.443 9.81772L112.274 10.6223ZM115.564 5.88779C116.99 4.54404 118.65 3.51334 120.555 2.79577L119.85 0.924227C117.706 1.73199 115.817 2.90129 114.192 4.43221L115.564 5.88779ZM120.567 2.79124C122.463 2.04928 124.552 1.672 126.846 1.672V-0.328001C124.329 -0.328001 121.99 0.0867138 119.838 0.928754L120.567 2.79124ZM126.846 1.672C129.397 1.672 131.663 2.12002 133.661 2.99587L134.464 1.16413C132.179 0.162647 129.634 -0.328001 126.846 -0.328001V1.672ZM133.676 3.00234C135.699 3.8497 137.383 5.10113 138.745 6.76193L140.292 5.49407C138.72 3.5762 136.767 2.12896 134.449 1.15766L133.676 3.00234ZM138.84 5.3932L134.264 9.6172L135.62 11.0868L140.196 6.8628L138.84 5.3932ZM135.694 9.6922C134.556 8.39677 133.271 7.41007 131.836 6.75763L131.008 8.57837C132.154 9.09926 133.216 9.90189 134.191 11.0118L135.694 9.6922ZM131.853 6.76552C130.419 6.08109 128.862 5.744 127.198 5.744V7.744C128.585 7.744 129.844 8.02291 130.991 8.57048L131.853 6.76552ZM127.198 5.744C125.651 5.744 124.206 5.99703 122.875 6.51642L123.602 8.37958C124.676 7.96031 125.871 7.744 127.198 7.744V5.744ZM122.875 6.51642C121.548 7.0341 120.388 7.78345 119.407 8.76489L120.821 10.1791C121.6 9.40055 122.523 8.80056 123.602 8.37958L122.875 6.51642ZM119.407 8.76489C118.43 9.74193 117.669 10.8948 117.122 12.213L118.97 12.979C119.421 11.8919 120.038 10.9621 120.821 10.1791L119.407 8.76489ZM117.115 12.2325C116.594 13.5657 116.342 15.0257 116.342 16.6H118.342C118.342 15.2409 118.559 14.0317 118.978 12.9595L117.115 12.2325ZM116.342 16.6C116.342 18.1743 116.594 19.6343 117.115 20.9675L118.978 20.2405C118.559 19.1683 118.342 17.9591 118.342 16.6H116.342ZM117.122 20.987C117.669 22.3052 118.43 23.4581 119.407 24.4351L120.821 23.0209C120.038 22.2379 119.421 21.3081 118.97 20.221L117.122 20.987ZM119.407 24.4351C120.388 25.4165 121.548 26.1659 122.875 26.6836L123.602 24.8204C122.523 24.3994 121.6 23.7995 120.821 23.0209L119.407 24.4351ZM122.875 26.6836C124.206 27.203 125.651 27.456 127.198 27.456V25.456C125.871 25.456 124.676 25.2397 123.602 24.8204L122.875 26.6836ZM127.198 27.456C128.855 27.456 130.406 27.1365 131.836 26.4864L131.008 24.6656C129.857 25.1888 128.592 25.456 127.198 25.456V27.456ZM131.853 26.4785C133.285 25.7948 134.567 24.7784 135.701 23.4548L134.183 22.1532C133.205 23.2936 132.14 24.1252 130.991 24.6735L131.853 26.4785ZM134.264 23.5388L138.84 27.7628L140.196 26.2932L135.62 22.0692L134.264 23.5388ZM138.745 26.3941C137.381 28.0573 135.693 29.3253 133.665 30.2021L134.459 32.0379C136.773 31.0374 138.722 29.5774 140.292 27.6619L138.745 26.3941ZM133.661 30.2041C131.664 31.0794 129.384 31.528 126.802 31.528V33.528C129.618 33.528 132.178 33.0379 134.464 32.0359L133.661 30.2041ZM165.452 1.2V0.199998H164.452V1.2H165.452ZM172.58 1.2H173.58V0.199998H172.58V1.2ZM172.58 32V33H173.58V32H172.58ZM165.452 32H164.452V33H165.452V32ZM151.46 32V33H152.46V32H151.46ZM144.332 32H143.332V33H144.332V32ZM144.332 1.2V0.199998H143.332V1.2H144.332ZM151.46 1.2H152.46V0.199998H151.46V1.2ZM165.98 19.372V20.372H166.98V19.372H165.98ZM150.932 19.372H149.932V20.372H150.932V19.372ZM150.932 13.344V12.344H149.932V13.344H150.932ZM165.98 13.344H166.98V12.344H165.98V13.344ZM165.452 2.2H172.58V0.199998H165.452V2.2ZM171.58 1.2V32H173.58V1.2H171.58ZM172.58 31H165.452V33H172.58V31ZM166.452 32V1.2H164.452V32H166.452ZM151.46 31H144.332V33H151.46V31ZM145.332 32V1.2H143.332V32H145.332ZM144.332 2.2H151.46V0.199998H144.332V2.2ZM150.46 1.2V32H152.46V1.2H150.46ZM165.98 18.372H150.932V20.372H165.98V18.372ZM151.932 19.372V13.344H149.932V19.372H151.932ZM150.932 14.344H165.98V12.344H150.932V14.344ZM164.98 13.344V19.372H166.98V13.344H164.98ZM198.708 32H197.708V33H198.708V32ZM198.708 7.008H199.708V6.008H198.708V7.008ZM188.852 7.008H187.852V8.008H188.852V7.008ZM188.852 1.2V0.199998H187.852V1.2H188.852ZM215.692 1.2H216.692V0.199998H215.692V1.2ZM215.692 7.008V8.008H216.692V7.008H215.692ZM205.836 7.008V6.008H204.836V7.008H205.836ZM205.836 32V33H206.836V32H205.836ZM199.708 32V7.008H197.708V32H199.708ZM198.708 6.008H188.852V8.008H198.708V6.008ZM189.852 7.008V1.2H187.852V7.008H189.852ZM188.852 2.2H215.692V0.199998H188.852V2.2ZM214.692 1.2V7.008H216.692V1.2H214.692ZM215.692 6.008H205.836V8.008H215.692V6.008ZM204.836 7.008V32H206.836V7.008H204.836ZM205.836 31H198.708V33H205.836V31ZM240.647 1.2V0.199998H239.647V1.2H240.647ZM247.775 1.2H248.775V0.199998H247.775V1.2ZM247.775 32V33H248.775V32H247.775ZM240.647 32H239.647V33H240.647V32ZM226.655 32V33H227.655V32H226.655ZM219.527 32H218.527V33H219.527V32ZM219.527 1.2V0.199998H218.527V1.2H219.527ZM226.655 1.2H227.655V0.199998H226.655V1.2ZM241.175 19.372V20.372H242.175V19.372H241.175ZM226.127 19.372H225.127V20.372H226.127V19.372ZM226.127 13.344V12.344H225.127V13.344H226.127ZM241.175 13.344H242.175V12.344H241.175V13.344ZM240.647 2.2H247.775V0.199998H240.647V2.2ZM246.775 1.2V32H248.775V1.2H246.775ZM247.775 31H240.647V33H247.775V31ZM241.647 32V1.2H239.647V32H241.647ZM226.655 31H219.527V33H226.655V31ZM220.527 32V1.2H218.527V32H220.527ZM219.527 2.2H226.655V0.199998H219.527V2.2ZM225.655 1.2V32H227.655V1.2H225.655ZM241.175 18.372H226.127V20.372H241.175V18.372ZM227.127 19.372V13.344H225.127V19.372H227.127ZM226.127 14.344H241.175V12.344H226.127V14.344ZM240.175 13.344V19.372H242.175V13.344H240.175ZM261.618 13.608V12.608H260.618V13.608H261.618ZM276.446 13.608H277.446V12.608H276.446V13.608ZM276.446 19.152V20.152H277.446V19.152H276.446ZM261.618 19.152H260.618V20.152H261.618V19.152ZM262.146 26.28H261.146V27.28H262.146V26.28ZM278.91 26.28H279.91V25.28H278.91V26.28ZM278.91 32V33H279.91V32H278.91ZM255.062 32H254.062V33H255.062V32ZM255.062 1.2V0.199998H254.062V1.2H255.062ZM278.338 1.2H279.338V0.199998H278.338V1.2ZM278.338 6.92V7.92H279.338V6.92H278.338ZM262.146 6.92V5.92H261.146V6.92H262.146ZM261.618 14.608H276.446V12.608H261.618V14.608ZM275.446 13.608V19.152H277.446V13.608H275.446ZM276.446 18.152H261.618V20.152H276.446V18.152ZM262.618 19.152V13.608H260.618V19.152H262.618ZM262.146 27.28H278.91V25.28H262.146V27.28ZM277.91 26.28V32H279.91V26.28H277.91ZM278.91 31H255.062V33H278.91V31ZM256.062 32V1.2H254.062V32H256.062ZM255.062 2.2H278.338V0.199998H255.062V2.2ZM277.338 1.2V6.92H279.338V1.2H277.338ZM278.338 5.92H262.146V7.92H278.338V5.92ZM261.146 6.92V26.28H263.146V6.92H261.146ZM306.283 32L305.364 32.3961L305.625 33H306.283V32ZM292.995 1.2V0.199998H291.474L292.076 1.59613L292.995 1.2ZM300.695 1.2L301.615 0.808228L301.356 0.199998H300.695V1.2ZM312.311 28.48V29.48H313.823L313.231 28.0882L312.311 28.48ZM307.779 28.48L306.861 28.0832L306.257 29.48H307.779V28.48ZM319.571 1.2V0.199998H318.913L318.653 0.803222L319.571 1.2ZM326.655 1.2L327.572 1.59724L328.177 0.199998H326.655V1.2ZM313.323 32V33H313.979L314.24 32.3972L313.323 32ZM307.201 31.6039L293.913 0.803864L292.076 1.59613L305.364 32.3961L307.201 31.6039ZM292.995 2.2H300.695V0.199998H292.995V2.2ZM299.775 1.59177L311.391 28.8718L313.231 28.0882L301.615 0.808228L299.775 1.59177ZM312.311 27.48H307.779V29.48H312.311V27.48ZM308.697 28.8768L320.489 1.59677L318.653 0.803222L306.861 28.0832L308.697 28.8768ZM319.571 2.2H326.655V0.199998H319.571V2.2ZM325.737 0.802758L312.405 31.6028L314.24 32.3972L327.572 1.59724L325.737 0.802758ZM313.323 31H306.283V33H313.323V31ZM329.226 32H328.226V33H329.226V32ZM329.226 1.2V0.199998H328.226V1.2H329.226ZM336.354 1.2H337.354V0.199998H336.354V1.2ZM336.354 32V33H337.354V32H336.354ZM330.226 32V1.2H328.226V32H330.226ZM329.226 2.2H336.354V0.199998H329.226V2.2ZM335.354 1.2V32H337.354V1.2H335.354ZM336.354 31H329.226V33H336.354V31ZM343.664 32H342.664V33H343.664V32ZM343.664 1.2V0.199998H342.664V1.2H343.664ZM366.5 3.136L366.048 4.0284L366.057 4.03248L366.5 3.136ZM372.484 8.46L371.637 8.99195L372.484 8.46ZM372.484 24.74L373.331 25.272L373.334 25.2671L372.484 24.74ZM366.5 30.108L366.943 31.0045L366.951 31.0004L366.5 30.108ZM350.792 26.148H349.792V27.148H350.792V26.148ZM362.628 25.004L363.082 25.8949L363.089 25.8915L362.628 25.004ZM366.148 21.66L365.287 21.1507L365.283 21.1572L365.279 21.1639L366.148 21.66ZM366.148 11.54L365.279 12.0361L365.286 12.0467L365.292 12.0571L366.148 11.54ZM362.628 8.24L362.16 9.12379L362.17 9.12923L362.181 9.13443L362.628 8.24ZM350.792 7.052V6.052H349.792V7.052H350.792ZM344.664 32V1.2H342.664V32H344.664ZM343.664 2.2H357.656V0.199998H343.664V2.2ZM357.656 2.2C360.869 2.2 363.658 2.81952 366.048 4.02837L366.951 2.24363C364.237 0.871139 361.13 0.199998 357.656 0.199998V2.2ZM366.057 4.03248C368.452 5.21652 370.303 6.86896 371.637 8.99195L373.331 7.92805C371.789 5.47504 369.651 3.57815 366.943 2.23952L366.057 4.03248ZM371.637 8.99195C372.959 11.0962 373.64 13.6185 373.64 16.6H375.64C375.64 13.3041 374.883 10.3998 373.331 7.92805L371.637 8.99195ZM373.64 16.6C373.64 19.5498 372.96 22.0751 371.634 24.2129L373.334 25.2671C374.882 22.7702 375.64 19.8689 375.64 16.6H373.64ZM371.637 24.208C370.302 26.3331 368.448 28.002 366.048 29.2156L366.951 31.0004C369.655 29.6327 371.791 27.7229 373.331 25.2719L371.637 24.208ZM366.057 29.2115C363.665 30.3938 360.873 31 357.656 31V33C361.127 33 364.231 32.3448 366.943 31.0045L366.057 29.2115ZM357.656 31H343.664V33H357.656V31ZM350.792 27.148H357.304V25.148H350.792V27.148ZM357.304 27.148C359.48 27.148 361.417 26.7435 363.082 25.8949L362.174 24.1131C360.846 24.7898 359.234 25.148 357.304 25.148V27.148ZM363.089 25.8915C364.778 25.0145 366.095 23.767 367.016 22.1561L365.279 21.1639C364.557 22.4277 363.529 23.4095 362.167 24.1165L363.089 25.8915ZM367.008 22.1693C367.964 20.5547 368.424 18.6863 368.424 16.6H366.424C366.424 18.3857 366.033 19.8907 365.287 21.1507L367.008 22.1693ZM368.424 16.6C368.424 14.4881 367.965 12.6149 367.004 11.0229L365.292 12.0571C366.031 13.2811 366.424 14.7812 366.424 16.6H368.424ZM367.016 11.0439C366.094 9.42971 364.771 8.19371 363.075 7.34557L362.181 9.13443C363.535 9.81163 364.559 10.7756 365.279 12.0361L367.016 11.0439ZM363.096 7.35621C361.428 6.47327 359.486 6.052 357.304 6.052V8.052C359.228 8.052 360.836 8.42273 362.16 9.12379L363.096 7.35621ZM357.304 6.052H350.792V8.052H357.304V6.052ZM349.792 7.052V26.148H351.792V7.052H349.792ZM386.571 13.608V12.608H385.571V13.608H386.571ZM401.399 13.608H402.399V12.608H401.399V13.608ZM401.399 19.152V20.152H402.399V19.152H401.399ZM386.571 19.152H385.571V20.152H386.571V19.152ZM387.099 26.28H386.099V27.28H387.099V26.28ZM403.863 26.28H404.863V25.28H403.863V26.28ZM403.863 32V33H404.863V32H403.863ZM380.015 32H379.015V33H380.015V32ZM380.015 1.2V0.199998H379.015V1.2H380.015ZM403.291 1.2H404.291V0.199998H403.291V1.2ZM403.291 6.92V7.92H404.291V6.92H403.291ZM387.099 6.92V5.92H386.099V6.92H387.099ZM386.571 14.608H401.399V12.608H386.571V14.608ZM400.399 13.608V19.152H402.399V13.608H400.399ZM401.399 18.152H386.571V20.152H401.399V18.152ZM387.571 19.152V13.608H385.571V19.152H387.571ZM387.099 27.28H403.863V25.28H387.099V27.28ZM402.863 26.28V32H404.863V26.28H402.863ZM403.863 31H380.015V33H403.863V31ZM381.015 32V1.2H379.015V32H381.015ZM380.015 2.2H403.291V0.199998H380.015V2.2ZM402.291 1.2V6.92H404.291V1.2H402.291ZM403.291 5.92H387.099V7.92H403.291V5.92ZM386.099 6.92V26.28H388.099V6.92H386.099ZM417.719 31.34L417.359 32.273L417.363 32.2747L417.719 31.34ZM412.351 27.996L411.658 28.7171L411.665 28.7238L412.351 27.996ZM408.831 22.936L407.91 23.3266L407.915 23.3383L408.831 22.936ZM408.831 10.264L407.915 9.86169L407.91 9.87345L408.831 10.264ZM412.395 5.204L413.081 5.93179L412.395 5.204ZM417.763 1.86L417.403 0.926995L417.763 1.86ZM431.139 1.86L430.774 2.79125L430.779 2.793L431.139 1.86ZM436.463 5.204L435.77 5.92514L435.777 5.93179L436.463 5.204ZM440.027 10.264L439.111 10.6663L439.114 10.6714L440.027 10.264ZM440.027 22.98L440.942 23.3823L440.945 23.3772L440.027 22.98ZM436.463 28.04L437.148 28.7682L437.149 28.7678L436.463 28.04ZM431.139 31.34L430.779 30.407L430.774 30.4088L431.139 31.34ZM428.235 25.752L427.863 24.8235L427.855 24.8268L428.235 25.752ZM431.315 23.728L430.608 23.0209L431.315 23.728ZM433.339 20.604L432.415 20.221L432.411 20.2307L432.407 20.2405L433.339 20.604ZM433.339 12.596L432.407 12.9595L432.411 12.9693L432.415 12.979L433.339 12.596ZM431.315 9.472L430.596 10.167L430.602 10.1731L430.608 10.1791L431.315 9.472ZM428.279 7.448L427.907 8.37648L428.279 7.448ZM420.623 7.448L420.251 6.51949L420.243 6.52283L420.623 7.448ZM417.587 9.472L418.294 10.1791L417.587 9.472ZM415.519 12.596L414.595 12.213L414.591 12.2227L414.587 12.2325L415.519 12.596ZM415.519 20.604L414.584 20.96L414.59 20.9736L414.595 20.987L415.519 20.604ZM417.543 23.728L416.824 24.423L416.83 24.4291L416.836 24.4351L417.543 23.728ZM420.623 25.752L420.251 26.6805L420.623 25.752ZM424.495 31.528C422.17 31.528 420.033 31.1503 418.074 30.4053L417.363 32.2747C419.57 33.1137 421.95 33.528 424.495 33.528V31.528ZM418.079 30.407C416.14 29.6593 414.463 28.6123 413.037 27.2682L411.665 28.7238C413.289 30.2544 415.191 31.4367 417.359 32.273L418.079 30.407ZM413.044 27.2749C411.644 25.93 410.545 24.3523 409.746 22.5337L407.915 23.3383C408.818 25.3917 410.066 27.1873 411.658 28.7171L413.044 27.2749ZM409.751 22.5454C408.987 20.7435 408.599 18.7657 408.599 16.6H406.599C406.599 19.0103 407.032 21.2565 407.91 23.3265L409.751 22.5454ZM408.599 16.6C408.599 14.4343 408.987 12.4565 409.751 10.6545L407.91 9.87345C407.032 11.9435 406.599 14.1897 406.599 16.6H408.599ZM409.746 10.6663C410.544 8.85196 411.654 7.27628 413.081 5.93179L411.709 4.47621C410.085 6.00639 408.819 7.80404 407.915 9.86172L409.746 10.6663ZM413.081 5.93179C414.507 4.58774 416.184 3.54073 418.123 2.793L417.403 0.926995C415.235 1.76326 413.333 2.94559 411.709 4.47621L413.081 5.93179ZM418.123 2.793C420.051 2.04923 422.157 1.672 424.451 1.672V-0.328001C421.934 -0.328001 419.581 0.0867662 417.403 0.926995L418.123 2.793ZM424.451 1.672C426.776 1.672 428.88 2.04982 430.774 2.79124L431.503 0.928754C429.35 0.0861797 426.995 -0.328001 424.451 -0.328001V1.672ZM430.779 2.793C432.716 3.54014 434.376 4.58533 435.77 5.9251L437.156 4.48289C435.558 2.948 433.668 1.76386 431.499 0.926995L430.779 2.793ZM435.777 5.93179C437.204 7.27628 438.314 8.85196 439.111 10.6663L440.942 9.86172C440.038 7.80404 438.772 6.00639 437.149 4.47621L435.777 5.93179ZM439.114 10.6714C439.901 12.4364 440.303 14.4075 440.303 16.6H442.303C442.303 14.1578 441.854 11.9049 440.94 9.85656L439.114 10.6714ZM440.303 16.6C440.303 18.7608 439.902 20.7513 439.109 22.5828L440.945 23.3772C441.853 21.2781 442.303 19.0152 442.303 16.6H440.303ZM439.111 22.5777C438.314 24.392 437.204 25.9677 435.777 27.3122L437.149 28.7678C438.772 27.2376 440.038 25.44 440.942 23.3823L439.111 22.5777ZM435.777 27.3118C434.382 28.6249 432.72 29.6582 430.779 30.407L431.499 32.273C433.664 31.4378 435.551 30.2711 437.148 28.7682L435.777 27.3118ZM430.774 30.4088C428.878 31.1507 426.789 31.528 424.495 31.528V33.528C427.012 33.528 429.351 33.1133 431.503 32.2712L430.774 30.4088ZM424.451 27.456C425.945 27.456 427.337 27.2013 428.614 26.6772L427.855 24.8268C426.845 25.2414 425.714 25.456 424.451 25.456V27.456ZM428.606 26.6805C429.903 26.1616 431.045 25.4124 432.022 24.4351L430.608 23.0209C429.825 23.8036 428.913 24.4037 427.863 24.8235L428.606 26.6805ZM432.022 24.4351C433.003 23.4537 433.753 22.2941 434.27 20.9675L432.407 20.2405C431.986 21.3192 431.386 22.2423 430.608 23.0209L432.022 24.4351ZM434.263 20.987C434.818 19.6485 435.087 18.1815 435.087 16.6H433.087C433.087 17.9518 432.857 19.1542 432.415 20.221L434.263 20.987ZM435.087 16.6C435.087 15.0185 434.818 13.5515 434.263 12.213L432.415 12.979C432.857 14.0458 433.087 15.2482 433.087 16.6H435.087ZM434.27 12.2325C433.753 10.9059 433.003 9.74633 432.022 8.76489L430.608 10.1791C431.386 10.9577 431.986 11.8808 432.407 12.9595L434.27 12.2325ZM432.034 8.77698C431.082 7.79217 429.95 7.03952 428.65 6.51952L427.907 8.37648C428.954 8.79514 429.846 9.39182 430.596 10.167L432.034 8.77698ZM428.65 6.51952C427.348 5.99881 425.945 5.744 424.451 5.744V7.744C425.714 7.744 426.863 7.95852 427.907 8.37648L428.65 6.51952ZM424.451 5.744C422.957 5.744 421.553 5.99881 420.251 6.51952L420.994 8.37648C422.039 7.95852 423.188 7.744 424.451 7.744V5.744ZM420.243 6.52283C418.976 7.04277 417.853 7.79185 416.88 8.76489L418.294 10.1791C419.081 9.39215 419.982 8.79189 421.002 8.37317L420.243 6.52283ZM416.88 8.76489C415.903 9.74193 415.142 10.8948 414.595 12.213L416.443 12.979C416.893 11.8919 417.511 10.9621 418.294 10.1791L416.88 8.76489ZM414.587 12.2325C414.067 13.5657 413.815 15.0257 413.815 16.6H415.815C415.815 15.2409 416.032 14.0317 416.45 12.9595L414.587 12.2325ZM413.815 16.6C413.815 18.148 414.068 19.6045 414.584 20.96L416.453 20.248C416.031 19.1395 415.815 17.9267 415.815 16.6H413.815ZM414.595 20.987C415.139 22.2981 415.88 23.4472 416.824 24.423L418.262 23.033C417.504 22.2488 416.896 21.3152 416.443 20.221L414.595 20.987ZM416.836 24.4351C417.813 25.4124 418.954 26.1616 420.251 26.6805L420.994 24.8235C419.945 24.4037 419.033 23.8036 418.25 23.0209L416.836 24.4351ZM420.251 26.6805C421.553 27.2012 422.957 27.456 424.451 27.456V25.456C423.188 25.456 422.039 25.2415 420.994 24.8235L420.251 26.6805Z" fill="white" mask="url(#path-1-outside-1_1_279)"/>
</svg>
