<svg width="623" height="27" viewBox="0 0 623 27" fill="none" xmlns="http://www.w3.org/2000/svg">
<mask id="path-1-outside-1_1_194" maskUnits="userSpaceOnUse" x="-1" y="-1" width="625" height="29" fill="black">
<rect fill="white" x="-1" y="-1" width="625" height="29"/>
<path d="M9.036 26L0.792 0.799998H6.84L14.004 23.12H10.98L18.468 0.799998H23.868L31.068 23.12H28.152L35.496 0.799998H41.076L32.832 26H26.568L20.196 6.416H21.852L15.3 26H9.036ZM49.6958 10.952H61.8278V15.488H49.6958V10.952ZM50.1278 21.32H63.8438V26H44.3318V0.799998H63.3758V5.48H50.1278V21.32Z"/>
<path d="M90.7394 26.432C88.7954 26.432 86.9834 26.12 85.3034 25.496C83.6474 24.848 82.2074 23.936 80.9834 22.76C79.7594 21.584 78.7994 20.204 78.1034 18.62C77.4314 17.036 77.0954 15.296 77.0954 13.4C77.0954 11.504 77.4314 9.764 78.1034 8.18C78.7994 6.596 79.7594 5.216 80.9834 4.04C82.2314 2.864 83.6834 1.964 85.3394 1.34C86.9954 0.691999 88.8074 0.368 90.7754 0.368C92.9594 0.368 94.9274 0.752 96.6794 1.52C98.4554 2.264 99.9434 3.368 101.143 4.832L97.3994 8.288C96.5354 7.304 95.5754 6.572 94.5194 6.092C93.4634 5.588 92.3114 5.336 91.0634 5.336C89.8874 5.336 88.8074 5.528 87.8234 5.912C86.8394 6.296 85.9874 6.848 85.2674 7.568C84.5474 8.288 83.9834 9.14 83.5754 10.124C83.1914 11.108 82.9994 12.2 82.9994 13.4C82.9994 14.6 83.1914 15.692 83.5754 16.676C83.9834 17.66 84.5474 18.512 85.2674 19.232C85.9874 19.952 86.8394 20.504 87.8234 20.888C88.8074 21.272 89.8874 21.464 91.0634 21.464C92.3114 21.464 93.4634 21.224 94.5194 20.744C95.5754 20.24 96.5354 19.484 97.3994 18.476L101.143 21.932C99.9434 23.396 98.4554 24.512 96.6794 25.28C94.9274 26.048 92.9474 26.432 90.7394 26.432ZM101.313 26L112.545 0.799998H118.305L129.573 26H123.453L114.237 3.752H116.541L107.289 26H101.313ZM106.929 20.6L108.477 16.172H121.437L123.021 20.6H106.929ZM132.187 26V0.799998H137.011L151.879 18.944H149.539V0.799998H155.299V26H150.511L135.607 7.856H137.947V26H132.187ZM183.697 26.432C181.705 26.432 179.857 26.108 178.153 25.46C176.473 24.812 175.009 23.9 173.761 22.724C172.537 21.548 171.577 20.168 170.881 18.584C170.209 17 169.873 15.272 169.873 13.4C169.873 11.528 170.209 9.8 170.881 8.216C171.577 6.632 172.549 5.252 173.797 4.076C175.045 2.9 176.509 1.988 178.189 1.34C179.869 0.691999 181.693 0.368 183.661 0.368C185.653 0.368 187.477 0.691999 189.133 1.34C190.813 1.988 192.265 2.9 193.489 4.076C194.737 5.252 195.709 6.632 196.405 8.216C197.101 9.776 197.449 11.504 197.449 13.4C197.449 15.272 197.101 17.012 196.405 18.62C195.709 20.204 194.737 21.584 193.489 22.76C192.265 23.912 190.813 24.812 189.133 25.46C187.477 26.108 185.665 26.432 183.697 26.432ZM183.661 21.464C184.789 21.464 185.821 21.272 186.757 20.888C187.717 20.504 188.557 19.952 189.277 19.232C189.997 18.512 190.549 17.66 190.933 16.676C191.341 15.692 191.545 14.6 191.545 13.4C191.545 12.2 191.341 11.108 190.933 10.124C190.549 9.14 189.997 8.288 189.277 7.568C188.581 6.848 187.753 6.296 186.793 5.912C185.833 5.528 184.789 5.336 183.661 5.336C182.533 5.336 181.489 5.528 180.529 5.912C179.593 6.296 178.765 6.848 178.045 7.568C177.325 8.288 176.761 9.14 176.353 10.124C175.969 11.108 175.777 12.2 175.777 13.4C175.777 14.576 175.969 15.668 176.353 16.676C176.761 17.66 177.313 18.512 178.009 19.232C178.729 19.952 179.569 20.504 180.529 20.888C181.489 21.272 182.533 21.464 183.661 21.464ZM201.832 26V0.799998H212.74C214.996 0.799998 216.94 1.172 218.572 1.916C220.204 2.636 221.464 3.68 222.352 5.048C223.24 6.416 223.684 8.048 223.684 9.944C223.684 11.816 223.24 13.436 222.352 14.804C221.464 16.148 220.204 17.18 218.572 17.9C216.94 18.62 214.996 18.98 212.74 18.98H205.072L207.664 16.424V26H201.832ZM217.852 26L211.552 16.856H217.78L224.152 26H217.852ZM207.664 17.072L205.072 14.336H212.416C214.216 14.336 215.56 13.952 216.448 13.184C217.336 12.392 217.78 11.312 217.78 9.944C217.78 8.552 217.336 7.472 216.448 6.704C215.56 5.936 214.216 5.552 212.416 5.552H205.072L207.664 2.78V17.072ZM240.472 26.432C238.48 26.432 236.644 26.12 234.964 25.496C233.308 24.848 231.856 23.936 230.608 22.76C229.384 21.584 228.424 20.204 227.728 18.62C227.056 17.036 226.72 15.296 226.72 13.4C226.72 11.504 227.056 9.764 227.728 8.18C228.424 6.596 229.396 5.216 230.644 4.04C231.892 2.864 233.356 1.964 235.036 1.34C236.716 0.691999 238.564 0.368 240.58 0.368C242.812 0.368 244.816 0.739999 246.592 1.484C248.392 2.228 249.904 3.308 251.128 4.724L247.384 8.18C246.472 7.22 245.476 6.512 244.396 6.056C243.316 5.576 242.14 5.336 240.868 5.336C239.644 5.336 238.528 5.528 237.52 5.912C236.512 6.296 235.636 6.848 234.892 7.568C234.172 8.288 233.608 9.14 233.2 10.124C232.816 11.108 232.624 12.2 232.624 13.4C232.624 14.576 232.816 15.656 233.2 16.64C233.608 17.624 234.172 18.488 234.892 19.232C235.636 19.952 236.5 20.504 237.484 20.888C238.492 21.272 239.596 21.464 240.796 21.464C241.948 21.464 243.064 21.284 244.144 20.924C245.248 20.54 246.316 19.904 247.348 19.016L250.66 23.228C249.292 24.26 247.696 25.052 245.872 25.604C244.072 26.156 242.272 26.432 240.472 26.432ZM245.332 22.472V13.004H250.66V23.228L245.332 22.472ZM252.766 26L263.998 0.799998H269.758L281.026 26H274.906L265.69 3.752H267.994L258.742 26H252.766ZM258.382 20.6L259.93 16.172H272.89L274.474 20.6H258.382ZM283.64 26V0.799998H288.464L303.332 18.944H300.992V0.799998H306.752V26H301.964L287.06 7.856H289.4V26H283.64ZM312.715 26V0.799998H318.547V26H312.715ZM322.907 26V22.22L338.495 3.428L339.215 5.552H323.195V0.799998H344.399V4.58L328.847 23.372L328.127 21.248H344.939V26H322.907ZM354.043 10.952H366.175V15.488H354.043V10.952ZM354.475 21.32H368.191V26H348.679V0.799998H367.723V5.48H354.475V21.32ZM388.391 10.952H400.523V15.488H388.391V10.952ZM388.823 21.32H402.539V26H383.027V0.799998H402.071V5.48H388.823V21.32ZM414.388 26L403.516 0.799998H409.816L419.32 23.12H415.612L425.26 0.799998H431.056L420.148 26H414.388ZM438.524 10.952H450.656V15.488H438.524V10.952ZM438.956 21.32H452.672V26H433.16V0.799998H452.204V5.48H438.956V21.32ZM457.312 26V0.799998H468.22C470.476 0.799998 472.42 1.172 474.052 1.916C475.684 2.636 476.944 3.68 477.832 5.048C478.72 6.416 479.164 8.048 479.164 9.944C479.164 11.816 478.72 13.436 477.832 14.804C476.944 16.148 475.684 17.18 474.052 17.9C472.42 18.62 470.476 18.98 468.22 18.98H460.552L463.144 16.424V26H457.312ZM473.332 26L467.032 16.856H473.26L479.632 26H473.332ZM463.144 17.072L460.552 14.336H467.896C469.696 14.336 471.04 13.952 471.928 13.184C472.816 12.392 473.26 11.312 473.26 9.944C473.26 8.552 472.816 7.472 471.928 6.704C471.04 5.936 469.696 5.552 467.896 5.552H460.552L463.144 2.78V17.072ZM489.697 26V15.704L491.029 19.232L479.941 0.799998H486.133L494.629 14.948H491.065L499.597 0.799998H505.321L494.233 19.232L495.529 15.704V26H489.697ZM512.489 26V5.552H504.425V0.799998H526.385V5.552H518.321V26H512.489ZM546.803 0.799998H552.635V26H546.803V0.799998ZM535.355 26H529.523V0.799998H535.355V26ZM547.235 15.668H534.923V10.736H547.235V15.668ZM558.597 26V0.799998H564.429V26H558.597ZM570.41 26V0.799998H575.234L590.102 18.944H587.762V0.799998H593.522V26H588.734L573.83 7.856H576.17V26H570.41ZM611.652 26.432C609.66 26.432 607.824 26.12 606.144 25.496C604.488 24.848 603.036 23.936 601.788 22.76C600.564 21.584 599.604 20.204 598.908 18.62C598.236 17.036 597.9 15.296 597.9 13.4C597.9 11.504 598.236 9.764 598.908 8.18C599.604 6.596 600.576 5.216 601.824 4.04C603.072 2.864 604.536 1.964 606.216 1.34C607.896 0.691999 609.744 0.368 611.76 0.368C613.992 0.368 615.996 0.739999 617.772 1.484C619.572 2.228 621.084 3.308 622.308 4.724L618.564 8.18C617.652 7.22 616.656 6.512 615.576 6.056C614.496 5.576 613.32 5.336 612.048 5.336C610.824 5.336 609.708 5.528 608.7 5.912C607.692 6.296 606.816 6.848 606.072 7.568C605.352 8.288 604.788 9.14 604.38 10.124C603.996 11.108 603.804 12.2 603.804 13.4C603.804 14.576 603.996 15.656 604.38 16.64C604.788 17.624 605.352 18.488 606.072 19.232C606.816 19.952 607.68 20.504 608.664 20.888C609.672 21.272 610.776 21.464 611.976 21.464C613.128 21.464 614.244 21.284 615.324 20.924C616.428 20.54 617.496 19.904 618.528 19.016L621.84 23.228C620.472 24.26 618.876 25.052 617.052 25.604C615.252 26.156 613.452 26.432 611.652 26.432ZM616.512 22.472V13.004H621.84V23.228L616.512 22.472Z"/>
</mask>
<path d="M90.7394 26.432C88.7954 26.432 86.9834 26.12 85.3034 25.496C83.6474 24.848 82.2074 23.936 80.9834 22.76C79.7594 21.584 78.7994 20.204 78.1034 18.62C77.4314 17.036 77.0954 15.296 77.0954 13.4C77.0954 11.504 77.4314 9.764 78.1034 8.18C78.7994 6.596 79.7594 5.216 80.9834 4.04C82.2314 2.864 83.6834 1.964 85.3394 1.34C86.9954 0.691999 88.8074 0.368 90.7754 0.368C92.9594 0.368 94.9274 0.752 96.6794 1.52C98.4554 2.264 99.9434 3.368 101.143 4.832L97.3994 8.288C96.5354 7.304 95.5754 6.572 94.5194 6.092C93.4634 5.588 92.3114 5.336 91.0634 5.336C89.8874 5.336 88.8074 5.528 87.8234 5.912C86.8394 6.296 85.9874 6.848 85.2674 7.568C84.5474 8.288 83.9834 9.14 83.5754 10.124C83.1914 11.108 82.9994 12.2 82.9994 13.4C82.9994 14.6 83.1914 15.692 83.5754 16.676C83.9834 17.66 84.5474 18.512 85.2674 19.232C85.9874 19.952 86.8394 20.504 87.8234 20.888C88.8074 21.272 89.8874 21.464 91.0634 21.464C92.3114 21.464 93.4634 21.224 94.5194 20.744C95.5754 20.24 96.5354 19.484 97.3994 18.476L101.143 21.932C99.9434 23.396 98.4554 24.512 96.6794 25.28C94.9274 26.048 92.9474 26.432 90.7394 26.432ZM101.313 26L112.545 0.799998H118.305L129.573 26H123.453L114.237 3.752H116.541L107.289 26H101.313ZM106.929 20.6L108.477 16.172H121.437L123.021 20.6H106.929ZM132.187 26V0.799998H137.011L151.879 18.944H149.539V0.799998H155.299V26H150.511L135.607 7.856H137.947V26H132.187ZM183.697 26.432C181.705 26.432 179.857 26.108 178.153 25.46C176.473 24.812 175.009 23.9 173.761 22.724C172.537 21.548 171.577 20.168 170.881 18.584C170.209 17 169.873 15.272 169.873 13.4C169.873 11.528 170.209 9.8 170.881 8.216C171.577 6.632 172.549 5.252 173.797 4.076C175.045 2.9 176.509 1.988 178.189 1.34C179.869 0.691999 181.693 0.368 183.661 0.368C185.653 0.368 187.477 0.691999 189.133 1.34C190.813 1.988 192.265 2.9 193.489 4.076C194.737 5.252 195.709 6.632 196.405 8.216C197.101 9.776 197.449 11.504 197.449 13.4C197.449 15.272 197.101 17.012 196.405 18.62C195.709 20.204 194.737 21.584 193.489 22.76C192.265 23.912 190.813 24.812 189.133 25.46C187.477 26.108 185.665 26.432 183.697 26.432ZM183.661 21.464C184.789 21.464 185.821 21.272 186.757 20.888C187.717 20.504 188.557 19.952 189.277 19.232C189.997 18.512 190.549 17.66 190.933 16.676C191.341 15.692 191.545 14.6 191.545 13.4C191.545 12.2 191.341 11.108 190.933 10.124C190.549 9.14 189.997 8.288 189.277 7.568C188.581 6.848 187.753 6.296 186.793 5.912C185.833 5.528 184.789 5.336 183.661 5.336C182.533 5.336 181.489 5.528 180.529 5.912C179.593 6.296 178.765 6.848 178.045 7.568C177.325 8.288 176.761 9.14 176.353 10.124C175.969 11.108 175.777 12.2 175.777 13.4C175.777 14.576 175.969 15.668 176.353 16.676C176.761 17.66 177.313 18.512 178.009 19.232C178.729 19.952 179.569 20.504 180.529 20.888C181.489 21.272 182.533 21.464 183.661 21.464ZM201.832 26V0.799998H212.74C214.996 0.799998 216.94 1.172 218.572 1.916C220.204 2.636 221.464 3.68 222.352 5.048C223.24 6.416 223.684 8.048 223.684 9.944C223.684 11.816 223.24 13.436 222.352 14.804C221.464 16.148 220.204 17.18 218.572 17.9C216.94 18.62 214.996 18.98 212.74 18.98H205.072L207.664 16.424V26H201.832ZM217.852 26L211.552 16.856H217.78L224.152 26H217.852ZM207.664 17.072L205.072 14.336H212.416C214.216 14.336 215.56 13.952 216.448 13.184C217.336 12.392 217.78 11.312 217.78 9.944C217.78 8.552 217.336 7.472 216.448 6.704C215.56 5.936 214.216 5.552 212.416 5.552H205.072L207.664 2.78V17.072ZM240.472 26.432C238.48 26.432 236.644 26.12 234.964 25.496C233.308 24.848 231.856 23.936 230.608 22.76C229.384 21.584 228.424 20.204 227.728 18.62C227.056 17.036 226.72 15.296 226.72 13.4C226.72 11.504 227.056 9.764 227.728 8.18C228.424 6.596 229.396 5.216 230.644 4.04C231.892 2.864 233.356 1.964 235.036 1.34C236.716 0.691999 238.564 0.368 240.58 0.368C242.812 0.368 244.816 0.739999 246.592 1.484C248.392 2.228 249.904 3.308 251.128 4.724L247.384 8.18C246.472 7.22 245.476 6.512 244.396 6.056C243.316 5.576 242.14 5.336 240.868 5.336C239.644 5.336 238.528 5.528 237.52 5.912C236.512 6.296 235.636 6.848 234.892 7.568C234.172 8.288 233.608 9.14 233.2 10.124C232.816 11.108 232.624 12.2 232.624 13.4C232.624 14.576 232.816 15.656 233.2 16.64C233.608 17.624 234.172 18.488 234.892 19.232C235.636 19.952 236.5 20.504 237.484 20.888C238.492 21.272 239.596 21.464 240.796 21.464C241.948 21.464 243.064 21.284 244.144 20.924C245.248 20.54 246.316 19.904 247.348 19.016L250.66 23.228C249.292 24.26 247.696 25.052 245.872 25.604C244.072 26.156 242.272 26.432 240.472 26.432ZM245.332 22.472V13.004H250.66V23.228L245.332 22.472ZM252.766 26L263.998 0.799998H269.758L281.026 26H274.906L265.69 3.752H267.994L258.742 26H252.766ZM258.382 20.6L259.93 16.172H272.89L274.474 20.6H258.382ZM283.64 26V0.799998H288.464L303.332 18.944H300.992V0.799998H306.752V26H301.964L287.06 7.856H289.4V26H283.64ZM312.715 26V0.799998H318.547V26H312.715ZM322.907 26V22.22L338.495 3.428L339.215 5.552H323.195V0.799998H344.399V4.58L328.847 23.372L328.127 21.248H344.939V26H322.907ZM354.043 10.952H366.175V15.488H354.043V10.952ZM354.475 21.32H368.191V26H348.679V0.799998H367.723V5.48H354.475V21.32ZM388.391 10.952H400.523V15.488H388.391V10.952ZM388.823 21.32H402.539V26H383.027V0.799998H402.071V5.48H388.823V21.32ZM414.388 26L403.516 0.799998H409.816L419.32 23.12H415.612L425.26 0.799998H431.056L420.148 26H414.388ZM438.524 10.952H450.656V15.488H438.524V10.952ZM438.956 21.32H452.672V26H433.16V0.799998H452.204V5.48H438.956V21.32ZM457.312 26V0.799998H468.22C470.476 0.799998 472.42 1.172 474.052 1.916C475.684 2.636 476.944 3.68 477.832 5.048C478.72 6.416 479.164 8.048 479.164 9.944C479.164 11.816 478.72 13.436 477.832 14.804C476.944 16.148 475.684 17.18 474.052 17.9C472.42 18.62 470.476 18.98 468.22 18.98H460.552L463.144 16.424V26H457.312ZM473.332 26L467.032 16.856H473.26L479.632 26H473.332ZM463.144 17.072L460.552 14.336H467.896C469.696 14.336 471.04 13.952 471.928 13.184C472.816 12.392 473.26 11.312 473.26 9.944C473.26 8.552 472.816 7.472 471.928 6.704C471.04 5.936 469.696 5.552 467.896 5.552H460.552L463.144 2.78V17.072ZM489.697 26V15.704L491.029 19.232L479.941 0.799998H486.133L494.629 14.948H491.065L499.597 0.799998H505.321L494.233 19.232L495.529 15.704V26H489.697ZM512.489 26V5.552H504.425V0.799998H526.385V5.552H518.321V26H512.489ZM546.803 0.799998H552.635V26H546.803V0.799998ZM535.355 26H529.523V0.799998H535.355V26ZM547.235 15.668H534.923V10.736H547.235V15.668ZM558.597 26V0.799998H564.429V26H558.597ZM570.41 26V0.799998H575.234L590.102 18.944H587.762V0.799998H593.522V26H588.734L573.83 7.856H576.17V26H570.41ZM611.652 26.432C609.66 26.432 607.824 26.12 606.144 25.496C604.488 24.848 603.036 23.936 601.788 22.76C600.564 21.584 599.604 20.204 598.908 18.62C598.236 17.036 597.9 15.296 597.9 13.4C597.9 11.504 598.236 9.764 598.908 8.18C599.604 6.596 600.576 5.216 601.824 4.04C603.072 2.864 604.536 1.964 606.216 1.34C607.896 0.691999 609.744 0.368 611.76 0.368C613.992 0.368 615.996 0.739999 617.772 1.484C619.572 2.228 621.084 3.308 622.308 4.724L618.564 8.18C617.652 7.22 616.656 6.512 615.576 6.056C614.496 5.576 613.32 5.336 612.048 5.336C610.824 5.336 609.708 5.528 608.7 5.912C607.692 6.296 606.816 6.848 606.072 7.568C605.352 8.288 604.788 9.14 604.38 10.124C603.996 11.108 603.804 12.2 603.804 13.4C603.804 14.576 603.996 15.656 604.38 16.64C604.788 17.624 605.352 18.488 606.072 19.232C606.816 19.952 607.68 20.504 608.664 20.888C609.672 21.272 610.776 21.464 611.976 21.464C613.128 21.464 614.244 21.284 615.324 20.924C616.428 20.54 617.496 19.904 618.528 19.016L621.84 23.228C620.472 24.26 618.876 25.052 617.052 25.604C615.252 26.156 613.452 26.432 611.652 26.432ZM616.512 22.472V13.004H621.84V23.228L616.512 22.472Z" fill="#333333"/>
<path d="M9.036 26L8.08557 26.3109L8.31099 27H9.036V26ZM0.792 0.799998V-0.200002H-0.587294L-0.158434 1.11093L0.792 0.799998ZM6.84 0.799998L7.79216 0.494387L7.56928 -0.200002H6.84V0.799998ZM14.004 23.12V24.12H15.3752L14.9562 22.8144L14.004 23.12ZM10.98 23.12L10.0319 22.8019L9.58974 24.12H10.98V23.12ZM18.468 0.799998V-0.200002H17.7487L17.5199 0.481936L18.468 0.799998ZM23.868 0.799998L24.8197 0.492995L24.5962 -0.200002H23.868V0.799998ZM31.068 23.12V24.12H32.4413L32.0197 22.813L31.068 23.12ZM28.152 23.12L27.2021 22.8075L26.7702 24.12H28.152V23.12ZM35.496 0.799998V-0.200002H34.7723L34.5461 0.48745L35.496 0.799998ZM41.076 0.799998L42.0264 1.11093L42.4553 -0.200002H41.076V0.799998ZM32.832 26V27H33.557L33.7824 26.3109L32.832 26ZM26.568 26L25.6171 26.3094L25.8418 27H26.568V26ZM20.196 6.416V5.416H18.819L19.2451 6.7254L20.196 6.416ZM21.852 6.416L22.8003 6.73327L23.241 5.416H21.852V6.416ZM15.3 26V27H16.0199L16.2483 26.3173L15.3 26ZM9.98643 25.6891L1.74243 0.489071L-0.158434 1.11093L8.08557 26.3109L9.98643 25.6891ZM0.792 1.8H6.84V-0.200002H0.792V1.8ZM5.88784 1.10561L13.0518 23.4256L14.9562 22.8144L7.79216 0.494387L5.88784 1.10561ZM14.004 22.12H10.98V24.12H14.004V22.12ZM11.9281 23.4381L19.4161 1.11806L17.5199 0.481936L10.0319 22.8019L11.9281 23.4381ZM18.468 1.8H23.868V-0.200002H18.468V1.8ZM22.9163 1.107L30.1163 23.427L32.0197 22.813L24.8197 0.492995L22.9163 1.107ZM31.068 22.12H28.152V24.12H31.068V22.12ZM29.1019 23.4325L36.4459 1.11255L34.5461 0.48745L27.2021 22.8075L29.1019 23.4325ZM35.496 1.8H41.076V-0.200002H35.496V1.8ZM40.1256 0.489071L31.8816 25.6891L33.7824 26.3109L42.0264 1.11093L40.1256 0.489071ZM32.832 25H26.568V27H32.832V25ZM27.5189 25.6906L21.1469 6.1066L19.2451 6.7254L25.6171 26.3094L27.5189 25.6906ZM20.196 7.416H21.852V5.416H20.196V7.416ZM20.9037 6.09873L14.3517 25.6827L16.2483 26.3173L22.8003 6.73327L20.9037 6.09873ZM15.3 25H9.036V27H15.3V25ZM49.6958 10.952V9.952H48.6958V10.952H49.6958ZM61.8278 10.952H62.8278V9.952H61.8278V10.952ZM61.8278 15.488V16.488H62.8278V15.488H61.8278ZM49.6958 15.488H48.6958V16.488H49.6958V15.488ZM50.1278 21.32H49.1278V22.32H50.1278V21.32ZM63.8438 21.32H64.8438V20.32H63.8438V21.32ZM63.8438 26V27H64.8438V26H63.8438ZM44.3317 26H43.3317V27H44.3317V26ZM44.3317 0.799998V-0.200002H43.3317V0.799998H44.3317ZM63.3758 0.799998H64.3758V-0.200002H63.3758V0.799998ZM63.3758 5.48V6.48H64.3758V5.48H63.3758ZM50.1278 5.48V4.48H49.1278V5.48H50.1278ZM49.6958 11.952H61.8278V9.952H49.6958V11.952ZM60.8278 10.952V15.488H62.8278V10.952H60.8278ZM61.8278 14.488H49.6958V16.488H61.8278V14.488ZM50.6958 15.488V10.952H48.6958V15.488H50.6958ZM50.1278 22.32H63.8438V20.32H50.1278V22.32ZM62.8438 21.32V26H64.8438V21.32H62.8438ZM63.8438 25H44.3317V27H63.8438V25ZM45.3317 26V0.799998H43.3317V26H45.3317ZM44.3317 1.8H63.3758V-0.200002H44.3317V1.8ZM62.3758 0.799998V5.48H64.3758V0.799998H62.3758ZM63.3758 4.48H50.1278V6.48H63.3758V4.48ZM49.1278 5.48V21.32H51.1278V5.48H49.1278ZM85.3034 25.496L84.939 26.4272L84.9471 26.4304L84.9552 26.4334L85.3034 25.496ZM80.9834 22.76L80.2906 23.4811L80.9834 22.76ZM78.1034 18.62L77.1827 19.0106L77.1879 19.0223L78.1034 18.62ZM78.1034 8.18L77.1878 7.77769L77.1828 7.78945L78.1034 8.18ZM80.9834 4.04L80.2976 3.31218L80.2906 3.31889L80.9834 4.04ZM85.3394 1.34L85.692 2.27584L85.7038 2.27124L85.3394 1.34ZM96.6794 1.52L96.2779 2.43587L96.2854 2.43917L96.293 2.44234L96.6794 1.52ZM101.143 4.832L101.822 5.5668L102.515 4.92728L101.917 4.19807L101.143 4.832ZM97.3994 8.288L96.648 8.9478L97.3244 9.71816L98.0777 9.0228L97.3994 8.288ZM94.5194 6.092L94.0887 6.99448L94.0971 6.9985L94.1056 7.00237L94.5194 6.092ZM85.2674 7.568L85.9745 8.27511L85.2674 7.568ZM83.5754 10.124L82.6517 9.74098L82.6476 9.75068L82.6438 9.76046L83.5754 10.124ZM83.5754 16.676L82.6438 17.0395L82.6476 17.0493L82.6517 17.059L83.5754 16.676ZM85.2674 19.232L84.5603 19.9391L85.2674 19.232ZM94.5194 20.744L94.9332 21.6544L94.9417 21.6505L94.9501 21.6465L94.5194 20.744ZM97.3994 18.476L98.0777 17.7412L97.3153 17.0375L96.6402 17.8252L97.3994 18.476ZM101.143 21.932L101.917 22.5659L102.515 21.8367L101.822 21.1972L101.143 21.932ZM96.6794 25.28L96.2825 24.3621L96.2779 24.3641L96.6794 25.28ZM90.7394 25.432C88.9042 25.432 87.2111 25.1378 85.6516 24.5586L84.9552 26.4334C86.7557 27.1022 88.6866 27.432 90.7394 27.432V25.432ZM85.6678 24.5648C84.1281 23.9623 82.8011 23.1197 81.6762 22.0389L80.2906 23.4811C81.6137 24.7523 83.1667 25.7337 84.939 26.4272L85.6678 24.5648ZM81.6762 22.0389C80.5485 20.9554 79.6633 19.6843 79.0189 18.2177L77.1879 19.0223C77.9355 20.7237 78.9704 22.2127 80.2906 23.4811L81.6762 22.0389ZM79.024 18.2295C78.4095 16.781 78.0954 15.1755 78.0954 13.4H76.0954C76.0954 15.4165 76.4533 17.291 77.1828 19.0105L79.024 18.2295ZM78.0954 13.4C78.0954 11.6245 78.4095 10.019 79.024 8.57055L77.1828 7.78945C76.4533 9.50904 76.0954 11.3835 76.0954 13.4H78.0954ZM79.0189 8.58227C79.6633 7.11573 80.5485 5.84465 81.6762 4.7611L80.2906 3.31889C78.9704 4.58735 77.9355 6.07627 77.1879 7.77773L79.0189 8.58227ZM81.6692 4.76779C82.8179 3.68538 84.1557 2.85467 85.692 2.27577L84.9868 0.404227C83.2111 1.07332 81.6449 2.04262 80.2976 3.31221L81.6692 4.76779ZM85.7038 2.27124C87.2319 1.67328 88.9188 1.368 90.7754 1.368V-0.632C88.696 -0.632 86.7589 -0.289287 84.975 0.408754L85.7038 2.27124ZM90.7754 1.368C92.8407 1.368 94.6692 1.73069 96.2779 2.43587L97.0809 0.604131C95.1856 -0.226686 93.0781 -0.632 90.7754 -0.632V1.368ZM96.293 2.44234C97.9211 3.12437 99.2754 4.13047 100.37 5.46593L101.917 4.19807C100.611 2.60553 98.9897 1.40363 97.0658 0.597662L96.293 2.44234ZM100.465 4.0972L96.7211 7.5532L98.0777 9.0228L101.822 5.5668L100.465 4.0972ZM98.1508 7.6282C97.2054 6.55144 96.1339 5.72741 94.9332 5.18163L94.1056 7.00237C95.0169 7.41659 95.8654 8.05656 96.648 8.9478L98.1508 7.6282ZM94.9501 5.18952C93.7508 4.61709 92.4503 4.336 91.0634 4.336V6.336C92.1725 6.336 93.176 6.55891 94.0887 6.99448L94.9501 5.18952ZM91.0634 4.336C89.7771 4.336 88.5722 4.54636 87.4599 4.98042L88.187 6.84358C89.0427 6.50964 89.9977 6.336 91.0634 6.336V4.336ZM87.4599 4.98042C86.352 5.41277 85.3817 6.03945 84.5603 6.86089L85.9745 8.27511C86.5931 7.65655 87.3268 7.17923 88.187 6.84358L87.4599 4.98042ZM84.5603 6.86089C83.7433 7.67793 83.1076 8.64148 82.6517 9.74098L84.4991 10.507C84.8593 9.63852 85.3515 8.89807 85.9745 8.27511L84.5603 6.86089ZM82.6438 9.76046C82.2089 10.875 81.9994 12.0924 81.9994 13.4H83.9994C83.9994 12.3076 84.1739 11.341 84.507 10.4875L82.6438 9.76046ZM81.9994 13.4C81.9994 14.7076 82.2089 15.925 82.6438 17.0395L84.507 16.3125C84.1739 15.459 83.9994 14.4924 83.9994 13.4H81.9994ZM82.6517 17.059C83.1076 18.1585 83.7433 19.1221 84.5603 19.9391L85.9745 18.5249C85.3515 17.9019 84.8593 17.1615 84.4991 16.293L82.6517 17.059ZM84.5603 19.9391C85.3817 20.7605 86.352 21.3872 87.4599 21.8196L88.187 19.9564C87.3268 19.6208 86.5931 19.1435 85.9745 18.5249L84.5603 19.9391ZM87.4599 21.8196C88.5722 22.2536 89.7771 22.464 91.0634 22.464V20.464C89.9977 20.464 89.0427 20.2904 88.187 19.9564L87.4599 21.8196ZM91.0634 22.464C92.4432 22.464 93.7376 22.1978 94.9332 21.6544L94.1056 19.8336C93.1892 20.2502 92.1797 20.464 91.0634 20.464V22.464ZM94.9501 21.6465C96.1479 21.0748 97.2161 20.2264 98.1587 19.1268L96.6402 17.8252C95.8547 18.7416 95.0029 19.4052 94.0887 19.8415L94.9501 21.6465ZM96.7211 19.2108L100.465 22.6668L101.822 21.1972L98.0777 17.7412L96.7211 19.2108ZM100.37 21.2981C99.2734 22.636 97.9155 23.656 96.2825 24.3621L97.0763 26.1979C98.9953 25.368 100.613 24.156 101.917 22.5659L100.37 21.2981ZM96.2779 24.3641C94.6706 25.0687 92.8304 25.432 90.7394 25.432V27.432C93.0644 27.432 95.1843 27.0273 97.0809 26.1959L96.2779 24.3641ZM101.313 26L100.399 25.5929L99.7722 27H101.313V26ZM112.545 0.799998V-0.200002H111.896L111.631 0.392892L112.545 0.799998ZM118.305 0.799998L119.218 0.391804L118.953 -0.200002H118.305V0.799998ZM129.573 26V27H131.115L130.486 25.5918L129.573 26ZM123.453 26L122.529 26.3827L122.785 27H123.453V26ZM114.237 3.752V2.752H112.74L113.313 4.1347L114.237 3.752ZM116.541 3.752L117.464 4.13598L118.04 2.752H116.541V3.752ZM107.289 26V27H107.956L108.212 26.384L107.289 26ZM106.929 20.6L105.985 20.27L105.52 21.6H106.929V20.6ZM108.477 16.172V15.172H107.767L107.533 15.842L108.477 16.172ZM121.437 16.172L122.378 15.8352L122.141 15.172H121.437V16.172ZM123.021 20.6V21.6H124.44L123.962 20.2632L123.021 20.6ZM102.226 26.4071L113.458 1.2071L111.631 0.392892L100.399 25.5929L102.226 26.4071ZM112.545 1.8H118.305V-0.200002H112.545V1.8ZM117.392 1.20819L128.66 26.4082L130.486 25.5918L119.218 0.391804L117.392 1.20819ZM129.573 25H123.453V27H129.573V25ZM124.377 25.6173L115.161 3.3693L113.313 4.1347L122.529 26.3827L124.377 25.6173ZM114.237 4.752H116.541V2.752H114.237V4.752ZM115.617 3.36802L106.365 25.616L108.212 26.384L117.464 4.13598L115.617 3.36802ZM107.289 25H101.313V27H107.289V25ZM107.873 20.93L109.421 16.502L107.533 15.842L105.985 20.27L107.873 20.93ZM108.477 17.172H121.437V15.172H108.477V17.172ZM120.495 16.5088L122.079 20.9368L123.962 20.2632L122.378 15.8352L120.495 16.5088ZM123.021 19.6H106.929V21.6H123.021V19.6ZM132.187 26H131.187V27H132.187V26ZM132.187 0.799998V-0.200002H131.187V0.799998H132.187ZM137.011 0.799998L137.785 0.166176L137.485 -0.200002H137.011V0.799998ZM151.879 18.944V19.944H153.992L152.653 18.3102L151.879 18.944ZM149.539 18.944H148.539V19.944H149.539V18.944ZM149.539 0.799998V-0.200002H148.539V0.799998H149.539ZM155.299 0.799998H156.299V-0.200002H155.299V0.799998ZM155.299 26V27H156.299V26H155.299ZM150.511 26L149.738 26.6347L150.039 27H150.511V26ZM135.607 7.856V6.856H133.492L134.834 8.49074L135.607 7.856ZM137.947 7.856H138.947V6.856H137.947V7.856ZM137.947 26V27H138.947V26H137.947ZM133.187 26V0.799998H131.187V26H133.187ZM132.187 1.8H137.011V-0.200002H132.187V1.8ZM136.238 1.43382L151.106 19.5778L152.653 18.3102L137.785 0.166176L136.238 1.43382ZM151.879 17.944H149.539V19.944H151.879V17.944ZM150.539 18.944V0.799998H148.539V18.944H150.539ZM149.539 1.8H155.299V-0.200002H149.539V1.8ZM154.299 0.799998V26H156.299V0.799998H154.299ZM155.299 25H150.511V27H155.299V25ZM151.284 25.3653L136.38 7.22126L134.834 8.49074L149.738 26.6347L151.284 25.3653ZM135.607 8.856H137.947V6.856H135.607V8.856ZM136.947 7.856V26H138.947V7.856H136.947ZM137.947 25H132.187V27H137.947V25ZM178.153 25.46L177.793 26.393L177.797 26.3947L178.153 25.46ZM173.761 22.724L173.068 23.4451L173.075 23.4518L173.761 22.724ZM170.881 18.584L169.96 18.9746L169.965 18.9863L170.881 18.584ZM170.881 8.216L169.965 7.81369L169.96 7.82545L170.881 8.216ZM178.189 1.34L177.829 0.406996L178.189 1.34ZM189.133 1.34L188.768 2.27125L188.773 2.273L189.133 1.34ZM193.489 4.076L192.796 4.79714L192.803 4.80379L193.489 4.076ZM196.405 8.216L195.489 8.61828L195.492 8.62344L196.405 8.216ZM196.405 18.62L197.32 19.0223L197.322 19.0172L196.405 18.62ZM193.489 22.76L194.174 23.4882L194.175 23.4878L193.489 22.76ZM189.133 25.46L188.773 24.527L188.768 24.5288L189.133 25.46ZM186.757 20.888L186.385 19.9595L186.377 19.9628L186.757 20.888ZM189.277 19.232L188.57 18.5249L189.277 19.232ZM190.933 16.676L190.009 16.293L190.005 16.3027L190.001 16.3125L190.933 16.676ZM190.933 10.124L190.001 10.4875L190.005 10.4973L190.009 10.507L190.933 10.124ZM189.277 7.568L188.558 8.26302L188.564 8.26911L188.57 8.27511L189.277 7.568ZM186.793 5.912L186.421 6.84048L186.793 5.912ZM180.529 5.912L180.157 4.98349L180.149 4.98683L180.529 5.912ZM178.045 7.568L178.752 8.27511L178.045 7.568ZM176.353 10.124L175.429 9.74098L175.425 9.75068L175.421 9.76046L176.353 10.124ZM176.353 16.676L175.418 17.032L175.423 17.0456L175.429 17.059L176.353 16.676ZM178.009 19.232L177.29 19.927L177.296 19.9331L177.302 19.9391L178.009 19.232ZM180.529 20.888L180.157 21.8165L180.529 20.888ZM183.697 25.432C181.815 25.432 180.089 25.1263 178.508 24.5253L177.797 26.3947C179.625 27.0897 181.595 27.432 183.697 27.432V25.432ZM178.513 24.527C176.947 23.9233 175.596 23.0789 174.447 21.9962L173.075 23.4518C174.422 24.7211 175.998 25.7007 177.793 26.393L178.513 24.527ZM174.454 22.0029C173.326 20.9194 172.441 19.6483 171.796 18.1817L169.965 18.9863C170.713 20.6877 171.748 22.1766 173.068 23.4451L174.454 22.0029ZM171.801 18.1934C171.186 16.7435 170.873 15.1497 170.873 13.4H168.873C168.873 15.3943 169.231 17.2565 169.96 18.9746L171.801 18.1934ZM170.873 13.4C170.873 11.6503 171.186 10.0565 171.801 8.60655L169.96 7.82545C169.231 9.54349 168.873 11.4057 168.873 13.4H170.873ZM171.796 8.61827C172.439 7.15595 173.333 5.88694 174.483 4.80379L173.111 3.34821C171.764 4.61705 170.715 6.10804 169.965 7.81373L171.796 8.61827ZM174.483 4.80379C175.632 3.72108 176.983 2.87673 178.549 2.273L177.829 0.406996C176.034 1.09926 174.458 2.07892 173.111 3.34821L174.483 4.80379ZM178.549 2.273C180.104 1.67323 181.804 1.368 183.661 1.368V-0.632C181.581 -0.632 179.634 -0.289233 177.829 0.406996L178.549 2.273ZM183.661 1.368C185.543 1.368 187.242 1.67382 188.768 2.27124L189.497 0.408754C187.712 -0.28982 185.763 -0.632 183.661 -0.632V1.368ZM188.773 2.273C190.337 2.87614 191.673 3.71867 192.796 4.7971L194.182 3.35489C192.856 2.08133 191.289 1.09986 189.493 0.406996L188.773 2.273ZM192.803 4.80379C193.952 5.88694 194.847 7.15595 195.489 8.61827L197.32 7.81373C196.571 6.10804 195.521 4.61705 194.175 3.34821L192.803 4.80379ZM195.492 8.62344C196.124 10.0418 196.449 11.6289 196.449 13.4H198.449C198.449 11.3791 198.077 9.51023 197.318 7.80856L195.492 8.62344ZM196.449 13.4C196.449 15.1448 196.125 16.7486 195.487 18.2228L197.322 19.0172C198.076 17.2754 198.449 15.3992 198.449 13.4H196.449ZM195.489 18.2177C194.847 19.68 193.952 20.9491 192.803 22.0322L194.175 23.4878C195.521 22.2189 196.571 20.728 197.32 19.0223L195.489 18.2177ZM192.803 22.0318C191.68 23.0889 190.341 23.9222 188.773 24.527L189.493 26.393C191.285 25.7018 192.849 24.7351 194.174 23.4882L192.803 22.0318ZM188.768 24.5288C187.24 25.1267 185.553 25.432 183.697 25.432V27.432C185.776 27.432 187.713 27.0893 189.497 26.3912L188.768 24.5288ZM183.661 22.464C184.904 22.464 186.067 22.252 187.136 21.8132L186.377 19.9628C185.575 20.292 184.674 20.464 183.661 20.464V22.464ZM187.128 21.8165C188.212 21.383 189.167 20.7564 189.984 19.9391L188.57 18.5249C187.947 19.1476 187.222 19.625 186.385 19.9595L187.128 21.8165ZM189.984 19.9391C190.805 19.1177 191.432 18.1474 191.864 17.0395L190.001 16.3125C189.666 17.1726 189.188 17.9063 188.57 18.5249L189.984 19.9391ZM191.856 17.059C192.321 15.9392 192.545 14.7149 192.545 13.4H190.545C190.545 14.4851 190.361 15.4448 190.009 16.293L191.856 17.059ZM192.545 13.4C192.545 12.0851 192.321 10.8608 191.856 9.74098L190.009 10.507C190.361 11.3552 190.545 12.3149 190.545 13.4H192.545ZM191.864 9.76046C191.432 8.65257 190.805 7.68233 189.984 6.86089L188.57 8.27511C189.188 8.89367 189.666 9.62743 190.001 10.4875L191.864 9.76046ZM189.996 6.87298C189.198 6.04817 188.251 5.41819 187.164 4.98352L186.421 6.84048C187.255 7.17381 187.963 7.64783 188.558 8.26302L189.996 6.87298ZM187.164 4.98352C186.076 4.54814 184.904 4.336 183.661 4.336V6.336C184.673 6.336 185.59 6.50786 186.421 6.84048L187.164 4.98352ZM183.661 4.336C182.417 4.336 181.246 4.54814 180.157 4.98352L180.9 6.84048C181.732 6.50786 182.648 6.336 183.661 6.336V4.336ZM180.149 4.98683C179.09 5.42144 178.151 6.04785 177.338 6.86089L178.752 8.27511C179.379 7.64815 180.096 7.17056 180.908 6.83717L180.149 4.98683ZM177.338 6.86089C176.521 7.67793 175.885 8.64148 175.429 9.74098L177.276 10.507C177.637 9.63852 178.129 8.89807 178.752 8.27511L177.338 6.86089ZM175.421 9.76046C174.986 10.875 174.777 12.0924 174.777 13.4H176.777C176.777 12.3076 176.951 11.341 177.284 10.4875L175.421 9.76046ZM174.777 13.4C174.777 14.6867 174.987 15.9005 175.418 17.032L177.287 16.32C176.95 15.4355 176.777 14.4653 176.777 13.4H174.777ZM175.429 17.059C175.882 18.1515 176.501 19.1112 177.29 19.927L178.728 18.537C178.124 17.9128 177.64 17.1685 177.276 16.293L175.429 17.059ZM177.302 19.9391C178.119 20.7564 179.074 21.383 180.157 21.8165L180.9 19.9595C180.064 19.625 179.339 19.1476 178.716 18.5249L177.302 19.9391ZM180.157 21.8165C181.246 22.2519 182.417 22.464 183.661 22.464V20.464C182.648 20.464 181.732 20.2921 180.9 19.9595L180.157 21.8165ZM201.832 26H200.832V27H201.832V26ZM201.832 0.799998V-0.200002H200.832V0.799998H201.832ZM218.572 1.916L218.157 2.82597L218.168 2.83092L218.572 1.916ZM222.352 5.048L221.513 5.59247L222.352 5.048ZM222.352 14.804L223.186 15.3553L223.191 15.3485L222.352 14.804ZM218.572 17.9L218.975 18.8149L218.572 17.9ZM205.072 18.98L204.37 18.268L202.633 19.98H205.072V18.98ZM207.664 16.424H208.664V14.0335L206.962 15.712L207.664 16.424ZM207.664 26V27H208.664V26H207.664ZM217.852 26L217.028 26.5674L217.326 27H217.852V26ZM211.552 16.856V15.856H209.648L210.728 17.4234L211.552 16.856ZM217.78 16.856L218.6 16.2843L218.302 15.856H217.78V16.856ZM224.152 26V27H226.067L224.972 25.4283L224.152 26ZM207.664 17.072L206.938 17.7597L208.664 19.5816V17.072H207.664ZM205.072 14.336V13.336H202.747L204.346 15.0237L205.072 14.336ZM216.448 13.184L217.102 13.9404L217.108 13.9354L217.113 13.9303L216.448 13.184ZM205.072 5.552L204.341 4.86901L202.768 6.552H205.072V5.552ZM207.664 2.78H208.664V0.246411L206.933 2.097L207.664 2.78ZM202.832 26V0.799998H200.832V26H202.832ZM201.832 1.8H212.74V-0.200002H201.832V1.8ZM212.74 1.8C214.888 1.8 216.684 2.15451 218.157 2.82591L218.987 1.00609C217.195 0.18949 215.103 -0.200002 212.74 -0.200002V1.8ZM218.168 2.83092C219.639 3.48005 220.741 4.40287 221.513 5.59247L223.191 4.50353C222.187 2.95712 220.768 1.79195 218.975 1.00108L218.168 2.83092ZM221.513 5.59247C222.28 6.7734 222.684 8.20916 222.684 9.944H224.684C224.684 7.88684 224.2 6.0586 223.191 4.50353L221.513 5.59247ZM222.684 9.944C222.684 11.652 222.281 13.0766 221.513 14.2595L223.191 15.3485C224.199 13.7954 224.684 11.98 224.684 9.944H222.684ZM221.517 14.2527C220.746 15.4198 219.644 16.3339 218.168 16.9851L218.975 18.8149C220.763 18.0261 222.181 16.8762 223.186 15.3553L221.517 14.2527ZM218.168 16.9851C216.692 17.6362 214.892 17.98 212.74 17.98V19.98C215.099 19.98 217.187 19.6038 218.975 18.8149L218.168 16.9851ZM212.74 17.98H205.072V19.98H212.74V17.98ZM205.774 19.692L208.366 17.136L206.962 15.712L204.37 18.268L205.774 19.692ZM206.664 16.424V26H208.664V16.424H206.664ZM207.664 25H201.832V27H207.664V25ZM218.675 25.4326L212.375 16.2886L210.728 17.4234L217.028 26.5674L218.675 25.4326ZM211.552 17.856H217.78V15.856H211.552V17.856ZM216.959 17.4277L223.331 26.5717L224.972 25.4283L218.6 16.2843L216.959 17.4277ZM224.152 25H217.852V27H224.152V25ZM208.39 16.3843L205.798 13.6483L204.346 15.0237L206.938 17.7597L208.39 16.3843ZM205.072 15.336H212.416V13.336H205.072V15.336ZM212.416 15.336C214.333 15.336 215.957 14.9306 217.102 13.9404L215.794 12.4276C215.163 12.9734 214.098 13.336 212.416 13.336V15.336ZM217.113 13.9303C218.247 12.9193 218.78 11.5499 218.78 9.944H216.78C216.78 11.0741 216.425 11.8647 215.782 12.4377L217.113 13.9303ZM218.78 9.944C218.78 8.32094 218.251 6.94123 217.102 5.94764L215.794 7.46036C216.421 8.00277 216.78 8.78306 216.78 9.944H218.78ZM217.102 5.94764C215.957 4.95739 214.333 4.552 212.416 4.552V6.552C214.098 6.552 215.163 6.91461 215.794 7.46036L217.102 5.94764ZM212.416 4.552H205.072V6.552H212.416V4.552ZM205.802 6.23499L208.394 3.46299L206.933 2.097L204.341 4.86901L205.802 6.23499ZM206.664 2.78V17.072H208.664V2.78H206.664ZM234.964 25.496L234.6 26.4272L234.608 26.4304L234.616 26.4334L234.964 25.496ZM230.608 22.76L229.916 23.4811L229.923 23.4878L230.608 22.76ZM227.728 18.62L226.808 19.0106L226.813 19.0223L227.728 18.62ZM227.728 8.18L226.813 7.77769L226.808 7.78945L227.728 8.18ZM230.644 4.04L231.33 4.76779V4.76779L230.644 4.04ZM235.036 1.34L235.385 2.2775L235.396 2.273L235.036 1.34ZM246.592 1.484L246.206 2.40635L246.21 2.40816L246.592 1.484ZM251.128 4.724L251.807 5.4588L252.518 4.8023L251.885 4.07005L251.128 4.724ZM247.384 8.18L246.659 8.86875L247.338 9.58342L248.063 8.9148L247.384 8.18ZM244.396 6.056L243.99 6.96981L243.999 6.97361L244.007 6.97725L244.396 6.056ZM234.892 7.568L234.197 6.8494L234.191 6.8551L234.185 6.86089L234.892 7.568ZM233.2 10.124L232.277 9.74098L232.273 9.75068L232.269 9.76046L233.2 10.124ZM233.2 16.64L232.269 17.0035L232.273 17.0133L232.277 17.023L233.2 16.64ZM234.892 19.232L234.174 19.9274L234.185 19.9392L234.197 19.9506L234.892 19.232ZM237.484 20.888L237.121 21.8196L237.128 21.8225L237.484 20.888ZM244.144 20.924L244.461 21.8728L244.473 21.8685L244.144 20.924ZM247.348 19.016L248.134 18.3979L247.488 17.5763L246.696 18.258L247.348 19.016ZM250.66 23.228L251.263 24.0263L252.077 23.4119L251.446 22.6099L250.66 23.228ZM245.872 25.604L245.583 24.6469L245.579 24.6479L245.872 25.604ZM245.332 22.472H244.332V23.3401L245.192 23.4621L245.332 22.472ZM245.332 13.004V12.004H244.332V13.004H245.332ZM250.66 13.004H251.66V12.004H250.66V13.004ZM250.66 23.228L250.52 24.2181L251.66 24.3799V23.228H250.66ZM240.472 25.432C238.586 25.432 236.869 25.1368 235.313 24.5586L234.616 26.4334C236.419 27.1032 238.375 27.432 240.472 27.432V25.432ZM235.329 24.5648C233.787 23.9616 232.446 23.1172 231.294 22.0322L229.923 23.4878C231.267 24.7548 232.829 25.7344 234.6 26.4272L235.329 24.5648ZM231.301 22.0389C230.173 20.9554 229.288 19.6843 228.644 18.2177L226.813 19.0223C227.561 20.7237 228.595 22.2127 229.916 23.4811L231.301 22.0389ZM228.649 18.2295C228.035 16.781 227.72 15.1755 227.72 13.4H225.72C225.72 15.4165 226.078 17.291 226.808 19.0105L228.649 18.2295ZM227.72 13.4C227.72 11.6245 228.035 10.019 228.649 8.57055L226.808 7.78945C226.078 9.50904 225.72 11.3835 225.72 13.4H227.72ZM228.644 8.58227C229.286 7.11995 230.181 5.85094 231.33 4.76779L229.959 3.31221C228.612 4.58105 227.562 6.07204 226.813 7.77773L228.644 8.58227ZM231.33 4.76779C232.476 3.68768 233.824 2.85698 235.385 2.27742L234.688 0.402573C232.889 1.07102 231.308 2.04032 229.959 3.31221L231.33 4.76779ZM235.396 2.273C236.949 1.67427 238.673 1.368 240.58 1.368V-0.632C238.456 -0.632 236.484 -0.29027 234.677 0.406996L235.396 2.273ZM240.58 1.368C242.701 1.368 244.57 1.7211 246.206 2.40634L246.979 0.56166C245.063 -0.241098 242.924 -0.632 240.58 -0.632V1.368ZM246.21 2.40816C247.872 3.09505 249.254 4.08486 250.372 5.37795L251.885 4.07005C250.555 2.53114 248.913 1.36095 246.974 0.559832L246.21 2.40816ZM250.45 3.9892L246.706 7.4452L248.063 8.9148L251.807 5.4588L250.45 3.9892ZM248.109 7.49125C247.115 6.44436 246.008 5.65081 244.785 5.13475L244.007 6.97725C244.945 7.37318 245.83 7.99564 246.659 8.86875L248.109 7.49125ZM244.803 5.14219C243.585 4.60113 242.27 4.336 240.868 4.336V6.336C242.011 6.336 243.048 6.55087 243.99 6.96981L244.803 5.14219ZM240.868 4.336C239.539 4.336 238.3 4.54477 237.164 4.97751L237.876 6.84649C238.756 6.51123 239.75 6.336 240.868 6.336V4.336ZM237.164 4.97751C236.035 5.40768 235.042 6.03124 234.197 6.8494L235.588 8.2866C236.23 7.66475 236.99 7.18432 237.876 6.84649L237.164 4.97751ZM234.185 6.86089C233.368 7.67793 232.733 8.64148 232.277 9.74098L234.124 10.507C234.484 9.63852 234.977 8.89807 235.6 8.27511L234.185 6.86089ZM232.269 9.76046C231.834 10.875 231.624 12.0924 231.624 13.4H233.624C233.624 12.3076 233.799 11.341 234.132 10.4875L232.269 9.76046ZM231.624 13.4C231.624 14.6863 231.835 15.8913 232.269 17.0035L234.132 16.2765C233.798 15.4207 233.624 14.4657 233.624 13.4H231.624ZM232.277 17.023C232.731 18.1197 233.364 19.0905 234.174 19.9274L235.611 18.5366C234.981 17.8855 234.485 17.1283 234.124 16.257L232.277 17.023ZM234.197 19.9506C235.038 20.7648 236.016 21.3883 237.121 21.8196L237.848 19.9564C236.985 19.6197 236.234 19.1392 235.588 18.5134L234.197 19.9506ZM237.128 21.8225C238.262 22.2544 239.488 22.464 240.796 22.464V20.464C239.704 20.464 238.723 20.2896 237.84 19.9535L237.128 21.8225ZM240.796 22.464C242.055 22.464 243.277 22.2671 244.461 21.8727L243.828 19.9753C242.851 20.3009 241.842 20.464 240.796 20.464V22.464ZM244.473 21.8685C245.713 21.437 246.889 20.7307 248.001 19.774L246.696 18.258C245.744 19.0773 244.783 19.643 243.816 19.9795L244.473 21.8685ZM246.562 19.6341L249.874 23.8461L251.446 22.6099L248.134 18.3979L246.562 19.6341ZM250.058 22.4297C248.794 23.3832 247.307 24.1252 245.583 24.6469L246.162 26.5611C248.086 25.9788 249.791 25.1368 251.263 24.0263L250.058 22.4297ZM245.579 24.6479C243.87 25.1722 242.169 25.432 240.472 25.432V27.432C242.376 27.432 244.275 27.1398 246.166 26.5601L245.579 24.6479ZM246.332 22.472V13.004H244.332V22.472H246.332ZM245.332 14.004H250.66V12.004H245.332V14.004ZM249.66 13.004V23.228H251.66V13.004H249.66ZM250.801 22.2379L245.473 21.4819L245.192 23.4621L250.52 24.2181L250.801 22.2379ZM252.766 26L251.852 25.5929L251.225 27H252.766V26ZM263.998 0.799998V-0.200002H263.349L263.084 0.392892L263.998 0.799998ZM269.758 0.799998L270.671 0.391804L270.406 -0.200002H269.758V0.799998ZM281.026 26V27H282.568L281.939 25.5918L281.026 26ZM274.906 26L273.982 26.3827L274.238 27H274.906V26ZM265.69 3.752V2.752H264.193L264.766 4.1347L265.69 3.752ZM267.994 3.752L268.917 4.13598L269.493 2.752H267.994V3.752ZM258.742 26V27H259.409L259.665 26.384L258.742 26ZM258.382 20.6L257.438 20.27L256.973 21.6H258.382V20.6ZM259.93 16.172V15.172H259.22L258.986 15.842L259.93 16.172ZM272.89 16.172L273.831 15.8352L273.594 15.172H272.89V16.172ZM274.474 20.6V21.6H275.894L275.415 20.2632L274.474 20.6ZM253.679 26.4071L264.911 1.2071L263.084 0.392892L251.852 25.5929L253.679 26.4071ZM263.998 1.8H269.758V-0.200002H263.998V1.8ZM268.845 1.20819L280.113 26.4082L281.939 25.5918L270.671 0.391804L268.845 1.20819ZM281.026 25H274.906V27H281.026V25ZM275.83 25.6173L266.614 3.3693L264.766 4.1347L273.982 26.3827L275.83 25.6173ZM265.69 4.752H267.994V2.752H265.69V4.752ZM267.07 3.36802L257.819 25.616L259.665 26.384L268.917 4.13598L267.07 3.36802ZM258.742 25H252.766V27H258.742V25ZM259.326 20.93L260.874 16.502L258.986 15.842L257.438 20.27L259.326 20.93ZM259.93 17.172H272.89V15.172H259.93V17.172ZM271.948 16.5088L273.532 20.9368L275.415 20.2632L273.831 15.8352L271.948 16.5088ZM274.474 19.6H258.382V21.6H274.474V19.6ZM283.64 26H282.64V27H283.64V26ZM283.64 0.799998V-0.200002H282.64V0.799998H283.64ZM288.464 0.799998L289.238 0.166176L288.938 -0.200002H288.464V0.799998ZM303.332 18.944V19.944H305.445L304.106 18.3102L303.332 18.944ZM300.992 18.944H299.992V19.944H300.992V18.944ZM300.992 0.799998V-0.200002H299.992V0.799998H300.992ZM306.752 0.799998H307.752V-0.200002H306.752V0.799998ZM306.752 26V27H307.752V26H306.752ZM301.964 26L301.192 26.6347L301.492 27H301.964V26ZM287.06 7.856V6.856H284.945L286.288 8.49074L287.06 7.856ZM289.4 7.856H290.4V6.856H289.4V7.856ZM289.4 26V27H290.4V26H289.4ZM284.64 26V0.799998H282.64V26H284.64ZM283.64 1.8H288.464V-0.200002H283.64V1.8ZM287.691 1.43382L302.559 19.5778L304.106 18.3102L289.238 0.166176L287.691 1.43382ZM303.332 17.944H300.992V19.944H303.332V17.944ZM301.992 18.944V0.799998H299.992V18.944H301.992ZM300.992 1.8H306.752V-0.200002H300.992V1.8ZM305.752 0.799998V26H307.752V0.799998H305.752ZM306.752 25H301.964V27H306.752V25ZM302.737 25.3653L287.833 7.22126L286.288 8.49074L301.192 26.6347L302.737 25.3653ZM287.06 8.856H289.4V6.856H287.06V8.856ZM288.4 7.856V26H290.4V7.856H288.4ZM289.4 25H283.64V27H289.4V25ZM312.715 26H311.715V27H312.715V26ZM312.715 0.799998V-0.200002H311.715V0.799998H312.715ZM318.547 0.799998H319.547V-0.200002H318.547V0.799998ZM318.547 26V27H319.547V26H318.547ZM313.715 26V0.799998H311.715V26H313.715ZM312.715 1.8H318.547V-0.200002H312.715V1.8ZM317.547 0.799998V26H319.547V0.799998H317.547ZM318.547 25H312.715V27H318.547V25ZM322.907 26H321.907V27H322.907V26ZM322.907 22.22L322.137 21.5816L321.907 21.8592V22.22H322.907ZM338.495 3.428L339.442 3.10696L338.868 1.41244L337.725 2.78956L338.495 3.428ZM339.215 5.552V6.552H340.61L340.162 5.23096L339.215 5.552ZM323.195 5.552H322.195V6.552H323.195V5.552ZM323.195 0.799998V-0.200002H322.195V0.799998H323.195ZM344.399 0.799998H345.399V-0.200002H344.399V0.799998ZM344.399 4.58L345.169 5.21757L345.399 4.94013V4.58H344.399ZM328.847 23.372L327.9 23.693L328.475 25.3898L329.617 24.0096L328.847 23.372ZM328.127 21.248V20.248H326.732L327.18 21.569L328.127 21.248ZM344.939 21.248H345.939V20.248H344.939V21.248ZM344.939 26V27H345.939V26H344.939ZM323.907 26V22.22H321.907V26H323.907ZM323.677 22.8584L339.265 4.06644L337.725 2.78956L322.137 21.5816L323.677 22.8584ZM337.548 3.74904L338.268 5.87304L340.162 5.23096L339.442 3.10696L337.548 3.74904ZM339.215 4.552H323.195V6.552H339.215V4.552ZM324.195 5.552V0.799998H322.195V5.552H324.195ZM323.195 1.8H344.399V-0.200002H323.195V1.8ZM343.399 0.799998V4.58H345.399V0.799998H343.399ZM343.629 3.94243L328.077 22.7344L329.617 24.0096L345.169 5.21757L343.629 3.94243ZM329.794 23.051L329.074 20.927L327.18 21.569L327.9 23.693L329.794 23.051ZM328.127 22.248H344.939V20.248H328.127V22.248ZM343.939 21.248V26H345.939V21.248H343.939ZM344.939 25H322.907V27H344.939V25ZM354.043 10.952V9.952H353.043V10.952H354.043ZM366.175 10.952H367.175V9.952H366.175V10.952ZM366.175 15.488V16.488H367.175V15.488H366.175ZM354.043 15.488H353.043V16.488H354.043V15.488ZM354.475 21.32H353.475V22.32H354.475V21.32ZM368.191 21.32H369.191V20.32H368.191V21.32ZM368.191 26V27H369.191V26H368.191ZM348.679 26H347.679V27H348.679V26ZM348.679 0.799998V-0.200002H347.679V0.799998H348.679ZM367.723 0.799998H368.723V-0.200002H367.723V0.799998ZM367.723 5.48V6.48H368.723V5.48H367.723ZM354.475 5.48V4.48H353.475V5.48H354.475ZM354.043 11.952H366.175V9.952H354.043V11.952ZM365.175 10.952V15.488H367.175V10.952H365.175ZM366.175 14.488H354.043V16.488H366.175V14.488ZM355.043 15.488V10.952H353.043V15.488H355.043ZM354.475 22.32H368.191V20.32H354.475V22.32ZM367.191 21.32V26H369.191V21.32H367.191ZM368.191 25H348.679V27H368.191V25ZM349.679 26V0.799998H347.679V26H349.679ZM348.679 1.8H367.723V-0.200002H348.679V1.8ZM366.723 0.799998V5.48H368.723V0.799998H366.723ZM367.723 4.48H354.475V6.48H367.723V4.48ZM353.475 5.48V21.32H355.475V5.48H353.475ZM388.391 10.952V9.952H387.391V10.952H388.391ZM400.523 10.952H401.523V9.952H400.523V10.952ZM400.523 15.488V16.488H401.523V15.488H400.523ZM388.391 15.488H387.391V16.488H388.391V15.488ZM388.823 21.32H387.823V22.32H388.823V21.32ZM402.539 21.32H403.539V20.32H402.539V21.32ZM402.539 26V27H403.539V26H402.539ZM383.027 26H382.027V27H383.027V26ZM383.027 0.799998V-0.200002H382.027V0.799998H383.027ZM402.071 0.799998H403.071V-0.200002H402.071V0.799998ZM402.071 5.48V6.48H403.071V5.48H402.071ZM388.823 5.48V4.48H387.823V5.48H388.823ZM388.391 11.952H400.523V9.952H388.391V11.952ZM399.523 10.952V15.488H401.523V10.952H399.523ZM400.523 14.488H388.391V16.488H400.523V14.488ZM389.391 15.488V10.952H387.391V15.488H389.391ZM388.823 22.32H402.539V20.32H388.823V22.32ZM401.539 21.32V26H403.539V21.32H401.539ZM402.539 25H383.027V27H402.539V25ZM384.027 26V0.799998H382.027V26H384.027ZM383.027 1.8H402.071V-0.200002H383.027V1.8ZM401.071 0.799998V5.48H403.071V0.799998H401.071ZM402.071 4.48H388.823V6.48H402.071V4.48ZM387.823 5.48V21.32H389.823V5.48H387.823ZM414.388 26L413.47 26.3961L413.73 27H414.388V26ZM403.516 0.799998V-0.200002H401.995L402.598 1.19613L403.516 0.799998ZM409.816 0.799998L410.736 0.408229L410.477 -0.200002H409.816V0.799998ZM419.32 23.12V24.12H420.833L420.24 22.7282L419.32 23.12ZM415.612 23.12L414.694 22.7232L414.09 24.12H415.612V23.12ZM425.26 0.799998V-0.200002H424.603L424.342 0.403222L425.26 0.799998ZM431.056 0.799998L431.974 1.19724L432.578 -0.200002H431.056V0.799998ZM420.148 26V27H420.805L421.066 26.3972L420.148 26ZM415.306 25.6039L404.434 0.403864L402.598 1.19613L413.47 26.3961L415.306 25.6039ZM403.516 1.8H409.816V-0.200002H403.516V1.8ZM408.896 1.19177L418.4 23.5118L420.24 22.7282L410.736 0.408229L408.896 1.19177ZM419.32 22.12H415.612V24.12H419.32V22.12ZM416.53 23.5168L426.178 1.19677L424.342 0.403222L414.694 22.7232L416.53 23.5168ZM425.26 1.8H431.056V-0.200002H425.26V1.8ZM430.138 0.402759L419.23 25.6028L421.066 26.3972L431.974 1.19724L430.138 0.402759ZM420.148 25H414.388V27H420.148V25ZM438.524 10.952V9.952H437.524V10.952H438.524ZM450.656 10.952H451.656V9.952H450.656V10.952ZM450.656 15.488V16.488H451.656V15.488H450.656ZM438.524 15.488H437.524V16.488H438.524V15.488ZM438.956 21.32H437.956V22.32H438.956V21.32ZM452.672 21.32H453.672V20.32H452.672V21.32ZM452.672 26V27H453.672V26H452.672ZM433.16 26H432.16V27H433.16V26ZM433.16 0.799998V-0.200002H432.16V0.799998H433.16ZM452.204 0.799998H453.204V-0.200002H452.204V0.799998ZM452.204 5.48V6.48H453.204V5.48H452.204ZM438.956 5.48V4.48H437.956V5.48H438.956ZM438.524 11.952H450.656V9.952H438.524V11.952ZM449.656 10.952V15.488H451.656V10.952H449.656ZM450.656 14.488H438.524V16.488H450.656V14.488ZM439.524 15.488V10.952H437.524V15.488H439.524ZM438.956 22.32H452.672V20.32H438.956V22.32ZM451.672 21.32V26H453.672V21.32H451.672ZM452.672 25H433.16V27H452.672V25ZM434.16 26V0.799998H432.16V26H434.16ZM433.16 1.8H452.204V-0.200002H433.16V1.8ZM451.204 0.799998V5.48H453.204V0.799998H451.204ZM452.204 4.48H438.956V6.48H452.204V4.48ZM437.956 5.48V21.32H439.956V5.48H437.956ZM457.312 26H456.312V27H457.312V26ZM457.312 0.799998V-0.200002H456.312V0.799998H457.312ZM474.052 1.916L473.637 2.82597L473.649 2.83092L474.052 1.916ZM477.832 5.048L476.993 5.59247L477.832 5.048ZM477.832 14.804L478.667 15.3553L478.671 15.3485L477.832 14.804ZM474.052 17.9L474.456 18.8149L474.052 17.9ZM460.552 18.98L459.85 18.268L458.114 19.98H460.552V18.98ZM463.144 16.424H464.144V14.0335L462.442 15.712L463.144 16.424ZM463.144 26V27H464.144V26H463.144ZM473.332 26L472.509 26.5674L472.807 27H473.332V26ZM467.032 16.856V15.856H465.129L466.209 17.4234L467.032 16.856ZM473.26 16.856L474.081 16.2843L473.782 15.856H473.26V16.856ZM479.632 26V27H481.548L480.453 25.4283L479.632 26ZM463.144 17.072L462.418 17.7597L464.144 19.5816V17.072H463.144ZM460.552 14.336V13.336H458.227L459.826 15.0237L460.552 14.336ZM471.928 13.184L472.582 13.9404L472.588 13.9354L472.594 13.9303L471.928 13.184ZM460.552 5.552L459.822 4.86901L458.248 6.552H460.552V5.552ZM463.144 2.78H464.144V0.246411L462.414 2.097L463.144 2.78ZM458.312 26V0.799998H456.312V26H458.312ZM457.312 1.8H468.22V-0.200002H457.312V1.8ZM468.22 1.8C470.369 1.8 472.165 2.15451 473.637 2.82591L474.467 1.00609C472.676 0.18949 470.584 -0.200002 468.22 -0.200002V1.8ZM473.649 2.83092C475.12 3.48005 476.221 4.40287 476.993 5.59247L478.671 4.50353C477.667 2.95712 476.248 1.79195 474.456 1.00108L473.649 2.83092ZM476.993 5.59247C477.76 6.7734 478.164 8.20916 478.164 9.944H480.164C480.164 7.88684 479.68 6.0586 478.671 4.50353L476.993 5.59247ZM478.164 9.944C478.164 11.652 477.761 13.0766 476.993 14.2595L478.671 15.3485C479.679 13.7954 480.164 11.98 480.164 9.944H478.164ZM476.998 14.2527C476.227 15.4198 475.125 16.3339 473.649 16.9851L474.456 18.8149C476.244 18.0261 477.662 16.8762 478.667 15.3553L476.998 14.2527ZM473.649 16.9851C472.173 17.6362 470.373 17.98 468.22 17.98V19.98C470.58 19.98 472.668 19.6038 474.456 18.8149L473.649 16.9851ZM468.22 17.98H460.552V19.98H468.22V17.98ZM461.254 19.692L463.846 17.136L462.442 15.712L459.85 18.268L461.254 19.692ZM462.144 16.424V26H464.144V16.424H462.144ZM463.144 25H457.312V27H463.144V25ZM474.156 25.4326L467.856 16.2886L466.209 17.4234L472.509 26.5674L474.156 25.4326ZM467.032 17.856H473.26V15.856H467.032V17.856ZM472.44 17.4277L478.812 26.5717L480.453 25.4283L474.081 16.2843L472.44 17.4277ZM479.632 25H473.332V27H479.632V25ZM463.87 16.3843L461.278 13.6483L459.826 15.0237L462.418 17.7597L463.87 16.3843ZM460.552 15.336H467.896V13.336H460.552V15.336ZM467.896 15.336C469.814 15.336 471.437 14.9306 472.582 13.9404L471.274 12.4276C470.643 12.9734 469.579 13.336 467.896 13.336V15.336ZM472.594 13.9303C473.727 12.9193 474.26 11.5499 474.26 9.944H472.26C472.26 11.0741 471.905 11.8647 471.263 12.4377L472.594 13.9303ZM474.26 9.944C474.26 8.32094 473.731 6.94123 472.582 5.94764L471.274 7.46036C471.901 8.00277 472.26 8.78306 472.26 9.944H474.26ZM472.582 5.94764C471.437 4.95739 469.814 4.552 467.896 4.552V6.552C469.579 6.552 470.643 6.91461 471.274 7.46036L472.582 5.94764ZM467.896 4.552H460.552V6.552H467.896V4.552ZM461.283 6.23499L463.875 3.46299L462.414 2.097L459.822 4.86901L461.283 6.23499ZM462.144 2.78V17.072H464.144V2.78H462.144ZM489.697 26H488.697V27H489.697V26ZM489.697 15.704L490.633 15.3508L488.697 15.704H489.697ZM491.029 19.232L490.172 19.7475L491.965 18.8788L491.029 19.232ZM479.941 0.799998V-0.200002H478.173L479.084 1.31548L479.941 0.799998ZM486.133 0.799998L486.991 0.285182L486.699 -0.200002H486.133V0.799998ZM494.629 14.948V15.948H496.396L495.487 14.4332L494.629 14.948ZM491.065 14.948L490.209 14.4316L489.294 15.948H491.065V14.948ZM499.597 0.799998V-0.200002H499.033L498.741 0.283581L499.597 0.799998ZM505.321 0.799998L506.178 1.31548L507.09 -0.200002H505.321V0.799998ZM494.233 19.232L493.295 18.8872L495.09 19.7475L494.233 19.232ZM495.529 15.704H496.529L494.591 15.3592L495.529 15.704ZM495.529 26V27H496.529V26H495.529ZM490.697 26V15.704H488.697V26H490.697ZM488.762 16.0572L490.094 19.5852L491.965 18.8788L490.633 15.3508L488.762 16.0572ZM491.886 18.7165L480.798 0.284518L479.084 1.31548L490.172 19.7475L491.886 18.7165ZM479.941 1.8H486.133V-0.200002H479.941V1.8ZM485.276 1.31481L493.772 15.4628L495.487 14.4332L486.991 0.285182L485.276 1.31481ZM494.629 13.948H491.065V15.948H494.629V13.948ZM491.922 15.4644L500.454 1.31642L498.741 0.283581L490.209 14.4316L491.922 15.4644ZM499.597 1.8H505.321V-0.200002H499.597V1.8ZM504.464 0.284518L493.376 18.7165L495.09 19.7475L506.178 1.31548L504.464 0.284518ZM495.172 19.5768L496.468 16.0488L494.591 15.3592L493.295 18.8872L495.172 19.5768ZM494.529 15.704V26H496.529V15.704H494.529ZM495.529 25H489.697V27H495.529V25ZM512.489 26H511.489V27H512.489V26ZM512.489 5.552H513.489V4.552H512.489V5.552ZM504.425 5.552H503.425V6.552H504.425V5.552ZM504.425 0.799998V-0.200002H503.425V0.799998H504.425ZM526.385 0.799998H527.385V-0.200002H526.385V0.799998ZM526.385 5.552V6.552H527.385V5.552H526.385ZM518.321 5.552V4.552H517.321V5.552H518.321ZM518.321 26V27H519.321V26H518.321ZM513.489 26V5.552H511.489V26H513.489ZM512.489 4.552H504.425V6.552H512.489V4.552ZM505.425 5.552V0.799998H503.425V5.552H505.425ZM504.425 1.8H526.385V-0.200002H504.425V1.8ZM525.385 0.799998V5.552H527.385V0.799998H525.385ZM526.385 4.552H518.321V6.552H526.385V4.552ZM517.321 5.552V26H519.321V5.552H517.321ZM518.321 25H512.489V27H518.321V25ZM546.803 0.799998V-0.200002H545.803V0.799998H546.803ZM552.635 0.799998H553.635V-0.200002H552.635V0.799998ZM552.635 26V27H553.635V26H552.635ZM546.803 26H545.803V27H546.803V26ZM535.355 26V27H536.355V26H535.355ZM529.523 26H528.523V27H529.523V26ZM529.523 0.799998V-0.200002H528.523V0.799998H529.523ZM535.355 0.799998H536.355V-0.200002H535.355V0.799998ZM547.235 15.668V16.668H548.235V15.668H547.235ZM534.923 15.668H533.923V16.668H534.923V15.668ZM534.923 10.736V9.736H533.923V10.736H534.923ZM547.235 10.736H548.235V9.736H547.235V10.736ZM546.803 1.8H552.635V-0.200002H546.803V1.8ZM551.635 0.799998V26H553.635V0.799998H551.635ZM552.635 25H546.803V27H552.635V25ZM547.803 26V0.799998H545.803V26H547.803ZM535.355 25H529.523V27H535.355V25ZM530.523 26V0.799998H528.523V26H530.523ZM529.523 1.8H535.355V-0.200002H529.523V1.8ZM534.355 0.799998V26H536.355V0.799998H534.355ZM547.235 14.668H534.923V16.668H547.235V14.668ZM535.923 15.668V10.736H533.923V15.668H535.923ZM534.923 11.736H547.235V9.736H534.923V11.736ZM546.235 10.736V15.668H548.235V10.736H546.235ZM558.597 26H557.597V27H558.597V26ZM558.597 0.799998V-0.200002H557.597V0.799998H558.597ZM564.429 0.799998H565.429V-0.200002H564.429V0.799998ZM564.429 26V27H565.429V26H564.429ZM559.597 26V0.799998H557.597V26H559.597ZM558.597 1.8H564.429V-0.200002H558.597V1.8ZM563.429 0.799998V26H565.429V0.799998H563.429ZM564.429 25H558.597V27H564.429V25ZM570.41 26H569.41V27H570.41V26ZM570.41 0.799998V-0.200002H569.41V0.799998H570.41ZM575.234 0.799998L576.007 0.166176L575.707 -0.200002H575.234V0.799998ZM590.102 18.944V19.944H592.214L590.875 18.3102L590.102 18.944ZM587.762 18.944H586.762V19.944H587.762V18.944ZM587.762 0.799998V-0.200002H586.762V0.799998H587.762ZM593.522 0.799998H594.522V-0.200002H593.522V0.799998ZM593.522 26V27H594.522V26H593.522ZM588.734 26L587.961 26.6347L588.261 27H588.734V26ZM573.83 7.856V6.856H571.714L573.057 8.49074L573.83 7.856ZM576.17 7.856H577.17V6.856H576.17V7.856ZM576.17 26V27H577.17V26H576.17ZM571.41 26V0.799998H569.41V26H571.41ZM570.41 1.8H575.234V-0.200002H570.41V1.8ZM574.46 1.43382L589.328 19.5778L590.875 18.3102L576.007 0.166176L574.46 1.43382ZM590.102 17.944H587.762V19.944H590.102V17.944ZM588.762 18.944V0.799998H586.762V18.944H588.762ZM587.762 1.8H593.522V-0.200002H587.762V1.8ZM592.522 0.799998V26H594.522V0.799998H592.522ZM593.522 25H588.734V27H593.522V25ZM589.507 25.3653L574.603 7.22126L573.057 8.49074L587.961 26.6347L589.507 25.3653ZM573.83 8.856H576.17V6.856H573.83V8.856ZM575.17 7.856V26H577.17V7.856H575.17ZM576.17 25H570.41V27H576.17V25ZM606.144 25.496L605.78 26.4272L605.788 26.4304L605.796 26.4334L606.144 25.496ZM601.788 22.76L601.095 23.4811L601.102 23.4878L601.788 22.76ZM598.908 18.62L597.987 19.0106L597.993 19.0223L598.908 18.62ZM598.908 8.18L597.992 7.77769L597.987 7.78945L598.908 8.18ZM601.824 4.04L602.51 4.76779V4.76779L601.824 4.04ZM606.216 1.34L606.564 2.2775L606.576 2.273L606.216 1.34ZM617.772 1.484L617.386 2.40635L617.39 2.40816L617.772 1.484ZM622.308 4.724L622.986 5.4588L623.698 4.8023L623.065 4.07005L622.308 4.724ZM618.564 8.18L617.839 8.86875L618.518 9.58342L619.242 8.9148L618.564 8.18ZM615.576 6.056L615.17 6.96981L615.179 6.97361L615.187 6.97725L615.576 6.056ZM606.072 7.568L605.377 6.8494L605.371 6.8551L605.365 6.86089L606.072 7.568ZM604.38 10.124L603.456 9.74098L603.452 9.75068L603.448 9.76046L604.38 10.124ZM604.38 16.64L603.448 17.0035L603.452 17.0133L603.456 17.023L604.38 16.64ZM606.072 19.232L605.354 19.9274L605.365 19.9392L605.377 19.9506L606.072 19.232ZM608.664 20.888L608.301 21.8196L608.308 21.8225L608.664 20.888ZM615.324 20.924L615.64 21.8728L615.653 21.8685L615.324 20.924ZM618.528 19.016L619.314 18.3979L618.668 17.5763L617.876 18.258L618.528 19.016ZM621.84 23.228L622.442 24.0263L623.257 23.4119L622.626 22.6099L621.84 23.228ZM617.052 25.604L616.762 24.6469L616.759 24.6479L617.052 25.604ZM616.512 22.472H615.512V23.3401L616.372 23.4621L616.512 22.472ZM616.512 13.004V12.004H615.512V13.004H616.512ZM621.84 13.004H622.84V12.004H621.84V13.004ZM621.84 23.228L621.7 24.2181L622.84 24.3799V23.228H621.84ZM611.652 25.432C609.766 25.432 608.049 25.1368 606.492 24.5586L605.796 26.4334C607.599 27.1032 609.554 27.432 611.652 27.432V25.432ZM606.508 24.5648C604.967 23.9616 603.625 23.1172 602.474 22.0322L601.102 23.4878C602.447 24.7548 604.009 25.7344 605.78 26.4272L606.508 24.5648ZM602.481 22.0389C601.353 20.9554 600.468 19.6843 599.824 18.2177L597.993 19.0223C598.74 20.7237 599.775 22.2127 601.095 23.4811L602.481 22.0389ZM599.829 18.2295C599.214 16.781 598.9 15.1755 598.9 13.4H596.9C596.9 15.4165 597.258 17.291 597.987 19.0105L599.829 18.2295ZM598.9 13.4C598.9 11.6245 599.214 10.019 599.829 8.57055L597.987 7.78945C597.258 9.50904 596.9 11.3835 596.9 13.4H598.9ZM599.824 8.58227C600.466 7.11995 601.36 5.85094 602.51 4.76779L601.138 3.31221C599.792 4.58105 598.742 6.07204 597.993 7.77773L599.824 8.58227ZM602.51 4.76779C603.656 3.68768 605.004 2.85698 606.564 2.27742L605.868 0.402573C604.068 1.07102 602.488 2.04032 601.138 3.31221L602.51 4.76779ZM606.576 2.273C608.128 1.67427 609.852 1.368 611.76 1.368V-0.632C609.636 -0.632 607.664 -0.29027 605.856 0.406996L606.576 2.273ZM611.76 1.368C613.88 1.368 615.75 1.7211 617.386 2.40634L618.159 0.56166C616.242 -0.241098 614.104 -0.632 611.76 -0.632V1.368ZM617.39 2.40816C619.052 3.09505 620.434 4.08486 621.552 5.37795L623.065 4.07005C621.734 2.53114 620.092 1.36095 618.154 0.559832L617.39 2.40816ZM621.63 3.9892L617.886 7.4452L619.242 8.9148L622.986 5.4588L621.63 3.9892ZM619.289 7.49125C618.295 6.44436 617.187 5.65081 615.965 5.13475L615.187 6.97725C616.125 7.37318 617.01 7.99564 617.839 8.86875L619.289 7.49125ZM615.982 5.14219C614.765 4.60113 613.449 4.336 612.048 4.336V6.336C613.191 6.336 614.227 6.55087 615.17 6.96981L615.982 5.14219ZM612.048 4.336C610.719 4.336 609.48 4.54477 608.344 4.97751L609.056 6.84649C609.936 6.51123 610.93 6.336 612.048 6.336V4.336ZM608.344 4.97751C607.215 5.40768 606.222 6.03124 605.377 6.8494L606.768 8.2866C607.41 7.66475 608.169 7.18432 609.056 6.84649L608.344 4.97751ZM605.365 6.86089C604.548 7.67793 603.912 8.64148 603.456 9.74098L605.304 10.507C605.664 9.63852 606.156 8.89807 606.779 8.27511L605.365 6.86089ZM603.448 9.76046C603.014 10.875 602.804 12.0924 602.804 13.4H604.804C604.804 12.3076 604.979 11.341 605.312 10.4875L603.448 9.76046ZM602.804 13.4C602.804 14.6863 603.014 15.8913 603.448 17.0035L605.312 16.2765C604.978 15.4207 604.804 14.4657 604.804 13.4H602.804ZM603.456 17.023C603.911 18.1197 604.544 19.0905 605.354 19.9274L606.791 18.5366C606.161 17.8855 605.665 17.1283 605.304 16.257L603.456 17.023ZM605.377 19.9506C606.218 20.7648 607.195 21.3883 608.301 21.8196L609.028 19.9564C608.165 19.6197 607.414 19.1392 606.768 18.5134L605.377 19.9506ZM608.308 21.8225C609.442 22.2544 610.668 22.464 611.976 22.464V20.464C610.884 20.464 609.902 20.2896 609.02 19.9535L608.308 21.8225ZM611.976 22.464C613.234 22.464 614.457 22.2671 615.64 21.8727L615.008 19.9753C614.031 20.3009 613.022 20.464 611.976 20.464V22.464ZM615.653 21.8685C616.893 21.437 618.069 20.7307 619.18 19.774L617.876 18.258C616.924 19.0773 615.963 19.643 614.996 19.9795L615.653 21.8685ZM617.742 19.6341L621.054 23.8461L622.626 22.6099L619.314 18.3979L617.742 19.6341ZM621.238 22.4297C619.974 23.3832 618.486 24.1252 616.762 24.6469L617.342 26.5611C619.266 25.9788 620.97 25.1368 622.442 24.0263L621.238 22.4297ZM616.759 24.6479C615.049 25.1722 613.348 25.432 611.652 25.432V27.432C613.556 27.432 615.455 27.1398 617.345 26.5601L616.759 24.6479ZM617.512 22.472V13.004H615.512V22.472H617.512ZM616.512 14.004H621.84V12.004H616.512V14.004ZM620.84 13.004V23.228H622.84V13.004H620.84ZM621.981 22.2379L616.653 21.4819L616.372 23.4621L621.7 24.2181L621.981 22.2379Z" fill="#333333" mask="url(#path-1-outside-1_1_194)"/>
</svg>
