<svg width="246" height="55" viewBox="0 0 246 55" fill="none" xmlns="http://www.w3.org/2000/svg">
<mask id="path-1-outside-1_1_553" maskUnits="userSpaceOnUse" x="-1" y="-1" width="248" height="57" fill="black">
<rect fill="white" x="-1" y="-1" width="248" height="57"/>
<path d="M6.024 18L0.528 1.2H4.56L9.336 16.08H7.32L12.312 1.2H15.912L20.712 16.08H18.768L23.664 1.2H27.384L21.888 18H17.712L13.464 4.944H14.568L10.2 18H6.024ZM33.1305 7.968H41.2185V10.992H33.1305V7.968ZM33.4185 14.88H42.5625V18H29.5545V1.2H42.2505V4.32H33.4185V14.88Z"/>
<path d="M60.4929 18.288C59.1969 18.288 57.9889 18.08 56.8689 17.664C55.7649 17.232 54.8049 16.624 53.9889 15.84C53.1729 15.056 52.5329 14.136 52.0689 13.08C51.6209 12.024 51.3969 10.864 51.3969 9.6C51.3969 8.336 51.6209 7.176 52.0689 6.12C52.5329 5.064 53.1729 4.144 53.9889 3.36C54.8209 2.576 55.7889 1.976 56.8929 1.56C57.9969 1.128 59.2049 0.912 60.5169 0.912C61.9729 0.912 63.2849 1.168 64.4529 1.68C65.6369 2.176 66.6289 2.912 67.4289 3.888L64.9329 6.192C64.3569 5.536 63.7169 5.048 63.0129 4.728C62.3089 4.392 61.5409 4.224 60.7089 4.224C59.9249 4.224 59.2049 4.352 58.5489 4.608C57.8929 4.864 57.3249 5.232 56.8449 5.712C56.3649 6.192 55.9889 6.76 55.7169 7.416C55.4609 8.072 55.3329 8.8 55.3329 9.6C55.3329 10.4 55.4609 11.128 55.7169 11.784C55.9889 12.44 56.3649 13.008 56.8449 13.488C57.3249 13.968 57.8929 14.336 58.5489 14.592C59.2049 14.848 59.9249 14.976 60.7089 14.976C61.5409 14.976 62.3089 14.816 63.0129 14.496C63.7169 14.16 64.3569 13.656 64.9329 12.984L67.4289 15.288C66.6289 16.264 65.6369 17.008 64.4529 17.52C63.2849 18.032 61.9649 18.288 60.4929 18.288ZM67.5418 18L75.0298 1.2H78.8698L86.3818 18H82.3018L76.1578 3.168H77.6938L71.5258 18H67.5418ZM71.2858 14.4L72.3178 11.448H80.9578L82.0138 14.4H71.2858ZM88.1248 18V1.2H91.3408L101.253 13.296H99.6928V1.2H103.533V18H100.341L90.4048 5.904H91.9648V18H88.1248ZM122.465 18.288C121.137 18.288 119.905 18.072 118.769 17.64C117.649 17.208 116.673 16.6 115.84 15.816C115.025 15.032 114.385 14.112 113.921 13.056C113.473 12 113.249 10.848 113.249 9.6C113.249 8.352 113.473 7.2 113.921 6.144C114.385 5.088 115.033 4.168 115.865 3.384C116.697 2.6 117.673 1.992 118.793 1.56C119.913 1.128 121.129 0.912 122.441 0.912C123.769 0.912 124.984 1.128 126.089 1.56C127.209 1.992 128.177 2.6 128.993 3.384C129.825 4.168 130.473 5.088 130.937 6.144C131.401 7.184 131.633 8.336 131.633 9.6C131.633 10.848 131.401 12.008 130.937 13.08C130.473 14.136 129.825 15.056 128.993 15.84C128.177 16.608 127.209 17.208 126.089 17.64C124.984 18.072 123.776 18.288 122.465 18.288ZM122.441 14.976C123.193 14.976 123.881 14.848 124.505 14.592C125.145 14.336 125.705 13.968 126.185 13.488C126.665 13.008 127.033 12.44 127.289 11.784C127.561 11.128 127.697 10.4 127.697 9.6C127.697 8.8 127.561 8.072 127.289 7.416C127.033 6.76 126.665 6.192 126.185 5.712C125.721 5.232 125.169 4.864 124.529 4.608C123.889 4.352 123.193 4.224 122.441 4.224C121.689 4.224 120.993 4.352 120.353 4.608C119.729 4.864 119.177 5.232 118.697 5.712C118.217 6.192 117.841 6.76 117.569 7.416C117.313 8.072 117.185 8.8 117.185 9.6C117.185 10.384 117.313 11.112 117.569 11.784C117.841 12.44 118.209 13.008 118.673 13.488C119.153 13.968 119.713 14.336 120.353 14.592C120.993 14.848 121.689 14.976 122.441 14.976ZM134.555 18V1.2H141.827C143.331 1.2 144.627 1.448 145.715 1.944C146.803 2.424 147.643 3.12 148.235 4.032C148.827 4.944 149.123 6.032 149.123 7.296C149.123 8.544 148.827 9.624 148.235 10.536C147.643 11.432 146.803 12.12 145.715 12.6C144.627 13.08 143.331 13.32 141.827 13.32H136.715L138.443 11.616V18H134.555ZM145.234 18L141.035 11.904H145.187L149.435 18H145.234ZM138.443 12.048L136.715 10.224H141.611C142.811 10.224 143.707 9.968 144.299 9.456C144.891 8.928 145.187 8.208 145.187 7.296C145.187 6.368 144.891 5.648 144.299 5.136C143.707 4.624 142.811 4.368 141.611 4.368H136.715L138.443 2.52V12.048ZM160.315 18.288C158.987 18.288 157.763 18.08 156.643 17.664C155.539 17.232 154.571 16.624 153.739 15.84C152.923 15.056 152.283 14.136 151.819 13.08C151.371 12.024 151.147 10.864 151.147 9.6C151.147 8.336 151.371 7.176 151.819 6.12C152.283 5.064 152.931 4.144 153.763 3.36C154.595 2.576 155.571 1.976 156.691 1.56C157.811 1.128 159.043 0.912 160.387 0.912C161.875 0.912 163.211 1.16 164.395 1.656C165.595 2.152 166.603 2.872 167.419 3.816L164.923 6.12C164.315 5.48 163.651 5.008 162.931 4.704C162.211 4.384 161.427 4.224 160.579 4.224C159.763 4.224 159.019 4.352 158.347 4.608C157.675 4.864 157.091 5.232 156.595 5.712C156.115 6.192 155.739 6.76 155.467 7.416C155.211 8.072 155.083 8.8 155.083 9.6C155.083 10.384 155.211 11.104 155.467 11.76C155.739 12.416 156.115 12.992 156.595 13.488C157.091 13.968 157.667 14.336 158.323 14.592C158.995 14.848 159.731 14.976 160.531 14.976C161.299 14.976 162.043 14.856 162.763 14.616C163.499 14.36 164.211 13.936 164.899 13.344L167.107 16.152C166.195 16.84 165.131 17.368 163.915 17.736C162.715 18.104 161.515 18.288 160.315 18.288ZM163.555 15.648V9.336H167.107V16.152L163.555 15.648ZM168.511 18L175.999 1.2H179.839L187.351 18H183.271L177.127 3.168H178.663L172.495 18H168.511ZM172.255 14.4L173.287 11.448H181.927L182.983 14.4H172.255ZM189.094 18V1.2H192.31L202.222 13.296H200.662V1.2H204.502V18H201.31L191.374 5.904H192.934V18H189.094ZM208.476 18V1.2H212.364V18H208.476ZM215.271 18V15.48L225.663 2.952L226.143 4.368H215.463V1.2H229.599V3.72L219.231 16.248L218.751 14.832H229.959V18H215.271ZM236.029 7.968H244.117V10.992H236.029V7.968ZM236.317 14.88H245.461V18H232.453V1.2H245.149V4.32H236.317V14.88ZM5.568 43.968H13.656V46.992H5.568V43.968ZM5.856 50.88H15V54H1.992V37.2H14.688V40.32H5.856V50.88ZM22.8992 54L15.6512 37.2H19.8512L26.1872 52.08H23.7152L30.1472 37.2H34.0112L26.7392 54H22.8992ZM38.9899 43.968H47.0779V46.992H38.9899V43.968ZM39.2779 50.88H48.4219V54H35.4139V37.2H48.1099V40.32H39.2779V50.88ZM51.5154 54V37.2H58.7874C60.2914 37.2 61.5874 37.448 62.6754 37.944C63.7634 38.424 64.6034 39.12 65.1954 40.032C65.7874 40.944 66.0834 42.032 66.0834 43.296C66.0834 44.544 65.7874 45.624 65.1954 46.536C64.6034 47.432 63.7634 48.12 62.6754 48.6C61.5874 49.08 60.2914 49.32 58.7874 49.32H53.6754L55.4034 47.616V54H51.5154ZM62.1954 54L57.9954 47.904H62.1474L66.3954 54H62.1954ZM55.4034 48.048L53.6754 46.224H58.5714C59.7714 46.224 60.6674 45.968 61.2594 45.456C61.8514 44.928 62.1474 44.208 62.1474 43.296C62.1474 42.368 61.8514 41.648 61.2594 41.136C60.6674 40.624 59.7714 40.368 58.5714 40.368H53.6754L55.4034 38.52V48.048ZM73.1055 54V47.136L73.9935 49.488L66.6015 37.2H70.7295L76.3935 46.632H74.0175L79.7055 37.2H83.5215L76.1295 49.488L76.9935 47.136V54H73.1055ZM88.3001 54V40.368H82.9241V37.2H97.5641V40.368H92.1881V54H88.3001ZM111.176 37.2H115.064V54H111.176V37.2ZM103.544 54H99.6561V37.2H103.544V54ZM111.464 47.112H103.256V43.824H111.464V47.112ZM119.039 54V37.2H122.927V54H119.039ZM126.914 54V37.2H130.13L140.042 49.296H138.482V37.2H142.322V54H139.13L129.194 41.904H130.754V54H126.914ZM154.409 54.288C153.081 54.288 151.857 54.08 150.737 53.664C149.633 53.232 148.665 52.624 147.833 51.84C147.017 51.056 146.377 50.136 145.913 49.08C145.465 48.024 145.241 46.864 145.241 45.6C145.241 44.336 145.465 43.176 145.913 42.12C146.377 41.064 147.025 40.144 147.857 39.36C148.689 38.576 149.665 37.976 150.785 37.56C151.905 37.128 153.137 36.912 154.481 36.912C155.969 36.912 157.305 37.16 158.489 37.656C159.689 38.152 160.697 38.872 161.513 39.816L159.017 42.12C158.409 41.48 157.745 41.008 157.025 40.704C156.305 40.384 155.521 40.224 154.673 40.224C153.857 40.224 153.113 40.352 152.441 40.608C151.769 40.864 151.185 41.232 150.689 41.712C150.209 42.192 149.833 42.76 149.561 43.416C149.305 44.072 149.177 44.8 149.177 45.6C149.177 46.384 149.305 47.104 149.561 47.76C149.833 48.416 150.209 48.992 150.689 49.488C151.185 49.968 151.761 50.336 152.417 50.592C153.089 50.848 153.825 50.976 154.625 50.976C155.393 50.976 156.137 50.856 156.857 50.616C157.593 50.36 158.305 49.936 158.993 49.344L161.201 52.152C160.289 52.84 159.225 53.368 158.009 53.736C156.809 54.104 155.609 54.288 154.409 54.288ZM157.649 51.648V45.336H161.201V52.152L157.649 51.648Z"/>
</mask>
<path d="M60.4929 18.288C59.1969 18.288 57.9889 18.08 56.8689 17.664C55.7649 17.232 54.8049 16.624 53.9889 15.84C53.1729 15.056 52.5329 14.136 52.0689 13.08C51.6209 12.024 51.3969 10.864 51.3969 9.6C51.3969 8.336 51.6209 7.176 52.0689 6.12C52.5329 5.064 53.1729 4.144 53.9889 3.36C54.8209 2.576 55.7889 1.976 56.8929 1.56C57.9969 1.128 59.2049 0.912 60.5169 0.912C61.9729 0.912 63.2849 1.168 64.4529 1.68C65.6369 2.176 66.6289 2.912 67.4289 3.888L64.9329 6.192C64.3569 5.536 63.7169 5.048 63.0129 4.728C62.3089 4.392 61.5409 4.224 60.7089 4.224C59.9249 4.224 59.2049 4.352 58.5489 4.608C57.8929 4.864 57.3249 5.232 56.8449 5.712C56.3649 6.192 55.9889 6.76 55.7169 7.416C55.4609 8.072 55.3329 8.8 55.3329 9.6C55.3329 10.4 55.4609 11.128 55.7169 11.784C55.9889 12.44 56.3649 13.008 56.8449 13.488C57.3249 13.968 57.8929 14.336 58.5489 14.592C59.2049 14.848 59.9249 14.976 60.7089 14.976C61.5409 14.976 62.3089 14.816 63.0129 14.496C63.7169 14.16 64.3569 13.656 64.9329 12.984L67.4289 15.288C66.6289 16.264 65.6369 17.008 64.4529 17.52C63.2849 18.032 61.9649 18.288 60.4929 18.288ZM67.5418 18L75.0298 1.2H78.8698L86.3818 18H82.3018L76.1578 3.168H77.6938L71.5258 18H67.5418ZM71.2858 14.4L72.3178 11.448H80.9578L82.0138 14.4H71.2858ZM88.1248 18V1.2H91.3408L101.253 13.296H99.6928V1.2H103.533V18H100.341L90.4048 5.904H91.9648V18H88.1248ZM122.465 18.288C121.137 18.288 119.905 18.072 118.769 17.64C117.649 17.208 116.673 16.6 115.84 15.816C115.025 15.032 114.385 14.112 113.921 13.056C113.473 12 113.249 10.848 113.249 9.6C113.249 8.352 113.473 7.2 113.921 6.144C114.385 5.088 115.033 4.168 115.865 3.384C116.697 2.6 117.673 1.992 118.793 1.56C119.913 1.128 121.129 0.912 122.441 0.912C123.769 0.912 124.984 1.128 126.089 1.56C127.209 1.992 128.177 2.6 128.993 3.384C129.825 4.168 130.473 5.088 130.937 6.144C131.401 7.184 131.633 8.336 131.633 9.6C131.633 10.848 131.401 12.008 130.937 13.08C130.473 14.136 129.825 15.056 128.993 15.84C128.177 16.608 127.209 17.208 126.089 17.64C124.984 18.072 123.776 18.288 122.465 18.288ZM122.441 14.976C123.193 14.976 123.881 14.848 124.505 14.592C125.145 14.336 125.705 13.968 126.185 13.488C126.665 13.008 127.033 12.44 127.289 11.784C127.561 11.128 127.697 10.4 127.697 9.6C127.697 8.8 127.561 8.072 127.289 7.416C127.033 6.76 126.665 6.192 126.185 5.712C125.721 5.232 125.169 4.864 124.529 4.608C123.889 4.352 123.193 4.224 122.441 4.224C121.689 4.224 120.993 4.352 120.353 4.608C119.729 4.864 119.177 5.232 118.697 5.712C118.217 6.192 117.841 6.76 117.569 7.416C117.313 8.072 117.185 8.8 117.185 9.6C117.185 10.384 117.313 11.112 117.569 11.784C117.841 12.44 118.209 13.008 118.673 13.488C119.153 13.968 119.713 14.336 120.353 14.592C120.993 14.848 121.689 14.976 122.441 14.976ZM134.555 18V1.2H141.827C143.331 1.2 144.627 1.448 145.715 1.944C146.803 2.424 147.643 3.12 148.235 4.032C148.827 4.944 149.123 6.032 149.123 7.296C149.123 8.544 148.827 9.624 148.235 10.536C147.643 11.432 146.803 12.12 145.715 12.6C144.627 13.08 143.331 13.32 141.827 13.32H136.715L138.443 11.616V18H134.555ZM145.234 18L141.035 11.904H145.187L149.435 18H145.234ZM138.443 12.048L136.715 10.224H141.611C142.811 10.224 143.707 9.968 144.299 9.456C144.891 8.928 145.187 8.208 145.187 7.296C145.187 6.368 144.891 5.648 144.299 5.136C143.707 4.624 142.811 4.368 141.611 4.368H136.715L138.443 2.52V12.048ZM160.315 18.288C158.987 18.288 157.763 18.08 156.643 17.664C155.539 17.232 154.571 16.624 153.739 15.84C152.923 15.056 152.283 14.136 151.819 13.08C151.371 12.024 151.147 10.864 151.147 9.6C151.147 8.336 151.371 7.176 151.819 6.12C152.283 5.064 152.931 4.144 153.763 3.36C154.595 2.576 155.571 1.976 156.691 1.56C157.811 1.128 159.043 0.912 160.387 0.912C161.875 0.912 163.211 1.16 164.395 1.656C165.595 2.152 166.603 2.872 167.419 3.816L164.923 6.12C164.315 5.48 163.651 5.008 162.931 4.704C162.211 4.384 161.427 4.224 160.579 4.224C159.763 4.224 159.019 4.352 158.347 4.608C157.675 4.864 157.091 5.232 156.595 5.712C156.115 6.192 155.739 6.76 155.467 7.416C155.211 8.072 155.083 8.8 155.083 9.6C155.083 10.384 155.211 11.104 155.467 11.76C155.739 12.416 156.115 12.992 156.595 13.488C157.091 13.968 157.667 14.336 158.323 14.592C158.995 14.848 159.731 14.976 160.531 14.976C161.299 14.976 162.043 14.856 162.763 14.616C163.499 14.36 164.211 13.936 164.899 13.344L167.107 16.152C166.195 16.84 165.131 17.368 163.915 17.736C162.715 18.104 161.515 18.288 160.315 18.288ZM163.555 15.648V9.336H167.107V16.152L163.555 15.648ZM168.511 18L175.999 1.2H179.839L187.351 18H183.271L177.127 3.168H178.663L172.495 18H168.511ZM172.255 14.4L173.287 11.448H181.927L182.983 14.4H172.255ZM189.094 18V1.2H192.31L202.222 13.296H200.662V1.2H204.502V18H201.31L191.374 5.904H192.934V18H189.094ZM208.476 18V1.2H212.364V18H208.476ZM215.271 18V15.48L225.663 2.952L226.143 4.368H215.463V1.2H229.599V3.72L219.231 16.248L218.751 14.832H229.959V18H215.271ZM236.029 7.968H244.117V10.992H236.029V7.968ZM236.317 14.88H245.461V18H232.453V1.2H245.149V4.32H236.317V14.88ZM5.568 43.968H13.656V46.992H5.568V43.968ZM5.856 50.88H15V54H1.992V37.2H14.688V40.32H5.856V50.88ZM22.8992 54L15.6512 37.2H19.8512L26.1872 52.08H23.7152L30.1472 37.2H34.0112L26.7392 54H22.8992ZM38.9899 43.968H47.0779V46.992H38.9899V43.968ZM39.2779 50.88H48.4219V54H35.4139V37.2H48.1099V40.32H39.2779V50.88ZM51.5154 54V37.2H58.7874C60.2914 37.2 61.5874 37.448 62.6754 37.944C63.7634 38.424 64.6034 39.12 65.1954 40.032C65.7874 40.944 66.0834 42.032 66.0834 43.296C66.0834 44.544 65.7874 45.624 65.1954 46.536C64.6034 47.432 63.7634 48.12 62.6754 48.6C61.5874 49.08 60.2914 49.32 58.7874 49.32H53.6754L55.4034 47.616V54H51.5154ZM62.1954 54L57.9954 47.904H62.1474L66.3954 54H62.1954ZM55.4034 48.048L53.6754 46.224H58.5714C59.7714 46.224 60.6674 45.968 61.2594 45.456C61.8514 44.928 62.1474 44.208 62.1474 43.296C62.1474 42.368 61.8514 41.648 61.2594 41.136C60.6674 40.624 59.7714 40.368 58.5714 40.368H53.6754L55.4034 38.52V48.048ZM73.1055 54V47.136L73.9935 49.488L66.6015 37.2H70.7295L76.3935 46.632H74.0175L79.7055 37.2H83.5215L76.1295 49.488L76.9935 47.136V54H73.1055ZM88.3001 54V40.368H82.9241V37.2H97.5641V40.368H92.1881V54H88.3001ZM111.176 37.2H115.064V54H111.176V37.2ZM103.544 54H99.6561V37.2H103.544V54ZM111.464 47.112H103.256V43.824H111.464V47.112ZM119.039 54V37.2H122.927V54H119.039ZM126.914 54V37.2H130.13L140.042 49.296H138.482V37.2H142.322V54H139.13L129.194 41.904H130.754V54H126.914ZM154.409 54.288C153.081 54.288 151.857 54.08 150.737 53.664C149.633 53.232 148.665 52.624 147.833 51.84C147.017 51.056 146.377 50.136 145.913 49.08C145.465 48.024 145.241 46.864 145.241 45.6C145.241 44.336 145.465 43.176 145.913 42.12C146.377 41.064 147.025 40.144 147.857 39.36C148.689 38.576 149.665 37.976 150.785 37.56C151.905 37.128 153.137 36.912 154.481 36.912C155.969 36.912 157.305 37.16 158.489 37.656C159.689 38.152 160.697 38.872 161.513 39.816L159.017 42.12C158.409 41.48 157.745 41.008 157.025 40.704C156.305 40.384 155.521 40.224 154.673 40.224C153.857 40.224 153.113 40.352 152.441 40.608C151.769 40.864 151.185 41.232 150.689 41.712C150.209 42.192 149.833 42.76 149.561 43.416C149.305 44.072 149.177 44.8 149.177 45.6C149.177 46.384 149.305 47.104 149.561 47.76C149.833 48.416 150.209 48.992 150.689 49.488C151.185 49.968 151.761 50.336 152.417 50.592C153.089 50.848 153.825 50.976 154.625 50.976C155.393 50.976 156.137 50.856 156.857 50.616C157.593 50.36 158.305 49.936 158.993 49.344L161.201 52.152C160.289 52.84 159.225 53.368 158.009 53.736C156.809 54.104 155.609 54.288 154.409 54.288ZM157.649 51.648V45.336H161.201V52.152L157.649 51.648Z" fill="#333333"/>
<path d="M6.024 18L5.07357 18.3109L5.29899 19H6.024V18ZM0.528 1.2V0.199999H-0.851294L-0.422434 1.51093L0.528 1.2ZM4.56 1.2L5.51216 0.894387L5.28928 0.199999H4.56V1.2ZM9.336 16.08V17.08H10.7072L10.2882 15.7744L9.336 16.08ZM7.32 16.08L6.37193 15.7619L5.92974 17.08H7.32V16.08ZM12.312 1.2V0.199999H11.5927L11.3639 0.881937L12.312 1.2ZM15.912 1.2L16.8637 0.892996L16.6402 0.199999H15.912V1.2ZM20.712 16.08V17.08H22.0853L21.6637 15.773L20.712 16.08ZM18.768 16.08L17.8181 15.7675L17.3862 17.08H18.768V16.08ZM23.664 1.2V0.199999H22.9403L22.7141 0.88745L23.664 1.2ZM27.384 1.2L28.3344 1.51093L28.7633 0.199999H27.384V1.2ZM21.888 18V19H22.613L22.8384 18.3109L21.888 18ZM17.712 18L16.7611 18.3094L16.9858 19H17.712V18ZM13.464 4.944V3.944H12.087L12.5131 5.2534L13.464 4.944ZM14.568 4.944L15.5163 5.26127L15.957 3.944H14.568V4.944ZM10.2 18V19H10.9199L11.1483 18.3173L10.2 18ZM6.97443 17.6891L1.47843 0.889071L-0.422434 1.51093L5.07357 18.3109L6.97443 17.6891ZM0.528 2.2H4.56V0.199999H0.528V2.2ZM3.60784 1.50561L8.38384 16.3856L10.2882 15.7744L5.51216 0.894387L3.60784 1.50561ZM9.336 15.08H7.32V17.08H9.336V15.08ZM8.26807 16.3981L13.2601 1.51806L11.3639 0.881937L6.37193 15.7619L8.26807 16.3981ZM12.312 2.2H15.912V0.199999H12.312V2.2ZM14.9603 1.507L19.7603 16.387L21.6637 15.773L16.8637 0.892996L14.9603 1.507ZM20.712 15.08H18.768V17.08H20.712V15.08ZM19.7179 16.3925L24.6139 1.51255L22.7141 0.88745L17.8181 15.7675L19.7179 16.3925ZM23.664 2.2H27.384V0.199999H23.664V2.2ZM26.4336 0.889071L20.9376 17.6891L22.8384 18.3109L28.3344 1.51093L26.4336 0.889071ZM21.888 17H17.712V19H21.888V17ZM18.6629 17.6906L14.4149 4.6346L12.5131 5.2534L16.7611 18.3094L18.6629 17.6906ZM13.464 5.944H14.568V3.944H13.464V5.944ZM13.6197 4.62673L9.25167 17.6827L11.1483 18.3173L15.5163 5.26127L13.6197 4.62673ZM10.2 17H6.024V19H10.2V17ZM33.1305 7.968V6.968H32.1305V7.968H33.1305ZM41.2185 7.968H42.2185V6.968H41.2185V7.968ZM41.2185 10.992V11.992H42.2185V10.992H41.2185ZM33.1305 10.992H32.1305V11.992H33.1305V10.992ZM33.4185 14.88H32.4185V15.88H33.4185V14.88ZM42.5625 14.88H43.5625V13.88H42.5625V14.88ZM42.5625 18V19H43.5625V18H42.5625ZM29.5545 18H28.5545V19H29.5545V18ZM29.5545 1.2V0.199999H28.5545V1.2H29.5545ZM42.2505 1.2H43.2505V0.199999H42.2505V1.2ZM42.2505 4.32V5.32H43.2505V4.32H42.2505ZM33.4185 4.32V3.32H32.4185V4.32H33.4185ZM33.1305 8.968H41.2185V6.968H33.1305V8.968ZM40.2185 7.968V10.992H42.2185V7.968H40.2185ZM41.2185 9.992H33.1305V11.992H41.2185V9.992ZM34.1305 10.992V7.968H32.1305V10.992H34.1305ZM33.4185 15.88H42.5625V13.88H33.4185V15.88ZM41.5625 14.88V18H43.5625V14.88H41.5625ZM42.5625 17H29.5545V19H42.5625V17ZM30.5545 18V1.2H28.5545V18H30.5545ZM29.5545 2.2H42.2505V0.199999H29.5545V2.2ZM41.2505 1.2V4.32H43.2505V1.2H41.2505ZM42.2505 3.32H33.4185V5.32H42.2505V3.32ZM32.4185 4.32V14.88H34.4185V4.32H32.4185ZM56.8689 17.664L56.5045 18.5952L56.5126 18.5984L56.5208 18.6014L56.8689 17.664ZM53.9889 15.84L53.2961 16.5611L53.9889 15.84ZM52.0689 13.08L51.1483 13.4706L51.1534 13.4823L52.0689 13.08ZM52.0689 6.12L51.1533 5.71769L51.1484 5.72945L52.0689 6.12ZM53.9889 3.36L53.3031 2.63218L53.2961 2.6389L53.9889 3.36ZM56.8929 1.56L57.2456 2.49584L57.2573 2.49124L56.8929 1.56ZM64.4529 1.68L64.0515 2.59587L64.059 2.59916L64.0666 2.60234L64.4529 1.68ZM67.4289 3.888L68.1072 4.6228L68.8 3.98328L68.2023 3.25407L67.4289 3.888ZM64.9329 6.192L64.1815 6.8518L64.8579 7.62216L65.6112 6.9268L64.9329 6.192ZM63.0129 4.728L62.5822 5.63048L62.5906 5.6345L62.5991 5.63837L63.0129 4.728ZM56.8449 5.712L57.552 6.41911V6.41911L56.8449 5.712ZM55.7169 7.416L54.7932 7.03298L54.7892 7.04268L54.7854 7.05246L55.7169 7.416ZM55.7169 11.784L54.7854 12.1475L54.7892 12.1573L54.7932 12.167L55.7169 11.784ZM56.8449 13.488L56.1378 14.1951H56.1378L56.8449 13.488ZM63.0129 14.496L63.4267 15.4064L63.4352 15.4025L63.4437 15.3985L63.0129 14.496ZM64.9329 12.984L65.6112 12.2492L64.8489 11.5455L64.1737 12.3332L64.9329 12.984ZM67.4289 15.288L68.2023 15.9219L68.8 15.1927L68.1072 14.5532L67.4289 15.288ZM64.4529 17.52L64.056 16.6021L64.0515 16.6041L64.4529 17.52ZM60.4929 17.288C59.3057 17.288 58.2166 17.0978 57.2171 16.7266L56.5208 18.6014C57.7613 19.0622 59.0882 19.288 60.4929 19.288V17.288ZM57.2333 16.7328C56.2456 16.3463 55.3987 15.8077 54.6818 15.1189L53.2961 16.5611C54.2112 17.4403 55.2843 18.1177 56.5045 18.5952L57.2333 16.7328ZM54.6818 15.1189C53.962 14.4274 53.3968 13.6163 52.9845 12.6777L51.1534 13.4823C51.669 14.6557 52.3839 15.6846 53.2961 16.5611L54.6818 15.1189ZM52.9895 12.6894C52.599 11.769 52.3969 10.7435 52.3969 9.6H50.3969C50.3969 10.9845 50.6428 12.279 51.1484 13.4705L52.9895 12.6894ZM52.3969 9.6C52.3969 8.45645 52.599 7.43096 52.9895 6.51055L51.1484 5.72945C50.6428 6.92103 50.3969 8.21555 50.3969 9.6H52.3969ZM52.9845 6.52227C53.3968 5.58373 53.962 4.77265 54.6818 4.0811L53.2961 2.6389C52.3839 3.51535 51.669 4.54427 51.1534 5.71773L52.9845 6.52227ZM54.6747 4.08779C55.4074 3.39738 56.2612 2.86667 57.2455 2.49577L56.5403 0.624228C55.3167 1.08532 54.2345 1.75462 53.3031 2.63221L54.6747 4.08779ZM57.2573 2.49124C58.2335 2.10928 59.3163 1.912 60.5169 1.912V-0.0880003C59.0935 -0.0880003 57.7604 0.146714 56.5285 0.628756L57.2573 2.49124ZM60.5169 1.912C61.8542 1.912 63.0268 2.14668 64.0515 2.59587L64.8544 0.764131C63.5431 0.189315 62.0916 -0.0880003 60.5169 -0.0880003V1.912ZM64.0666 2.60234C65.1026 3.03637 65.9609 3.67447 66.6555 4.52193L68.2023 3.25407C67.297 2.14953 66.1712 1.31563 64.8393 0.757662L64.0666 2.60234ZM66.7507 3.1532L64.2547 5.4572L65.6112 6.9268L68.1072 4.6228L66.7507 3.1532ZM65.6844 5.5322C65.0269 4.78344 64.2754 4.20341 63.4267 3.81763L62.5991 5.63837C63.1584 5.89259 63.6869 6.28856 64.1815 6.8518L65.6844 5.5322ZM63.4437 3.82552C62.5963 3.42109 61.6799 3.224 60.7089 3.224V5.224C61.402 5.224 62.0216 5.36291 62.5822 5.63048L63.4437 3.82552ZM60.7089 3.224C59.8146 3.224 58.9697 3.37036 58.1854 3.67642L58.9125 5.53958C59.4402 5.33364 60.0353 5.224 60.7089 5.224V3.224ZM58.1854 3.67642C57.4055 3.98077 56.7193 4.42345 56.1378 5.00489L57.552 6.41911C57.9306 6.04055 58.3804 5.74723 58.9125 5.53958L58.1854 3.67642ZM56.1378 5.00489C55.5608 5.58193 55.1131 6.26148 54.7932 7.03298L56.6407 7.79902C56.8648 7.25852 57.1691 6.80207 57.552 6.41911L56.1378 5.00489ZM54.7854 7.05246C54.4784 7.839 54.3329 8.6924 54.3329 9.6H56.3329C56.3329 8.9076 56.4435 8.305 56.6485 7.77954L54.7854 7.05246ZM54.3329 9.6C54.3329 10.5076 54.4784 11.361 54.7854 12.1475L56.6485 11.4205C56.4435 10.895 56.3329 10.2924 56.3329 9.6H54.3329ZM54.7932 12.167C55.1131 12.9385 55.5608 13.6181 56.1378 14.1951L57.552 12.7809C57.1691 12.3979 56.8648 11.9415 56.6407 11.401L54.7932 12.167ZM56.1378 14.1951C56.7193 14.7765 57.4055 15.2192 58.1854 15.5236L58.9125 13.6604C58.3804 13.4528 57.9306 13.1595 57.552 12.7809L56.1378 14.1951ZM58.1854 15.5236C58.9697 15.8296 59.8146 15.976 60.7089 15.976V13.976C60.0353 13.976 59.4402 13.8664 58.9125 13.6604L58.1854 15.5236ZM60.7089 15.976C61.6727 15.976 62.5831 15.7898 63.4267 15.4064L62.5991 13.5856C62.0347 13.8422 61.4092 13.976 60.7089 13.976V15.976ZM63.4437 15.3985C64.2894 14.9948 65.0376 14.3984 65.6922 13.6348L64.1737 12.3332C63.6762 12.9136 63.1445 13.3252 62.5822 13.5935L63.4437 15.3985ZM64.2547 13.7188L66.7507 16.0228L68.1072 14.5532L65.6112 12.2492L64.2547 13.7188ZM66.6555 14.6541C65.9589 15.504 65.0971 16.152 64.056 16.6021L64.8498 18.4379C66.1768 17.864 67.299 17.024 68.2023 15.9219L66.6555 14.6541ZM64.0515 16.6041C63.0281 17.0527 61.8479 17.288 60.4929 17.288V19.288C62.082 19.288 63.5418 19.0113 64.8544 18.4359L64.0515 16.6041ZM67.5418 18L66.6284 17.5929L66.0013 19H67.5418V18ZM75.0298 1.2V0.199999H74.3807L74.1164 0.792892L75.0298 1.2ZM78.8698 1.2L79.7827 0.791804L79.5181 0.199999H78.8698V1.2ZM86.3818 18V19H87.9244L87.2947 17.5918L86.3818 18ZM82.3018 18L81.3779 18.3827L81.6337 19H82.3018V18ZM76.1578 3.168V2.168H74.6612L75.2339 3.5507L76.1578 3.168ZM77.6938 3.168L78.6172 3.55198L79.1927 2.168H77.6938V3.168ZM71.5258 18V19H72.193L72.4492 18.384L71.5258 18ZM71.2858 14.4L70.3418 14.07L69.8769 15.4H71.2858V14.4ZM72.3178 11.448V10.448H71.6081L71.3738 11.118L72.3178 11.448ZM80.9578 11.448L81.8994 11.1112L81.6621 10.448H80.9578V11.448ZM82.0138 14.4V15.4H83.4336L82.9554 14.0632L82.0138 14.4ZM68.4552 18.4071L75.9432 1.60711L74.1164 0.792892L66.6284 17.5929L68.4552 18.4071ZM75.0298 2.2H78.8698V0.199999H75.0298V2.2ZM77.9569 1.60819L85.4689 18.4082L87.2947 17.5918L79.7827 0.791804L77.9569 1.60819ZM86.3818 17H82.3018V19H86.3818V17ZM83.2257 17.6173L77.0817 2.7853L75.2339 3.5507L81.3779 18.3827L83.2257 17.6173ZM76.1578 4.168H77.6938V2.168H76.1578V4.168ZM76.7705 2.78402L70.6025 17.616L72.4492 18.384L78.6172 3.55198L76.7705 2.78402ZM71.5258 17H67.5418V19H71.5258V17ZM72.2298 14.73L73.2618 11.778L71.3738 11.118L70.3418 14.07L72.2298 14.73ZM72.3178 12.448H80.9578V10.448H72.3178V12.448ZM80.0162 11.7848L81.0722 14.7368L82.9554 14.0632L81.8994 11.1112L80.0162 11.7848ZM82.0138 13.4H71.2858V15.4H82.0138V13.4ZM88.1248 18H87.1248V19H88.1248V18ZM88.1248 1.2V0.199999H87.1248V1.2H88.1248ZM91.3408 1.2L92.1143 0.566176L91.8142 0.199999H91.3408V1.2ZM101.253 13.296V14.296H103.365L102.026 12.6622L101.253 13.296ZM99.6928 13.296H98.6928V14.296H99.6928V13.296ZM99.6928 1.2V0.199999H98.6928V1.2H99.6928ZM103.533 1.2H104.533V0.199999H103.533V1.2ZM103.533 18V19H104.533V18H103.533ZM100.341 18L99.5681 18.6347L99.8681 19H100.341V18ZM90.4048 5.904V4.904H88.2893L89.6321 6.53874L90.4048 5.904ZM91.9648 5.904H92.9648V4.904H91.9648V5.904ZM91.9648 18V19H92.9648V18H91.9648ZM89.1248 18V1.2H87.1248V18H89.1248ZM88.1248 2.2H91.3408V0.199999H88.1248V2.2ZM90.5673 1.83382L100.479 13.9298L102.026 12.6622L92.1143 0.566176L90.5673 1.83382ZM101.253 12.296H99.6928V14.296H101.253V12.296ZM100.693 13.296V1.2H98.6928V13.296H100.693ZM99.6928 2.2H103.533V0.199999H99.6928V2.2ZM102.533 1.2V18H104.533V1.2H102.533ZM103.533 17H100.341V19H103.533V17ZM101.114 17.3653L91.1775 5.26926L89.6321 6.53874L99.5681 18.6347L101.114 17.3653ZM90.4048 6.904H91.9648V4.904H90.4048V6.904ZM90.9648 5.904V18H92.9648V5.904H90.9648ZM91.9648 17H88.1248V19H91.9648V17ZM118.769 17.64L118.409 18.573L118.413 18.5747L118.769 17.64ZM115.84 15.816L115.148 16.5371L115.155 16.5438L115.84 15.816ZM113.921 13.056L113 13.4466L113.005 13.4583L113.921 13.056ZM113.921 6.144L113.005 5.74169L113 5.75345L113.921 6.144ZM118.793 1.56L118.433 0.626997H118.433L118.793 1.56ZM126.089 1.56L125.724 2.49125L125.729 2.493L126.089 1.56ZM128.993 3.384L128.3 4.10514L128.307 4.11179L128.993 3.384ZM130.936 6.144L130.021 6.54628L130.023 6.55144L130.936 6.144ZM130.936 13.08L131.852 13.4823L131.854 13.4772L130.936 13.08ZM128.993 15.84L129.678 16.5682L129.678 16.5678L128.993 15.84ZM126.089 17.64L125.729 16.707L125.724 16.7088L126.089 17.64ZM124.505 14.592L124.133 13.6635L124.125 13.6668L124.505 14.592ZM126.185 13.488L125.477 12.7809L126.185 13.488ZM127.288 11.784L126.365 11.401L126.361 11.4107L126.357 11.4205L127.288 11.784ZM127.288 7.416L126.357 7.77954L126.361 7.78932L126.365 7.79902L127.288 7.416ZM126.185 5.712L125.466 6.40702L125.471 6.41311L125.477 6.41911L126.185 5.712ZM124.529 4.608L124.157 5.53648L124.529 4.608ZM120.353 4.608L119.981 3.67949L119.973 3.68283L120.353 4.608ZM118.697 5.712L119.404 6.41911V6.41911L118.697 5.712ZM117.568 7.416L116.645 7.03298L116.641 7.04268L116.637 7.05246L117.568 7.416ZM117.568 11.784L116.634 12.14L116.639 12.1536L116.645 12.167L117.568 11.784ZM118.673 13.488L117.954 14.183L117.959 14.1891L117.965 14.1951L118.673 13.488ZM120.353 14.592L119.981 15.5205L120.353 14.592ZM122.465 17.288C121.247 17.288 120.136 17.0903 119.124 16.7053L118.413 18.5747C119.673 19.0537 121.026 19.288 122.465 19.288V17.288ZM119.128 16.707C118.123 16.3193 117.259 15.7789 116.526 15.0882L115.155 16.5438C116.086 17.4211 117.174 18.0967 118.409 18.573L119.128 16.707ZM116.533 15.0949C115.814 14.4034 115.248 13.5923 114.836 12.6537L113.005 13.4583C113.521 14.6317 114.235 15.6606 115.148 16.5371L116.533 15.0949ZM114.841 12.6654C114.45 11.7435 114.248 10.7257 114.248 9.6H112.248C112.248 10.9703 112.495 12.2565 113 13.4466L114.841 12.6654ZM114.248 9.6C114.248 8.47429 114.45 7.45651 114.841 6.53455L113 5.75345C112.495 6.94349 112.248 8.22971 112.248 9.6H114.248ZM114.836 6.54627C115.247 5.61196 115.817 4.80295 116.55 4.11179L115.179 2.65621C114.248 3.53305 113.522 4.56404 113.005 5.74173L114.836 6.54627ZM116.55 4.11179C117.283 3.42108 118.147 2.88073 119.152 2.493L118.433 0.626997C117.198 1.10326 116.11 1.77892 115.179 2.65621L116.55 4.11179ZM119.152 2.493C120.147 2.10923 121.24 1.912 122.44 1.912V-0.0880003C121.017 -0.0880003 119.678 0.146767 118.433 0.626997L119.152 2.493ZM122.44 1.912C123.659 1.912 124.749 2.10982 125.724 2.49124L126.453 0.628756C125.22 0.146181 123.878 -0.0880003 122.44 -0.0880003V1.912ZM125.729 2.493C126.732 2.88014 127.585 3.41867 128.3 4.1051L129.685 2.6629C128.768 1.78133 127.685 1.10386 126.448 0.626997L125.729 2.493ZM128.307 4.11179C129.04 4.80295 129.61 5.61195 130.021 6.54627L131.852 5.74173C131.335 4.56404 130.609 3.53305 129.678 2.65621L128.307 4.11179ZM130.023 6.55144C130.424 7.44977 130.633 8.46088 130.633 9.6H132.633C132.633 8.21112 132.377 6.91823 131.85 5.73656L130.023 6.55144ZM130.633 9.6C130.633 10.7208 130.425 11.7446 130.019 12.6828L131.854 13.4772C132.376 12.2714 132.633 10.9752 132.633 9.6H130.633ZM130.021 12.6777C129.61 13.612 129.04 14.4211 128.307 15.1122L129.678 16.5678C130.609 15.6909 131.335 14.66 131.852 13.4823L130.021 12.6777ZM128.307 15.1118C127.592 15.7849 126.737 16.3182 125.729 16.707L126.448 18.573C127.68 18.0978 128.761 17.4311 129.678 16.5682L128.307 15.1118ZM125.724 16.7088C124.748 17.0907 123.665 17.288 122.465 17.288V19.288C123.888 19.288 125.221 19.0533 126.453 18.5712L125.724 16.7088ZM122.44 15.976C123.308 15.976 124.127 15.828 124.884 15.5172L124.125 13.6668C123.634 13.868 123.077 13.976 122.44 13.976V15.976ZM124.876 15.5205C125.64 15.215 126.314 14.7724 126.892 14.1951L125.477 12.7809C125.095 13.1636 124.649 13.457 124.133 13.6635L124.876 15.5205ZM126.892 14.1951C127.473 13.6137 127.916 12.9274 128.22 12.1475L126.357 11.4205C126.149 11.9526 125.856 12.4023 125.477 12.7809L126.892 14.1951ZM128.212 12.167C128.541 11.3752 128.697 10.5149 128.697 9.6H126.697C126.697 10.2851 126.58 10.8808 126.365 11.401L128.212 12.167ZM128.697 9.6C128.697 8.68514 128.541 7.82483 128.212 7.03298L126.365 7.79902C126.58 8.31916 126.697 8.91486 126.697 9.6H128.697ZM128.22 7.05246C127.916 6.27257 127.473 5.58633 126.892 5.00489L125.477 6.41911C125.856 6.79767 126.149 7.24743 126.357 7.77954L128.22 7.05246ZM126.903 5.01698C126.338 4.43217 125.667 3.98619 124.9 3.67952L124.157 5.53648C124.67 5.74181 125.103 6.03183 125.466 6.40702L126.903 5.01698ZM124.9 3.67952C124.131 3.37214 123.308 3.224 122.44 3.224V5.224C123.077 5.224 123.646 5.33186 124.157 5.53648L124.9 3.67952ZM122.44 3.224C121.573 3.224 120.75 3.37214 119.981 3.67952L120.724 5.53648C121.235 5.33186 121.804 5.224 122.44 5.224V3.224ZM119.973 3.68283C119.226 3.98944 118.562 4.43185 117.989 5.00489L119.404 6.41911C119.791 6.03215 120.231 5.73856 120.732 5.53317L119.973 3.68283ZM117.989 5.00489C117.412 5.58193 116.965 6.26148 116.645 7.03298L118.492 7.79902C118.716 7.25852 119.021 6.80207 119.404 6.41911L117.989 5.00489ZM116.637 7.05246C116.33 7.839 116.185 8.6924 116.185 9.6H118.185C118.185 8.9076 118.295 8.305 118.5 7.77954L116.637 7.05246ZM116.185 9.6C116.185 10.4947 116.331 11.3445 116.634 12.14L118.503 11.428C118.294 10.8795 118.185 10.2733 118.185 9.6H116.185ZM116.645 12.167C116.962 12.9315 117.397 13.6072 117.954 14.183L119.391 12.793C119.02 12.4088 118.719 11.9485 118.492 11.401L116.645 12.167ZM117.965 14.1951C118.543 14.7724 119.217 15.215 119.981 15.5205L120.724 13.6635C120.208 13.457 119.762 13.1636 119.38 12.7809L117.965 14.1951ZM119.981 15.5205C120.75 15.8279 121.573 15.976 122.44 15.976V13.976C121.804 13.976 121.235 13.8681 120.724 13.6635L119.981 15.5205ZM134.555 18H133.555V19H134.555V18ZM134.555 1.2V0.199999H133.555V1.2H134.555ZM145.715 1.944L145.3 2.85398L145.311 2.85892L145.715 1.944ZM148.234 4.032L147.396 4.57647L148.234 4.032ZM148.234 10.536L149.069 11.0873L149.073 11.0805L148.234 10.536ZM145.715 12.6L146.118 13.5149H146.118L145.715 12.6ZM136.714 13.32L136.012 12.608L134.276 14.32H136.714V13.32ZM138.443 11.616H139.443V9.22546L137.74 10.904L138.443 11.616ZM138.443 18V19H139.443V18H138.443ZM145.234 18L144.411 18.5674L144.709 19H145.234V18ZM141.035 11.904V10.904H139.131L140.211 12.4714L141.035 11.904ZM145.186 11.904L146.007 11.3323L145.708 10.904H145.186V11.904ZM149.434 18V19H151.35L150.255 17.4283L149.434 18ZM138.443 12.048L137.717 12.7357L139.443 14.5576V12.048H138.443ZM136.714 10.224V9.224H134.39L135.989 10.9117L136.714 10.224ZM144.299 9.456L144.953 10.2124L144.958 10.2074L144.964 10.2023L144.299 9.456ZM136.714 4.368L135.984 3.68501L134.41 5.368H136.714V4.368ZM138.443 2.52H139.443V-0.013588L137.712 1.83701L138.443 2.52ZM135.555 18V1.2H133.555V18H135.555ZM134.555 2.2H141.827V0.199999H134.555V2.2ZM141.827 2.2C143.223 2.2 144.371 2.43051 145.3 2.85391L146.129 1.03409C144.882 0.465491 143.438 0.199999 141.827 0.199999V2.2ZM145.311 2.85892C146.238 3.26805 146.92 3.84287 147.396 4.57647L149.073 3.48753C148.365 2.39712 147.367 1.57995 146.118 1.02908L145.311 2.85892ZM147.396 4.57647C147.866 5.3014 148.122 6.19316 148.122 7.296H150.122C150.122 5.87084 149.787 4.5866 149.073 3.48753L147.396 4.57647ZM148.122 7.296C148.122 8.38005 147.868 9.26457 147.396 9.99153L149.073 11.0805C149.785 9.98343 150.122 8.70795 150.122 7.296H148.122ZM147.4 9.98474C146.925 10.7038 146.243 11.2739 145.311 11.6851L146.118 13.5149C147.362 12.9661 148.36 12.1602 149.069 11.0873L147.4 9.98474ZM145.311 11.6851C144.379 12.0962 143.227 12.32 141.827 12.32V14.32C143.434 14.32 144.874 14.0638 146.118 13.5149L145.311 11.6851ZM141.827 12.32H136.714V14.32H141.827V12.32ZM137.417 14.032L139.145 12.328L137.74 10.904L136.012 12.608L137.417 14.032ZM137.443 11.616V18H139.443V11.616H137.443ZM138.443 17H134.555V19H138.443V17ZM146.058 17.4326L141.858 11.3366L140.211 12.4714L144.411 18.5674L146.058 17.4326ZM141.035 12.904H145.186V10.904H141.035V12.904ZM144.366 12.4757L148.614 18.5717L150.255 17.4283L146.007 11.3323L144.366 12.4757ZM149.434 17H145.234V19H149.434V17ZM139.168 11.3603L137.44 9.53625L135.989 10.9117L137.717 12.7357L139.168 11.3603ZM136.714 11.224H141.611V9.224H136.714V11.224ZM141.611 11.224C142.928 11.224 144.104 10.9466 144.953 10.2124L143.644 8.69964C143.309 8.98939 142.693 9.224 141.611 9.224V11.224ZM144.964 10.2023C145.802 9.45529 146.186 8.4459 146.186 7.296H144.186C144.186 7.9701 143.979 8.40071 143.633 8.70971L144.964 10.2023ZM146.186 7.296C146.186 6.13694 145.805 5.11723 144.953 4.37964L143.644 5.89236C143.976 6.17877 144.186 6.59906 144.186 7.296H146.186ZM144.953 4.37964C144.104 3.64539 142.928 3.368 141.611 3.368V5.368C142.693 5.368 143.309 5.60261 143.644 5.89236L144.953 4.37964ZM141.611 3.368H136.714V5.368H141.611V3.368ZM137.445 5.05099L139.173 3.20299L137.712 1.83701L135.984 3.68501L137.445 5.05099ZM137.443 2.52V12.048H139.443V2.52H137.443ZM156.643 17.664L156.279 18.5952L156.287 18.5984L156.295 18.6014L156.643 17.664ZM153.739 15.84L153.046 16.5611L153.053 16.5678L153.739 15.84ZM151.819 13.08L150.898 13.4706L150.903 13.4823L151.819 13.08ZM151.819 6.12L150.903 5.71769L150.898 5.72945L151.819 6.12ZM153.763 3.36L154.449 4.08779L153.763 3.36ZM156.691 1.56L157.039 2.4975L157.051 2.493L156.691 1.56ZM164.395 1.656L164.009 2.57835L164.013 2.58017L164.395 1.656ZM167.419 3.816L168.097 4.5508L168.808 3.8943L168.175 3.16205L167.419 3.816ZM164.923 6.12L164.198 6.80875L164.877 7.52342L165.601 6.8548L164.923 6.12ZM162.931 4.704L162.525 5.61781L162.533 5.62161L162.542 5.62525L162.931 4.704ZM156.595 5.712L155.9 4.9934L155.894 4.9991L155.888 5.00489L156.595 5.712ZM155.467 7.416L154.543 7.03298L154.539 7.04268L154.535 7.05246L155.467 7.416ZM155.467 11.76L154.535 12.1235L154.539 12.1333L154.543 12.143L155.467 11.76ZM156.595 13.488L155.876 14.1834L155.888 14.1952L155.9 14.2066L156.595 13.488ZM158.323 14.592L157.959 15.5236L157.967 15.5265L158.323 14.592ZM162.763 14.616L163.079 15.5648L163.091 15.5605L162.763 14.616ZM164.899 13.344L165.685 12.7259L165.039 11.9043L164.247 12.586L164.899 13.344ZM167.107 16.152L167.709 16.9503L168.524 16.3359L167.893 15.5339L167.107 16.152ZM163.915 17.736L163.625 16.7789L163.622 16.7799L163.915 17.736ZM163.555 15.648H162.555V16.5161L163.414 16.6381L163.555 15.648ZM163.555 9.336V8.336H162.555V9.336H163.555ZM167.107 9.336H168.107V8.336H167.107V9.336ZM167.107 16.152L166.966 17.1421L168.107 17.3039V16.152H167.107ZM160.315 17.288C159.093 17.288 157.988 17.0968 156.991 16.7266L156.295 18.6014C157.538 19.0632 158.881 19.288 160.315 19.288V17.288ZM157.007 16.7328C156.018 16.3456 155.16 15.8052 154.425 15.1122L153.053 16.5678C153.982 17.4428 155.06 18.1184 156.279 18.5952L157.007 16.7328ZM154.432 15.1189C153.712 14.4274 153.147 13.6163 152.734 12.6777L150.903 13.4823C151.419 14.6557 152.134 15.6846 153.046 16.5611L154.432 15.1189ZM152.74 12.6894C152.349 11.769 152.147 10.7435 152.147 9.6H150.147C150.147 10.9845 150.393 12.279 150.898 13.4705L152.74 12.6894ZM152.147 9.6C152.147 8.45645 152.349 7.43096 152.74 6.51055L150.898 5.72945C150.393 6.92103 150.147 8.21555 150.147 9.6H152.147ZM152.734 6.52227C153.145 5.58795 153.715 4.77894 154.449 4.08779L153.077 2.63221C152.147 3.50905 151.421 4.54004 150.903 5.71773L152.734 6.52227ZM154.449 4.08779C155.179 3.39968 156.039 2.86898 157.039 2.49742L156.343 0.622573C155.103 1.08302 154.011 1.75232 153.077 2.63221L154.449 4.08779ZM157.051 2.493C158.043 2.11027 159.151 1.912 160.387 1.912V-0.0880003C158.935 -0.0880003 157.579 0.14573 156.331 0.626997L157.051 2.493ZM160.387 1.912C161.763 1.912 162.965 2.1411 164.009 2.57834L164.781 0.733661C163.457 0.178902 161.987 -0.0880003 160.387 -0.0880003V1.912ZM164.013 2.58017C165.075 3.01905 165.953 3.64886 166.662 4.46995L168.175 3.16205C167.253 2.09514 166.115 1.28495 164.777 0.731832L164.013 2.58017ZM166.741 3.0812L164.245 5.3852L165.601 6.8548L168.097 4.5508L166.741 3.0812ZM165.648 5.43125C164.957 4.70436 164.182 4.14681 163.32 3.78275L162.542 5.62525C163.12 5.86918 163.672 6.25564 164.198 6.80875L165.648 5.43125ZM163.337 3.79019C162.48 3.40913 161.556 3.224 160.579 3.224V5.224C161.298 5.224 161.942 5.35887 162.525 5.61781L163.337 3.79019ZM160.579 3.224C159.658 3.224 158.791 3.36877 157.991 3.67351L158.703 5.54249C159.247 5.33523 159.868 5.224 160.579 5.224V3.224ZM157.991 3.67351C157.198 3.97568 156.497 4.41524 155.9 4.9934L157.29 6.4306C157.685 6.04875 158.152 5.75232 158.703 5.54249L157.991 3.67351ZM155.888 5.00489C155.311 5.58193 154.863 6.26148 154.543 7.03298L156.391 7.79902C156.615 7.25852 156.919 6.80207 157.302 6.41911L155.888 5.00489ZM154.535 7.05246C154.228 7.839 154.083 8.6924 154.083 9.6H156.083C156.083 8.9076 156.193 8.305 156.399 7.77954L154.535 7.05246ZM154.083 9.6C154.083 10.4943 154.229 11.3393 154.535 12.1235L156.399 11.3965C156.193 10.8687 156.083 10.2737 156.083 9.6H154.083ZM154.543 12.143C154.862 12.9117 155.306 13.5945 155.876 14.1834L157.314 12.7926C156.923 12.3895 156.616 11.9203 156.391 11.377L154.543 12.143ZM155.9 14.2066C156.493 14.7808 157.182 15.2203 157.959 15.5236L158.686 13.6604C158.152 13.4517 157.689 13.1552 157.29 12.7694L155.9 14.2066ZM157.967 15.5265C158.765 15.8304 159.623 15.976 160.531 15.976V13.976C159.839 13.976 159.225 13.8656 158.679 13.6575L157.967 15.5265ZM160.531 15.976C161.405 15.976 162.256 15.8391 163.079 15.5647L162.447 13.6673C161.83 13.8729 161.193 13.976 160.531 13.976V15.976ZM163.091 15.5605C163.964 15.257 164.783 14.7627 165.551 14.102L164.247 12.586C163.638 13.1093 163.034 13.463 162.434 13.6715L163.091 15.5605ZM164.113 13.9621L166.321 16.7701L167.893 15.5339L165.685 12.7259L164.113 13.9621ZM166.505 15.3537C165.697 15.9632 164.741 16.4412 163.625 16.7789L164.205 18.6931C165.521 18.2948 166.693 17.7168 167.709 16.9503L166.505 15.3537ZM163.622 16.7799C162.512 17.1202 161.411 17.288 160.315 17.288V19.288C161.619 19.288 162.918 19.0878 164.208 18.6921L163.622 16.7799ZM164.555 15.648V9.336H162.555V15.648H164.555ZM163.555 10.336H167.107V8.336H163.555V10.336ZM166.107 9.336V16.152H168.107V9.336H166.107ZM167.247 15.1619L163.695 14.6579L163.414 16.6381L166.966 17.1421L167.247 15.1619ZM168.511 18L167.597 17.5929L166.97 19H168.511V18ZM175.999 1.2V0.199999H175.349L175.085 0.792892L175.999 1.2ZM179.839 1.2L180.751 0.791804L180.487 0.199999H179.839V1.2ZM187.351 18V19H188.893L188.263 17.5918L187.351 18ZM183.271 18L182.347 18.3827L182.602 19H183.271V18ZM177.127 3.168V2.168H175.63L176.203 3.5507L177.127 3.168ZM178.663 3.168L179.586 3.55198L180.161 2.168H178.663V3.168ZM172.495 18V19H173.162L173.418 18.384L172.495 18ZM172.255 14.4L171.311 14.07L170.846 15.4H172.255V14.4ZM173.287 11.448V10.448H172.577L172.343 11.118L173.287 11.448ZM181.927 11.448L182.868 11.1112L182.631 10.448H181.927V11.448ZM182.983 14.4V15.4H184.402L183.924 14.0632L182.983 14.4ZM169.424 18.4071L176.912 1.60711L175.085 0.792892L167.597 17.5929L169.424 18.4071ZM175.999 2.2H179.839V0.199999H175.999V2.2ZM178.926 1.60819L186.438 18.4082L188.263 17.5918L180.751 0.791804L178.926 1.60819ZM187.351 17H183.271V19H187.351V17ZM184.194 17.6173L178.05 2.7853L176.203 3.5507L182.347 18.3827L184.194 17.6173ZM177.127 4.168H178.663V2.168H177.127V4.168ZM177.739 2.78402L171.571 17.616L173.418 18.384L179.586 3.55198L177.739 2.78402ZM172.495 17H168.511V19H172.495V17ZM173.199 14.73L174.231 11.778L172.343 11.118L171.311 14.07L173.199 14.73ZM173.287 12.448H181.927V10.448H173.287V12.448ZM180.985 11.7848L182.041 14.7368L183.924 14.0632L182.868 11.1112L180.985 11.7848ZM182.983 13.4H172.255V15.4H182.983V13.4ZM189.094 18H188.094V19H189.094V18ZM189.094 1.2V0.199999H188.094V1.2H189.094ZM192.31 1.2L193.083 0.566176L192.783 0.199999H192.31V1.2ZM202.222 13.296V14.296H204.334L202.995 12.6622L202.222 13.296ZM200.662 13.296H199.662V14.296H200.662V13.296ZM200.662 1.2V0.199999H199.662V1.2H200.662ZM204.502 1.2H205.502V0.199999H204.502V1.2ZM204.502 18V19H205.502V18H204.502ZM201.31 18L200.537 18.6347L200.837 19H201.31V18ZM191.374 5.904V4.904H189.258L190.601 6.53874L191.374 5.904ZM192.934 5.904H193.934V4.904H192.934V5.904ZM192.934 18V19H193.934V18H192.934ZM190.094 18V1.2H188.094V18H190.094ZM189.094 2.2H192.31V0.199999H189.094V2.2ZM191.536 1.83382L201.448 13.9298L202.995 12.6622L193.083 0.566176L191.536 1.83382ZM202.222 12.296H200.662V14.296H202.222V12.296ZM201.662 13.296V1.2H199.662V13.296H201.662ZM200.662 2.2H204.502V0.199999H200.662V2.2ZM203.502 1.2V18H205.502V1.2H203.502ZM204.502 17H201.31V19H204.502V17ZM202.082 17.3653L192.146 5.26926L190.601 6.53874L200.537 18.6347L202.082 17.3653ZM191.374 6.904H192.934V4.904H191.374V6.904ZM191.934 5.904V18H193.934V5.904H191.934ZM192.934 17H189.094V19H192.934V17ZM208.476 18H207.476V19H208.476V18ZM208.476 1.2V0.199999H207.476V1.2H208.476ZM212.364 1.2H213.364V0.199999H212.364V1.2ZM212.364 18V19H213.364V18H212.364ZM209.476 18V1.2H207.476V18H209.476ZM208.476 2.2H212.364V0.199999H208.476V2.2ZM211.364 1.2V18H213.364V1.2H211.364ZM212.364 17H208.476V19H212.364V17ZM215.271 18H214.271V19H215.271V18ZM215.271 15.48L214.502 14.8416L214.271 15.1192V15.48H215.271ZM225.663 2.952L226.61 2.63096L226.036 0.93644L224.894 2.31356L225.663 2.952ZM226.143 4.368V5.368H227.538L227.09 4.04696L226.143 4.368ZM215.463 4.368H214.463V5.368H215.463V4.368ZM215.463 1.2V0.199999H214.463V1.2H215.463ZM229.599 1.2H230.599V0.199999H229.599V1.2ZM229.599 3.72L230.37 4.35757L230.599 4.08013V3.72H229.599ZM219.231 16.248L218.284 16.569L218.859 18.2658L220.002 16.8856L219.231 16.248ZM218.751 14.832V13.832H217.357L217.804 15.153L218.751 14.832ZM229.959 14.832H230.959V13.832H229.959V14.832ZM229.959 18V19H230.959V18H229.959ZM216.271 18V15.48H214.271V18H216.271ZM216.041 16.1184L226.433 3.59044L224.894 2.31356L214.502 14.8416L216.041 16.1184ZM224.716 3.27304L225.196 4.68904L227.09 4.04696L226.61 2.63096L224.716 3.27304ZM226.143 3.368H215.463V5.368H226.143V3.368ZM216.463 4.368V1.2H214.463V4.368H216.463ZM215.463 2.2H229.599V0.199999H215.463V2.2ZM228.599 1.2V3.72H230.599V1.2H228.599ZM228.829 3.08243L218.461 15.6104L220.002 16.8856L230.37 4.35757L228.829 3.08243ZM220.178 15.927L219.698 14.511L217.804 15.153L218.284 16.569L220.178 15.927ZM218.751 15.832H229.959V13.832H218.751V15.832ZM228.959 14.832V18H230.959V14.832H228.959ZM229.959 17H215.271V19H229.959V17ZM236.029 7.968V6.968H235.029V7.968H236.029ZM244.117 7.968H245.117V6.968H244.117V7.968ZM244.117 10.992V11.992H245.117V10.992H244.117ZM236.029 10.992H235.029V11.992H236.029V10.992ZM236.317 14.88H235.317V15.88H236.317V14.88ZM245.461 14.88H246.461V13.88H245.461V14.88ZM245.461 18V19H246.461V18H245.461ZM232.453 18H231.453V19H232.453V18ZM232.453 1.2V0.199999H231.453V1.2H232.453ZM245.149 1.2H246.149V0.199999H245.149V1.2ZM245.149 4.32V5.32H246.149V4.32H245.149ZM236.317 4.32V3.32H235.317V4.32H236.317ZM236.029 8.968H244.117V6.968H236.029V8.968ZM243.117 7.968V10.992H245.117V7.968H243.117ZM244.117 9.992H236.029V11.992H244.117V9.992ZM237.029 10.992V7.968H235.029V10.992H237.029ZM236.317 15.88H245.461V13.88H236.317V15.88ZM244.461 14.88V18H246.461V14.88H244.461ZM245.461 17H232.453V19H245.461V17ZM233.453 18V1.2H231.453V18H233.453ZM232.453 2.2H245.149V0.199999H232.453V2.2ZM244.149 1.2V4.32H246.149V1.2H244.149ZM245.149 3.32H236.317V5.32H245.149V3.32ZM235.317 4.32V14.88H237.317V4.32H235.317ZM5.568 43.968V42.968H4.568V43.968H5.568ZM13.656 43.968H14.656V42.968H13.656V43.968ZM13.656 46.992V47.992H14.656V46.992H13.656ZM5.568 46.992H4.568V47.992H5.568V46.992ZM5.856 50.88H4.856V51.88H5.856V50.88ZM15 50.88H16V49.88H15V50.88ZM15 54V55H16V54H15ZM1.992 54H0.992V55H1.992V54ZM1.992 37.2V36.2H0.992V37.2H1.992ZM14.688 37.2H15.688V36.2H14.688V37.2ZM14.688 40.32V41.32H15.688V40.32H14.688ZM5.856 40.32V39.32H4.856V40.32H5.856ZM5.568 44.968H13.656V42.968H5.568V44.968ZM12.656 43.968V46.992H14.656V43.968H12.656ZM13.656 45.992H5.568V47.992H13.656V45.992ZM6.568 46.992V43.968H4.568V46.992H6.568ZM5.856 51.88H15V49.88H5.856V51.88ZM14 50.88V54H16V50.88H14ZM15 53H1.992V55H15V53ZM2.992 54V37.2H0.992V54H2.992ZM1.992 38.2H14.688V36.2H1.992V38.2ZM13.688 37.2V40.32H15.688V37.2H13.688ZM14.688 39.32H5.856V41.32H14.688V39.32ZM4.856 40.32V50.88H6.856V40.32H4.856ZM22.8992 54L21.981 54.3961L22.2415 55H22.8992V54ZM15.6512 37.2V36.2H14.1307L14.733 37.5961L15.6512 37.2ZM19.8512 37.2L20.7713 36.8082L20.5123 36.2H19.8512V37.2ZM26.1872 52.08V53.08H27.6999L27.1073 51.6882L26.1872 52.08ZM23.7152 52.08L22.7973 51.6832L22.1935 53.08H23.7152V52.08ZM30.1472 37.2V36.2H29.49L29.2293 36.8032L30.1472 37.2ZM34.0112 37.2L34.9289 37.5972L35.5337 36.2H34.0112V37.2ZM26.7392 54V55H27.396L27.6569 54.3972L26.7392 54ZM23.8174 53.6039L16.5694 36.8039L14.733 37.5961L21.981 54.3961L23.8174 53.6039ZM15.6512 38.2H19.8512V36.2H15.6512V38.2ZM18.9311 37.5918L25.2671 52.4718L27.1073 51.6882L20.7713 36.8082L18.9311 37.5918ZM26.1872 51.08H23.7152V53.08H26.1872V51.08ZM24.6331 52.4768L31.0651 37.5968L29.2293 36.8032L22.7973 51.6832L24.6331 52.4768ZM30.1472 38.2H34.0112V36.2H30.1472V38.2ZM33.0935 36.8028L25.8215 53.6028L27.6569 54.3972L34.9289 37.5972L33.0935 36.8028ZM26.7392 53H22.8992V55H26.7392V53ZM38.9899 43.968V42.968H37.9899V43.968H38.9899ZM47.0779 43.968H48.0779V42.968H47.0779V43.968ZM47.0779 46.992V47.992H48.0779V46.992H47.0779ZM38.9899 46.992H37.9899V47.992H38.9899V46.992ZM39.2779 50.88H38.2779V51.88H39.2779V50.88ZM48.4219 50.88H49.4219V49.88H48.4219V50.88ZM48.4219 54V55H49.4219V54H48.4219ZM35.4139 54H34.4139V55H35.4139V54ZM35.4139 37.2V36.2H34.4139V37.2H35.4139ZM48.1099 37.2H49.1099V36.2H48.1099V37.2ZM48.1099 40.32V41.32H49.1099V40.32H48.1099ZM39.2779 40.32V39.32H38.2779V40.32H39.2779ZM38.9899 44.968H47.0779V42.968H38.9899V44.968ZM46.0779 43.968V46.992H48.0779V43.968H46.0779ZM47.0779 45.992H38.9899V47.992H47.0779V45.992ZM39.9899 46.992V43.968H37.9899V46.992H39.9899ZM39.2779 51.88H48.4219V49.88H39.2779V51.88ZM47.4219 50.88V54H49.4219V50.88H47.4219ZM48.4219 53H35.4139V55H48.4219V53ZM36.4139 54V37.2H34.4139V54H36.4139ZM35.4139 38.2H48.1099V36.2H35.4139V38.2ZM47.1099 37.2V40.32H49.1099V37.2H47.1099ZM48.1099 39.32H39.2779V41.32H48.1099V39.32ZM38.2779 40.32V50.88H40.2779V40.32H38.2779ZM51.5154 54H50.5154V55H51.5154V54ZM51.5154 37.2V36.2H50.5154V37.2H51.5154ZM62.6754 37.944L62.2606 38.854L62.2718 38.8589L62.6754 37.944ZM65.1954 40.032L64.3567 40.5765L65.1954 40.032ZM65.1954 46.536L66.0298 47.0873L66.0342 47.0805L65.1954 46.536ZM62.6754 48.6L63.0791 49.5149L62.6754 48.6ZM53.6754 49.32L52.9733 48.608L51.2371 50.32H53.6754V49.32ZM55.4034 47.616H56.4034V45.2255L54.7013 46.904L55.4034 47.616ZM55.4034 54V55H56.4034V54H55.4034ZM62.1954 54L61.372 54.5674L61.67 55H62.1954V54ZM57.9954 47.904V46.904H56.0921L57.172 48.4714L57.9954 47.904ZM62.1474 47.904L62.9679 47.3323L62.6694 46.904H62.1474V47.904ZM66.3954 54V55H68.3111L67.2159 53.4283L66.3954 54ZM55.4034 48.048L54.6775 48.7357L56.4034 50.5576V48.048H55.4034ZM53.6754 46.224V45.224H51.3506L52.9495 46.9117L53.6754 46.224ZM61.2594 45.456L61.9136 46.2124L61.9194 46.2074L61.9251 46.2023L61.2594 45.456ZM53.6754 40.368L52.945 39.685L51.3713 41.368H53.6754V40.368ZM55.4034 38.52H56.4034V35.9864L54.673 37.837L55.4034 38.52ZM52.5154 54V37.2H50.5154V54H52.5154ZM51.5154 38.2H58.7874V36.2H51.5154V38.2ZM58.7874 38.2C60.1841 38.2 61.3319 38.4305 62.2606 38.8539L63.0902 37.0341C61.843 36.4655 60.3988 36.2 58.7874 36.2V38.2ZM62.2718 38.8589C63.1992 39.2681 63.8805 39.8429 64.3567 40.5765L66.0342 39.4875C65.3264 38.3971 64.3277 37.5799 63.0791 37.0291L62.2718 38.8589ZM64.3567 40.5765C64.8272 41.3014 65.0834 42.1932 65.0834 43.296H67.0834C67.0834 41.8708 66.7477 40.5866 66.0342 39.4875L64.3567 40.5765ZM65.0834 43.296C65.0834 44.38 64.8285 45.2646 64.3567 45.9915L66.0342 47.0805C66.7463 45.9834 67.0834 44.708 67.0834 43.296H65.0834ZM64.3611 45.9847C63.886 46.7038 63.2038 47.2739 62.2718 47.6851L63.0791 49.5149C64.323 48.9661 65.3209 48.1602 66.0298 47.0873L64.3611 45.9847ZM62.2718 47.6851C61.3399 48.0962 60.188 48.32 58.7874 48.32V50.32C60.3949 50.32 61.835 50.0638 63.0791 49.5149L62.2718 47.6851ZM58.7874 48.32H53.6754V50.32H58.7874V48.32ZM54.3776 50.032L56.1056 48.328L54.7013 46.904L52.9733 48.608L54.3776 50.032ZM54.4034 47.616V54H56.4034V47.616H54.4034ZM55.4034 53H51.5154V55H55.4034V53ZM63.0189 53.4326L58.8189 47.3366L57.172 48.4714L61.372 54.5674L63.0189 53.4326ZM57.9954 48.904H62.1474V46.904H57.9954V48.904ZM61.327 48.4757L65.575 54.5717L67.2159 53.4283L62.9679 47.3323L61.327 48.4757ZM66.3954 53H62.1954V55H66.3954V53ZM56.1294 47.3603L54.4014 45.5363L52.9495 46.9117L54.6775 48.7357L56.1294 47.3603ZM53.6754 47.224H58.5714V45.224H53.6754V47.224ZM58.5714 47.224C59.8888 47.224 61.0646 46.9466 61.9136 46.2124L60.6053 44.6996C60.2703 44.9894 59.6541 45.224 58.5714 45.224V47.224ZM61.9251 46.2023C62.7626 45.4553 63.1474 44.4459 63.1474 43.296H61.1474C61.1474 43.9701 60.9403 44.4007 60.5938 44.7097L61.9251 46.2023ZM63.1474 43.296C63.1474 42.1369 62.7664 41.1172 61.9136 40.3796L60.6053 41.8924C60.9364 42.1788 61.1474 42.5991 61.1474 43.296H63.1474ZM61.9136 40.3796C61.0646 39.6454 59.8888 39.368 58.5714 39.368V41.368C59.6541 41.368 60.2703 41.6026 60.6053 41.8924L61.9136 40.3796ZM58.5714 39.368H53.6754V41.368H58.5714V39.368ZM54.4059 41.051L56.1339 39.203L54.673 37.837L52.945 39.685L54.4059 41.051ZM54.4034 38.52V48.048H56.4034V38.52H54.4034ZM73.1055 54H72.1055V55H73.1055V54ZM73.1055 47.136L74.041 46.7828L72.1055 47.136H73.1055ZM73.9935 49.488L73.1366 50.0035L74.929 49.1348L73.9935 49.488ZM66.6015 37.2V36.2H64.8329L65.7446 37.7155L66.6015 37.2ZM70.7295 37.2L71.5868 36.6852L71.2954 36.2H70.7295V37.2ZM76.3935 46.632V47.632H78.1605L77.2508 46.1172L76.3935 46.632ZM74.0175 46.632L73.1612 46.1156L72.2467 47.632H74.0175V46.632ZM79.7055 37.2V36.2H79.1408L78.8492 36.6836L79.7055 37.2ZM83.5215 37.2L84.3784 37.7155L85.2901 36.2H83.5215V37.2ZM76.1295 49.488L75.1908 49.1432L76.9864 50.0035L76.1295 49.488ZM76.9935 47.136H77.9935L76.0548 46.7912L76.9935 47.136ZM76.9935 54V55H77.9935V54H76.9935ZM74.1055 54V47.136H72.1055V54H74.1055ZM72.17 47.4892L73.058 49.8412L74.929 49.1348L74.041 46.7828L72.17 47.4892ZM74.8504 48.9725L67.4584 36.6845L65.7446 37.7155L73.1366 50.0035L74.8504 48.9725ZM66.6015 38.2H70.7295V36.2H66.6015V38.2ZM69.8722 37.7148L75.5362 47.1468L77.2508 46.1172L71.5868 36.6852L69.8722 37.7148ZM76.3935 45.632H74.0175V47.632H76.3935V45.632ZM74.8738 47.1484L80.5618 37.7164L78.8492 36.6836L73.1612 46.1156L74.8738 47.1484ZM79.7055 38.2H83.5215V36.2H79.7055V38.2ZM82.6646 36.6845L75.2726 48.9725L76.9864 50.0035L84.3784 37.7155L82.6646 36.6845ZM77.0682 49.8328L77.9322 47.4808L76.0548 46.7912L75.1908 49.1432L77.0682 49.8328ZM75.9935 47.136V54H77.9935V47.136H75.9935ZM76.9935 53H73.1055V55H76.9935V53ZM88.3001 54H87.3001V55H88.3001V54ZM88.3001 40.368H89.3001V39.368H88.3001V40.368ZM82.9241 40.368H81.9241V41.368H82.9241V40.368ZM82.9241 37.2V36.2H81.9241V37.2H82.9241ZM97.5641 37.2H98.5641V36.2H97.5641V37.2ZM97.5641 40.368V41.368H98.5641V40.368H97.5641ZM92.1881 40.368V39.368H91.1881V40.368H92.1881ZM92.1881 54V55H93.1881V54H92.1881ZM89.3001 54V40.368H87.3001V54H89.3001ZM88.3001 39.368H82.9241V41.368H88.3001V39.368ZM83.9241 40.368V37.2H81.9241V40.368H83.9241ZM82.9241 38.2H97.5641V36.2H82.9241V38.2ZM96.5641 37.2V40.368H98.5641V37.2H96.5641ZM97.5641 39.368H92.1881V41.368H97.5641V39.368ZM91.1881 40.368V54H93.1881V40.368H91.1881ZM92.1881 53H88.3001V55H92.1881V53ZM111.176 37.2V36.2H110.176V37.2H111.176ZM115.064 37.2H116.064V36.2H115.064V37.2ZM115.064 54V55H116.064V54H115.064ZM111.176 54H110.176V55H111.176V54ZM103.544 54V55H104.544V54H103.544ZM99.6561 54H98.6561V55H99.6561V54ZM99.6561 37.2V36.2H98.6561V37.2H99.6561ZM103.544 37.2H104.544V36.2H103.544V37.2ZM111.464 47.112V48.112H112.464V47.112H111.464ZM103.256 47.112H102.256V48.112H103.256V47.112ZM103.256 43.824V42.824H102.256V43.824H103.256ZM111.464 43.824H112.464V42.824H111.464V43.824ZM111.176 38.2H115.064V36.2H111.176V38.2ZM114.064 37.2V54H116.064V37.2H114.064ZM115.064 53H111.176V55H115.064V53ZM112.176 54V37.2H110.176V54H112.176ZM103.544 53H99.6561V55H103.544V53ZM100.656 54V37.2H98.6561V54H100.656ZM99.6561 38.2H103.544V36.2H99.6561V38.2ZM102.544 37.2V54H104.544V37.2H102.544ZM111.464 46.112H103.256V48.112H111.464V46.112ZM104.256 47.112V43.824H102.256V47.112H104.256ZM103.256 44.824H111.464V42.824H103.256V44.824ZM110.464 43.824V47.112H112.464V43.824H110.464ZM119.039 54H118.039V55H119.039V54ZM119.039 37.2V36.2H118.039V37.2H119.039ZM122.927 37.2H123.927V36.2H122.927V37.2ZM122.927 54V55H123.927V54H122.927ZM120.039 54V37.2H118.039V54H120.039ZM119.039 38.2H122.927V36.2H119.039V38.2ZM121.927 37.2V54H123.927V37.2H121.927ZM122.927 53H119.039V55H122.927V53ZM126.914 54H125.914V55H126.914V54ZM126.914 37.2V36.2H125.914V37.2H126.914ZM130.13 37.2L130.903 36.5662L130.603 36.2H130.13V37.2ZM140.042 49.296V50.296H142.154L140.815 48.6622L140.042 49.296ZM138.482 49.296H137.482V50.296H138.482V49.296ZM138.482 37.2V36.2H137.482V37.2H138.482ZM142.322 37.2H143.322V36.2H142.322V37.2ZM142.322 54V55H143.322V54H142.322ZM139.13 54L138.357 54.6347L138.657 55H139.13V54ZM129.194 41.904V40.904H127.078L128.421 42.5387L129.194 41.904ZM130.754 41.904H131.754V40.904H130.754V41.904ZM130.754 54V55H131.754V54H130.754ZM127.914 54V37.2H125.914V54H127.914ZM126.914 38.2H130.13V36.2H126.914V38.2ZM129.356 37.8338L139.268 49.9298L140.815 48.6622L130.903 36.5662L129.356 37.8338ZM140.042 48.296H138.482V50.296H140.042V48.296ZM139.482 49.296V37.2H137.482V49.296H139.482ZM138.482 38.2H142.322V36.2H138.482V38.2ZM141.322 37.2V54H143.322V37.2H141.322ZM142.322 53H139.13V55H142.322V53ZM139.903 53.3653L129.967 41.2693L128.421 42.5387L138.357 54.6347L139.903 53.3653ZM129.194 42.904H130.754V40.904H129.194V42.904ZM129.754 41.904V54H131.754V41.904H129.754ZM130.754 53H126.914V55H130.754V53ZM150.737 53.664L150.372 54.5952L150.38 54.5984L150.389 54.6014L150.737 53.664ZM147.833 51.84L147.14 52.5611L147.147 52.5678L147.833 51.84ZM145.913 49.08L144.992 49.4706L144.997 49.4823L145.913 49.08ZM145.913 42.12L144.997 41.7177L144.992 41.7295L145.913 42.12ZM147.857 39.36L148.542 40.0878L147.857 39.36ZM150.785 37.56L151.133 38.4975L151.145 38.493L150.785 37.56ZM158.489 37.656L158.102 38.5783L158.107 38.5802L158.489 37.656ZM161.513 39.816L162.191 40.5508L162.902 39.8943L162.269 39.162L161.513 39.816ZM159.017 42.12L158.292 42.8088L158.971 43.5234L159.695 42.8548L159.017 42.12ZM157.025 40.704L156.619 41.6178L156.627 41.6216L156.636 41.6252L157.025 40.704ZM150.689 41.712L149.993 40.9934L149.987 40.9991L149.982 41.0049L150.689 41.712ZM149.561 43.416L148.637 43.033L148.633 43.0427L148.629 43.0525L149.561 43.416ZM149.561 47.76L148.629 48.1235L148.633 48.1333L148.637 48.143L149.561 47.76ZM150.689 49.488L149.97 50.1834L149.981 50.1952L149.993 50.2066L150.689 49.488ZM152.417 50.592L152.053 51.5236L152.061 51.5265L152.417 50.592ZM156.857 50.616L157.173 51.5648L157.185 51.5605L156.857 50.616ZM158.993 49.344L159.779 48.7259L159.133 47.9043L158.34 48.586L158.993 49.344ZM161.201 52.152L161.803 52.9503L162.617 52.3359L161.987 51.5339L161.201 52.152ZM158.009 53.736L157.719 52.7789L157.715 52.7799L158.009 53.736ZM157.649 51.648H156.649V52.5161L157.508 52.6381L157.649 51.648ZM157.649 45.336V44.336H156.649V45.336H157.649ZM161.201 45.336H162.201V44.336H161.201V45.336ZM161.201 52.152L161.06 53.1421L162.201 53.3039V52.152H161.201ZM154.409 53.288C153.186 53.288 152.082 53.0968 151.085 52.7266L150.389 54.6014C151.632 55.0632 152.975 55.288 154.409 55.288V53.288ZM151.101 52.7328C150.112 52.3456 149.254 51.8052 148.518 51.1122L147.147 52.5678C148.075 53.4428 149.154 54.1184 150.372 54.5952L151.101 52.7328ZM148.526 51.1189C147.806 50.4273 147.241 49.6163 146.828 48.6777L144.997 49.4823C145.513 50.6557 146.228 51.6847 147.14 52.5611L148.526 51.1189ZM146.833 48.6894C146.443 47.769 146.241 46.7435 146.241 45.6H144.241C144.241 46.9845 144.487 48.279 144.992 49.4706L146.833 48.6894ZM146.241 45.6C146.241 44.4565 146.443 43.431 146.833 42.5105L144.992 41.7295C144.487 42.921 144.241 44.2155 144.241 45.6H146.241ZM146.828 42.5223C147.239 41.588 147.809 40.7789 148.542 40.0878L147.171 38.6322C146.24 39.5091 145.515 40.54 144.997 41.7177L146.828 42.5223ZM148.542 40.0878C149.273 39.3997 150.133 38.869 151.133 38.4974L150.437 36.6226C149.197 37.083 148.105 37.7523 147.171 38.6322L148.542 40.0878ZM151.145 38.493C152.137 38.1103 153.245 37.912 154.481 37.912V35.912C153.028 35.912 151.673 36.1457 150.425 36.627L151.145 38.493ZM154.481 37.912C155.857 37.912 157.059 38.1411 158.102 38.5783L158.875 36.7337C157.551 36.1789 156.08 35.912 154.481 35.912V37.912ZM158.107 38.5802C159.169 39.0191 160.046 39.6489 160.756 40.47L162.269 39.162C161.347 38.0951 160.209 37.2849 158.871 36.7318L158.107 38.5802ZM160.834 39.0812L158.338 41.3852L159.695 42.8548L162.191 40.5508L160.834 39.0812ZM159.742 41.4313C159.051 40.7044 158.276 40.1468 157.414 39.7827L156.636 41.6252C157.213 41.8692 157.766 42.2556 158.292 42.8088L159.742 41.4313ZM157.431 39.7902C156.573 39.4091 155.65 39.224 154.673 39.224V41.224C155.392 41.224 156.036 41.3589 156.619 41.6178L157.431 39.7902ZM154.673 39.224C153.751 39.224 152.885 39.3688 152.085 39.6735L152.797 41.5425C153.341 41.3352 153.962 41.224 154.673 41.224V39.224ZM152.085 39.6735C151.292 39.9757 150.591 40.4152 149.993 40.9934L151.384 42.4306C151.779 42.0488 152.246 41.7523 152.797 41.5425L152.085 39.6735ZM149.982 41.0049C149.405 41.5819 148.957 42.2615 148.637 43.033L150.484 43.799C150.709 43.2585 151.013 42.8021 151.396 42.4191L149.982 41.0049ZM148.629 43.0525C148.322 43.839 148.177 44.6924 148.177 45.6H150.177C150.177 44.9076 150.287 44.305 150.492 43.7795L148.629 43.0525ZM148.177 45.6C148.177 46.4943 148.323 47.3393 148.629 48.1235L150.492 47.3965C150.286 46.8687 150.177 46.2737 150.177 45.6H148.177ZM148.637 48.143C148.956 48.9117 149.4 49.5945 149.97 50.1834L151.407 48.7926C151.017 48.3895 150.71 47.9203 150.484 47.377L148.637 48.143ZM149.993 50.2066C150.587 50.7808 151.276 51.2203 152.053 51.5236L152.78 49.6604C152.245 49.4517 151.783 49.1552 151.384 48.7694L149.993 50.2066ZM152.061 51.5265C152.858 51.8304 153.717 51.976 154.625 51.976V49.976C153.933 49.976 153.319 49.8656 152.773 49.6575L152.061 51.5265ZM154.625 51.976C155.499 51.976 156.35 51.8391 157.173 51.5647L156.54 49.6673C155.924 49.8729 155.287 49.976 154.625 49.976V51.976ZM157.185 51.5605C158.058 51.257 158.877 50.7627 159.645 50.102L158.34 48.586C157.732 49.1093 157.128 49.463 156.528 49.6715L157.185 51.5605ZM158.207 49.9621L160.415 52.7701L161.987 51.5339L159.779 48.7259L158.207 49.9621ZM160.598 51.3537C159.79 51.9632 158.835 52.4412 157.719 52.7789L158.298 54.6931C159.615 54.2948 160.787 53.7168 161.803 52.9503L160.598 51.3537ZM157.715 52.7799C156.606 53.1202 155.505 53.288 154.409 53.288V55.288C155.713 55.288 157.011 55.0878 158.302 54.6921L157.715 52.7799ZM158.649 51.648V45.336H156.649V51.648H158.649ZM157.649 46.336H161.201V44.336H157.649V46.336ZM160.201 45.336V52.152H162.201V45.336H160.201ZM161.341 51.1619L157.789 50.6579L157.508 52.6381L161.06 53.1421L161.341 51.1619Z" fill="#333333" mask="url(#path-1-outside-1_1_553)"/>
</svg>
