<svg width="343" height="27" viewBox="0 0 343 27" fill="none" xmlns="http://www.w3.org/2000/svg">
<mask id="path-1-outside-1_1_145" maskUnits="userSpaceOnUse" x="-1" y="-1" width="345" height="29" fill="black">
<rect fill="white" x="-1" y="-1" width="345" height="29"/>
<path d="M9.036 26L0.792 0.799998H6.84L14.004 23.12H10.98L18.468 0.799998H23.868L31.068 23.12H28.152L35.496 0.799998H41.076L32.832 26H26.568L20.196 6.416H21.852L15.3 26H9.036ZM49.6958 10.952H61.8278V15.488H49.6958V10.952ZM50.1278 21.32H63.8438V26H44.3318V0.799998H63.3758V5.48H50.1278V21.32Z"/>
<path d="M89.8754 26.432C86.2994 26.432 83.5034 25.436 81.4874 23.444C79.4714 21.452 78.4634 18.608 78.4634 14.912V0.799998H84.2954V14.696C84.2954 17.096 84.7874 18.824 85.7714 19.88C86.7554 20.936 88.1354 21.464 89.9114 21.464C91.6874 21.464 93.0674 20.936 94.0514 19.88C95.0354 18.824 95.5274 17.096 95.5274 14.696V0.799998H101.287V14.912C101.287 18.608 100.279 21.452 98.2634 23.444C96.2474 25.436 93.4514 26.432 89.8754 26.432ZM107.051 26V0.799998H111.875L126.743 18.944H124.402V0.799998H130.163V26H125.375L110.471 7.856H112.811V26H107.051ZM136.125 26V0.799998H147.573C150.309 0.799998 152.721 1.328 154.809 2.384C156.897 3.416 158.529 4.868 159.705 6.74C160.881 8.612 161.469 10.832 161.469 13.4C161.469 15.944 160.881 18.164 159.705 20.06C158.529 21.932 156.897 23.396 154.809 24.452C152.721 25.484 150.309 26 147.573 26H136.125ZM141.957 21.212H147.285C148.965 21.212 150.417 20.9 151.641 20.276C152.889 19.628 153.849 18.716 154.521 17.54C155.217 16.364 155.565 14.984 155.565 13.4C155.565 11.792 155.217 10.412 154.521 9.26C153.849 8.084 152.889 7.184 151.641 6.56C150.417 5.912 148.965 5.588 147.285 5.588H141.957V21.212ZM171.231 10.952H183.363V15.488H171.231V10.952ZM171.663 21.32H185.379V26H165.867V0.799998H184.911V5.48H171.663V21.32ZM190.019 26V0.799998H200.927C203.183 0.799998 205.127 1.172 206.759 1.916C208.391 2.636 209.651 3.68 210.539 5.048C211.427 6.416 211.871 8.048 211.871 9.944C211.871 11.816 211.427 13.436 210.539 14.804C209.651 16.148 208.391 17.18 206.759 17.9C205.127 18.62 203.183 18.98 200.927 18.98H193.259L195.851 16.424V26H190.019ZM206.039 26L199.739 16.856H205.967L212.339 26H206.039ZM195.851 17.072L193.259 14.336H200.603C202.403 14.336 203.747 13.952 204.635 13.184C205.523 12.392 205.967 11.312 205.967 9.944C205.967 8.552 205.523 7.472 204.635 6.704C203.747 5.936 202.403 5.552 200.603 5.552H193.259L195.851 2.78V17.072ZM224.772 26.432C222.756 26.432 220.824 26.168 218.976 25.64C217.128 25.088 215.64 24.38 214.512 23.516L216.492 19.124C217.572 19.892 218.844 20.528 220.308 21.032C221.796 21.512 223.296 21.752 224.808 21.752C225.96 21.752 226.884 21.644 227.58 21.428C228.3 21.188 228.828 20.864 229.164 20.456C229.5 20.048 229.668 19.58 229.668 19.052C229.668 18.38 229.404 17.852 228.876 17.468C228.348 17.06 227.652 16.736 226.788 16.496C225.924 16.232 224.964 15.992 223.908 15.776C222.876 15.536 221.832 15.248 220.776 14.912C219.744 14.576 218.796 14.144 217.932 13.616C217.068 13.088 216.36 12.392 215.808 11.528C215.28 10.664 215.016 9.56 215.016 8.216C215.016 6.776 215.4 5.468 216.168 4.292C216.96 3.092 218.136 2.144 219.696 1.448C221.28 0.727999 223.26 0.368 225.636 0.368C227.22 0.368 228.78 0.559999 230.316 0.943999C231.852 1.304 233.208 1.856 234.384 2.6L232.584 7.028C231.408 6.356 230.232 5.864 229.056 5.552C227.88 5.216 226.728 5.048 225.6 5.048C224.472 5.048 223.548 5.18 222.828 5.444C222.108 5.708 221.592 6.056 221.28 6.488C220.968 6.896 220.812 7.376 220.812 7.928C220.812 8.576 221.076 9.104 221.604 9.512C222.132 9.896 222.828 10.208 223.692 10.448C224.556 10.688 225.504 10.928 226.536 11.168C227.592 11.408 228.636 11.684 229.668 11.996C230.724 12.308 231.684 12.728 232.548 13.256C233.412 13.784 234.108 14.48 234.636 15.344C235.188 16.208 235.464 17.3 235.464 18.62C235.464 20.036 235.068 21.332 234.276 22.508C233.484 23.684 232.296 24.632 230.712 25.352C229.152 26.072 227.172 26.432 224.772 26.432ZM244.317 26V5.552H236.253V0.799998H258.213V5.552H250.149V26H244.317ZM256.774 26L268.006 0.799998H273.766L285.034 26H278.914L269.698 3.752H272.002L262.75 26H256.774ZM262.39 20.6L263.938 16.172H276.898L278.482 20.6H262.39ZM287.648 26V0.799998H292.472L307.34 18.944H305V0.799998H310.76V26H305.972L291.068 7.856H293.408V26H287.648ZM316.722 26V0.799998H328.17C330.906 0.799998 333.318 1.328 335.406 2.384C337.494 3.416 339.126 4.868 340.302 6.74C341.478 8.612 342.066 10.832 342.066 13.4C342.066 15.944 341.478 18.164 340.302 20.06C339.126 21.932 337.494 23.396 335.406 24.452C333.318 25.484 330.906 26 328.17 26H316.722ZM322.554 21.212H327.882C329.562 21.212 331.014 20.9 332.238 20.276C333.486 19.628 334.446 18.716 335.118 17.54C335.814 16.364 336.162 14.984 336.162 13.4C336.162 11.792 335.814 10.412 335.118 9.26C334.446 8.084 333.486 7.184 332.238 6.56C331.014 5.912 329.562 5.588 327.882 5.588H322.554V21.212Z"/>
</mask>
<path d="M89.8754 26.432C86.2994 26.432 83.5034 25.436 81.4874 23.444C79.4714 21.452 78.4634 18.608 78.4634 14.912V0.799998H84.2954V14.696C84.2954 17.096 84.7874 18.824 85.7714 19.88C86.7554 20.936 88.1354 21.464 89.9114 21.464C91.6874 21.464 93.0674 20.936 94.0514 19.88C95.0354 18.824 95.5274 17.096 95.5274 14.696V0.799998H101.287V14.912C101.287 18.608 100.279 21.452 98.2634 23.444C96.2474 25.436 93.4514 26.432 89.8754 26.432ZM107.051 26V0.799998H111.875L126.743 18.944H124.402V0.799998H130.163V26H125.375L110.471 7.856H112.811V26H107.051ZM136.125 26V0.799998H147.573C150.309 0.799998 152.721 1.328 154.809 2.384C156.897 3.416 158.529 4.868 159.705 6.74C160.881 8.612 161.469 10.832 161.469 13.4C161.469 15.944 160.881 18.164 159.705 20.06C158.529 21.932 156.897 23.396 154.809 24.452C152.721 25.484 150.309 26 147.573 26H136.125ZM141.957 21.212H147.285C148.965 21.212 150.417 20.9 151.641 20.276C152.889 19.628 153.849 18.716 154.521 17.54C155.217 16.364 155.565 14.984 155.565 13.4C155.565 11.792 155.217 10.412 154.521 9.26C153.849 8.084 152.889 7.184 151.641 6.56C150.417 5.912 148.965 5.588 147.285 5.588H141.957V21.212ZM171.231 10.952H183.363V15.488H171.231V10.952ZM171.663 21.32H185.379V26H165.867V0.799998H184.911V5.48H171.663V21.32ZM190.019 26V0.799998H200.927C203.183 0.799998 205.127 1.172 206.759 1.916C208.391 2.636 209.651 3.68 210.539 5.048C211.427 6.416 211.871 8.048 211.871 9.944C211.871 11.816 211.427 13.436 210.539 14.804C209.651 16.148 208.391 17.18 206.759 17.9C205.127 18.62 203.183 18.98 200.927 18.98H193.259L195.851 16.424V26H190.019ZM206.039 26L199.739 16.856H205.967L212.339 26H206.039ZM195.851 17.072L193.259 14.336H200.603C202.403 14.336 203.747 13.952 204.635 13.184C205.523 12.392 205.967 11.312 205.967 9.944C205.967 8.552 205.523 7.472 204.635 6.704C203.747 5.936 202.403 5.552 200.603 5.552H193.259L195.851 2.78V17.072ZM224.772 26.432C222.756 26.432 220.824 26.168 218.976 25.64C217.128 25.088 215.64 24.38 214.512 23.516L216.492 19.124C217.572 19.892 218.844 20.528 220.308 21.032C221.796 21.512 223.296 21.752 224.808 21.752C225.96 21.752 226.884 21.644 227.58 21.428C228.3 21.188 228.828 20.864 229.164 20.456C229.5 20.048 229.668 19.58 229.668 19.052C229.668 18.38 229.404 17.852 228.876 17.468C228.348 17.06 227.652 16.736 226.788 16.496C225.924 16.232 224.964 15.992 223.908 15.776C222.876 15.536 221.832 15.248 220.776 14.912C219.744 14.576 218.796 14.144 217.932 13.616C217.068 13.088 216.36 12.392 215.808 11.528C215.28 10.664 215.016 9.56 215.016 8.216C215.016 6.776 215.4 5.468 216.168 4.292C216.96 3.092 218.136 2.144 219.696 1.448C221.28 0.727999 223.26 0.368 225.636 0.368C227.22 0.368 228.78 0.559999 230.316 0.943999C231.852 1.304 233.208 1.856 234.384 2.6L232.584 7.028C231.408 6.356 230.232 5.864 229.056 5.552C227.88 5.216 226.728 5.048 225.6 5.048C224.472 5.048 223.548 5.18 222.828 5.444C222.108 5.708 221.592 6.056 221.28 6.488C220.968 6.896 220.812 7.376 220.812 7.928C220.812 8.576 221.076 9.104 221.604 9.512C222.132 9.896 222.828 10.208 223.692 10.448C224.556 10.688 225.504 10.928 226.536 11.168C227.592 11.408 228.636 11.684 229.668 11.996C230.724 12.308 231.684 12.728 232.548 13.256C233.412 13.784 234.108 14.48 234.636 15.344C235.188 16.208 235.464 17.3 235.464 18.62C235.464 20.036 235.068 21.332 234.276 22.508C233.484 23.684 232.296 24.632 230.712 25.352C229.152 26.072 227.172 26.432 224.772 26.432ZM244.317 26V5.552H236.253V0.799998H258.213V5.552H250.149V26H244.317ZM256.774 26L268.006 0.799998H273.766L285.034 26H278.914L269.698 3.752H272.002L262.75 26H256.774ZM262.39 20.6L263.938 16.172H276.898L278.482 20.6H262.39ZM287.648 26V0.799998H292.472L307.34 18.944H305V0.799998H310.76V26H305.972L291.068 7.856H293.408V26H287.648ZM316.722 26V0.799998H328.17C330.906 0.799998 333.318 1.328 335.406 2.384C337.494 3.416 339.126 4.868 340.302 6.74C341.478 8.612 342.066 10.832 342.066 13.4C342.066 15.944 341.478 18.164 340.302 20.06C339.126 21.932 337.494 23.396 335.406 24.452C333.318 25.484 330.906 26 328.17 26H316.722ZM322.554 21.212H327.882C329.562 21.212 331.014 20.9 332.238 20.276C333.486 19.628 334.446 18.716 335.118 17.54C335.814 16.364 336.162 14.984 336.162 13.4C336.162 11.792 335.814 10.412 335.118 9.26C334.446 8.084 333.486 7.184 332.238 6.56C331.014 5.912 329.562 5.588 327.882 5.588H322.554V21.212Z" fill="#333333"/>
<path d="M9.036 26L8.08557 26.3109L8.31099 27H9.036V26ZM0.792 0.799998V-0.200002H-0.587294L-0.158434 1.11093L0.792 0.799998ZM6.84 0.799998L7.79216 0.494387L7.56928 -0.200002H6.84V0.799998ZM14.004 23.12V24.12H15.3752L14.9562 22.8144L14.004 23.12ZM10.98 23.12L10.0319 22.8019L9.58974 24.12H10.98V23.12ZM18.468 0.799998V-0.200002H17.7487L17.5199 0.481936L18.468 0.799998ZM23.868 0.799998L24.8197 0.492995L24.5962 -0.200002H23.868V0.799998ZM31.068 23.12V24.12H32.4413L32.0197 22.813L31.068 23.12ZM28.152 23.12L27.2021 22.8075L26.7702 24.12H28.152V23.12ZM35.496 0.799998V-0.200002H34.7723L34.5461 0.48745L35.496 0.799998ZM41.076 0.799998L42.0264 1.11093L42.4553 -0.200002H41.076V0.799998ZM32.832 26V27H33.557L33.7824 26.3109L32.832 26ZM26.568 26L25.6171 26.3094L25.8418 27H26.568V26ZM20.196 6.416V5.416H18.819L19.2451 6.7254L20.196 6.416ZM21.852 6.416L22.8003 6.73327L23.241 5.416H21.852V6.416ZM15.3 26V27H16.0199L16.2483 26.3173L15.3 26ZM9.98643 25.6891L1.74243 0.489071L-0.158434 1.11093L8.08557 26.3109L9.98643 25.6891ZM0.792 1.8H6.84V-0.200002H0.792V1.8ZM5.88784 1.10561L13.0518 23.4256L14.9562 22.8144L7.79216 0.494387L5.88784 1.10561ZM14.004 22.12H10.98V24.12H14.004V22.12ZM11.9281 23.4381L19.4161 1.11806L17.5199 0.481936L10.0319 22.8019L11.9281 23.4381ZM18.468 1.8H23.868V-0.200002H18.468V1.8ZM22.9163 1.107L30.1163 23.427L32.0197 22.813L24.8197 0.492995L22.9163 1.107ZM31.068 22.12H28.152V24.12H31.068V22.12ZM29.1019 23.4325L36.4459 1.11255L34.5461 0.48745L27.2021 22.8075L29.1019 23.4325ZM35.496 1.8H41.076V-0.200002H35.496V1.8ZM40.1256 0.489071L31.8816 25.6891L33.7824 26.3109L42.0264 1.11093L40.1256 0.489071ZM32.832 25H26.568V27H32.832V25ZM27.5189 25.6906L21.1469 6.1066L19.2451 6.7254L25.6171 26.3094L27.5189 25.6906ZM20.196 7.416H21.852V5.416H20.196V7.416ZM20.9037 6.09873L14.3517 25.6827L16.2483 26.3173L22.8003 6.73327L20.9037 6.09873ZM15.3 25H9.036V27H15.3V25ZM49.6958 10.952V9.952H48.6958V10.952H49.6958ZM61.8278 10.952H62.8278V9.952H61.8278V10.952ZM61.8278 15.488V16.488H62.8278V15.488H61.8278ZM49.6958 15.488H48.6958V16.488H49.6958V15.488ZM50.1278 21.32H49.1278V22.32H50.1278V21.32ZM63.8438 21.32H64.8438V20.32H63.8438V21.32ZM63.8438 26V27H64.8438V26H63.8438ZM44.3317 26H43.3317V27H44.3317V26ZM44.3317 0.799998V-0.200002H43.3317V0.799998H44.3317ZM63.3758 0.799998H64.3758V-0.200002H63.3758V0.799998ZM63.3758 5.48V6.48H64.3758V5.48H63.3758ZM50.1278 5.48V4.48H49.1278V5.48H50.1278ZM49.6958 11.952H61.8278V9.952H49.6958V11.952ZM60.8278 10.952V15.488H62.8278V10.952H60.8278ZM61.8278 14.488H49.6958V16.488H61.8278V14.488ZM50.6958 15.488V10.952H48.6958V15.488H50.6958ZM50.1278 22.32H63.8438V20.32H50.1278V22.32ZM62.8438 21.32V26H64.8438V21.32H62.8438ZM63.8438 25H44.3317V27H63.8438V25ZM45.3317 26V0.799998H43.3317V26H45.3317ZM44.3317 1.8H63.3758V-0.200002H44.3317V1.8ZM62.3758 0.799998V5.48H64.3758V0.799998H62.3758ZM63.3758 4.48H50.1278V6.48H63.3758V4.48ZM49.1278 5.48V21.32H51.1278V5.48H49.1278ZM81.4874 23.444L82.1903 22.7327L81.4874 23.444ZM78.4634 0.799998V-0.200002H77.4634V0.799998H78.4634ZM84.2954 0.799998H85.2954V-0.200002H84.2954V0.799998ZM85.7714 19.88L85.0398 20.5617L85.7714 19.88ZM94.0514 19.88L94.783 20.5617H94.783L94.0514 19.88ZM95.5274 0.799998V-0.200002H94.5274V0.799998H95.5274ZM101.287 0.799998H102.287V-0.200002H101.287V0.799998ZM98.2634 23.444L98.9663 24.1553L98.2634 23.444ZM89.8754 25.432C86.4902 25.432 83.9732 24.4944 82.1903 22.7327L80.7845 24.1553C83.0336 26.3776 86.1087 27.432 89.8754 27.432V25.432ZM82.1903 22.7327C80.4173 20.9808 79.4634 18.4255 79.4634 14.912H77.4634C77.4634 18.7905 78.5256 21.9232 80.7845 24.1553L82.1903 22.7327ZM79.4634 14.912V0.799998H77.4634V14.912H79.4634ZM78.4634 1.8H84.2954V-0.200002H78.4634V1.8ZM83.2954 0.799998V14.696H85.2954V0.799998H83.2954ZM83.2954 14.696C83.2954 17.1919 83.7999 19.2311 85.0398 20.5617L86.503 19.1983C85.7749 18.4169 85.2954 17.0001 85.2954 14.696H83.2954ZM85.0398 20.5617C86.2552 21.866 87.9266 22.464 89.9114 22.464V20.464C88.3442 20.464 87.2557 20.006 86.503 19.1983L85.0398 20.5617ZM89.9114 22.464C91.8962 22.464 93.5676 21.866 94.783 20.5617L93.3198 19.1983C92.5672 20.006 91.4786 20.464 89.9114 20.464V22.464ZM94.783 20.5617C96.0229 19.2311 96.5274 17.1919 96.5274 14.696H94.5274C94.5274 17.0001 94.0479 18.4169 93.3198 19.1983L94.783 20.5617ZM96.5274 14.696V0.799998H94.5274V14.696H96.5274ZM95.5274 1.8H101.287V-0.200002H95.5274V1.8ZM100.287 0.799998V14.912H102.287V0.799998H100.287ZM100.287 14.912C100.287 18.4255 99.3336 20.9808 97.5605 22.7327L98.9663 24.1553C101.225 21.9232 102.287 18.7905 102.287 14.912H100.287ZM97.5605 22.7327C95.7776 24.4944 93.2607 25.432 89.8754 25.432V27.432C93.6422 27.432 96.7172 26.3776 98.9663 24.1553L97.5605 22.7327ZM107.05 26H106.05V27H107.05V26ZM107.05 0.799998V-0.200002H106.05V0.799998H107.05ZM111.874 0.799998L112.648 0.166176L112.348 -0.200002H111.874V0.799998ZM126.743 18.944V19.944H128.855L127.516 18.3102L126.743 18.944ZM124.402 18.944H123.402V19.944H124.402V18.944ZM124.402 0.799998V-0.200002H123.402V0.799998H124.402ZM130.163 0.799998H131.163V-0.200002H130.163V0.799998ZM130.163 26V27H131.163V26H130.163ZM125.374 26L124.602 26.6347L124.902 27H125.374V26ZM110.47 7.856V6.856H108.355L109.698 8.49074L110.47 7.856ZM112.811 7.856H113.811V6.856H112.811V7.856ZM112.811 26V27H113.811V26H112.811ZM108.05 26V0.799998H106.05V26H108.05ZM107.05 1.8H111.874V-0.200002H107.05V1.8ZM111.101 1.43382L125.969 19.5778L127.516 18.3102L112.648 0.166176L111.101 1.43382ZM126.743 17.944H124.402V19.944H126.743V17.944ZM125.402 18.944V0.799998H123.402V18.944H125.402ZM124.402 1.8H130.163V-0.200002H124.402V1.8ZM129.163 0.799998V26H131.163V0.799998H129.163ZM130.163 25H125.374V27H130.163V25ZM126.147 25.3653L111.243 7.22126L109.698 8.49074L124.602 26.6347L126.147 25.3653ZM110.47 8.856H112.811V6.856H110.47V8.856ZM111.811 7.856V26H113.811V7.856H111.811ZM112.811 25H107.05V27H112.811V25ZM136.125 26H135.125V27H136.125V26ZM136.125 0.799998V-0.200002H135.125V0.799998H136.125ZM154.809 2.384L154.357 3.2764L154.366 3.28048L154.809 2.384ZM159.705 20.06L160.552 20.592L160.555 20.5871L159.705 20.06ZM154.809 24.452L155.252 25.3485L155.26 25.3444L154.809 24.452ZM141.957 21.212H140.957V22.212H141.957V21.212ZM151.641 20.276L152.095 21.1669L152.102 21.1635L151.641 20.276ZM154.521 17.54L153.66 17.0307L153.656 17.0372L153.652 17.0439L154.521 17.54ZM154.521 9.26L153.652 9.75614L153.659 9.7667L153.665 9.77711L154.521 9.26ZM151.641 6.56L151.173 7.44379L151.183 7.44923L151.194 7.45443L151.641 6.56ZM141.957 5.588V4.588H140.957V5.588H141.957ZM137.125 26V0.799998H135.125V26H137.125ZM136.125 1.8H147.573V-0.200002H136.125V1.8ZM147.573 1.8C150.178 1.8 152.431 2.30219 154.357 3.27637L155.26 1.49163C153.01 0.353806 150.439 -0.200002 147.573 -0.200002V1.8ZM154.366 3.28048C156.297 4.23518 157.786 5.56495 158.858 7.27195L160.551 6.20805C159.272 4.17104 157.496 2.59682 155.252 1.48752L154.366 3.28048ZM158.858 7.27195C159.919 8.96023 160.469 10.9892 160.469 13.4H162.469C162.469 10.6748 161.843 8.26377 160.551 6.20805L158.858 7.27195ZM160.469 13.4C160.469 15.7845 159.92 17.8165 158.855 19.5329L160.555 20.5871C161.842 18.5115 162.469 16.1035 162.469 13.4H160.469ZM158.858 19.528C157.784 21.2371 156.293 22.5806 154.357 23.5596L155.26 25.3444C157.5 24.2114 159.273 22.6269 160.551 20.5919L158.858 19.528ZM154.366 23.5555C152.438 24.5085 150.182 25 147.573 25V27C150.436 27 153.004 26.4595 155.252 25.3485L154.366 23.5555ZM147.573 25H136.125V27H147.573V25ZM141.957 22.212H147.285V20.212H141.957V22.212ZM147.285 22.212C149.088 22.212 150.702 21.8769 152.095 21.1669L151.187 19.3851C150.131 19.9231 148.841 20.212 147.285 20.212V22.212ZM152.102 21.1635C153.513 20.4305 154.618 19.3856 155.389 18.0361L153.652 17.0439C153.08 18.0464 152.264 18.8255 151.18 19.3885L152.102 21.1635ZM155.381 18.0493C156.182 16.696 156.565 15.1343 156.565 13.4H154.565C154.565 14.8337 154.251 16.032 153.66 17.0307L155.381 18.0493ZM156.565 13.4C156.565 11.6454 156.184 10.0789 155.377 8.74288L153.665 9.77711C154.25 10.7451 154.565 11.9386 154.565 13.4H156.565ZM155.389 8.76386C154.616 7.41105 153.507 6.37504 152.088 5.66557L151.194 7.45443C152.271 7.99296 153.082 8.75695 153.652 9.75614L155.389 8.76386ZM152.109 5.67621C150.713 4.93727 149.093 4.588 147.285 4.588V6.588C148.836 6.588 150.121 6.88673 151.173 7.44379L152.109 5.67621ZM147.285 4.588H141.957V6.588H147.285V4.588ZM140.957 5.588V21.212H142.957V5.588H140.957ZM171.231 10.952V9.952H170.231V10.952H171.231ZM183.363 10.952H184.363V9.952H183.363V10.952ZM183.363 15.488V16.488H184.363V15.488H183.363ZM171.231 15.488H170.231V16.488H171.231V15.488ZM171.663 21.32H170.663V22.32H171.663V21.32ZM185.379 21.32H186.379V20.32H185.379V21.32ZM185.379 26V27H186.379V26H185.379ZM165.867 26H164.867V27H165.867V26ZM165.867 0.799998V-0.200002H164.867V0.799998H165.867ZM184.911 0.799998H185.911V-0.200002H184.911V0.799998ZM184.911 5.48V6.48H185.911V5.48H184.911ZM171.663 5.48V4.48H170.663V5.48H171.663ZM171.231 11.952H183.363V9.952H171.231V11.952ZM182.363 10.952V15.488H184.363V10.952H182.363ZM183.363 14.488H171.231V16.488H183.363V14.488ZM172.231 15.488V10.952H170.231V15.488H172.231ZM171.663 22.32H185.379V20.32H171.663V22.32ZM184.379 21.32V26H186.379V21.32H184.379ZM185.379 25H165.867V27H185.379V25ZM166.867 26V0.799998H164.867V26H166.867ZM165.867 1.8H184.911V-0.200002H165.867V1.8ZM183.911 0.799998V5.48H185.911V0.799998H183.911ZM184.911 4.48H171.663V6.48H184.911V4.48ZM170.663 5.48V21.32H172.663V5.48H170.663ZM190.019 26H189.019V27H190.019V26ZM190.019 0.799998V-0.200002H189.019V0.799998H190.019ZM206.759 1.916L206.344 2.82597L206.356 2.83092L206.759 1.916ZM210.539 5.048L209.7 5.59247L210.539 5.048ZM210.539 14.804L211.374 15.3553L211.378 15.3485L210.539 14.804ZM206.759 17.9L207.163 18.8149L206.759 17.9ZM193.259 18.98L192.557 18.268L190.821 19.98H193.259V18.98ZM195.851 16.424H196.851V14.0335L195.149 15.712L195.851 16.424ZM195.851 26V27H196.851V26H195.851ZM206.039 26L205.216 26.5674L205.514 27H206.039V26ZM199.739 16.856V15.856H197.836L198.916 17.4234L199.739 16.856ZM205.967 16.856L206.788 16.2843L206.489 15.856H205.967V16.856ZM212.339 26V27H214.255L213.16 25.4283L212.339 26ZM195.851 17.072L195.125 17.7597L196.851 19.5816V17.072H195.851ZM193.259 14.336V13.336H190.934L192.533 15.0237L193.259 14.336ZM204.635 13.184L205.289 13.9404L205.295 13.9354L205.301 13.9303L204.635 13.184ZM193.259 5.552L192.529 4.86901L190.955 6.552H193.259V5.552ZM195.851 2.78H196.851V0.246411L195.121 2.097L195.851 2.78ZM191.019 26V0.799998H189.019V26H191.019ZM190.019 1.8H200.927V-0.200002H190.019V1.8ZM200.927 1.8C203.076 1.8 204.872 2.15451 206.344 2.82591L207.174 1.00609C205.383 0.18949 203.291 -0.200002 200.927 -0.200002V1.8ZM206.356 2.83092C207.827 3.48005 208.928 4.40287 209.7 5.59247L211.378 4.50353C210.374 2.95712 208.956 1.79195 207.163 1.00108L206.356 2.83092ZM209.7 5.59247C210.467 6.7734 210.871 8.20916 210.871 9.944H212.871C212.871 7.88684 212.387 6.0586 211.378 4.50353L209.7 5.59247ZM210.871 9.944C210.871 11.652 210.468 13.0766 209.7 14.2595L211.378 15.3485C212.386 13.7954 212.871 11.98 212.871 9.944H210.871ZM209.705 14.2527C208.934 15.4198 207.832 16.3339 206.356 16.9851L207.163 18.8149C208.951 18.0261 210.369 16.8762 211.374 15.3553L209.705 14.2527ZM206.356 16.9851C204.88 17.6362 203.08 17.98 200.927 17.98V19.98C203.287 19.98 205.375 19.6038 207.163 18.8149L206.356 16.9851ZM200.927 17.98H193.259V19.98H200.927V17.98ZM193.961 19.692L196.553 17.136L195.149 15.712L192.557 18.268L193.961 19.692ZM194.851 16.424V26H196.851V16.424H194.851ZM195.851 25H190.019V27H195.851V25ZM206.863 25.4326L200.563 16.2886L198.916 17.4234L205.216 26.5674L206.863 25.4326ZM199.739 17.856H205.967V15.856H199.739V17.856ZM205.147 17.4277L211.519 26.5717L213.16 25.4283L206.788 16.2843L205.147 17.4277ZM212.339 25H206.039V27H212.339V25ZM196.577 16.3843L193.985 13.6483L192.533 15.0237L195.125 17.7597L196.577 16.3843ZM193.259 15.336H200.603V13.336H193.259V15.336ZM200.603 15.336C202.521 15.336 204.144 14.9306 205.289 13.9404L203.981 12.4276C203.35 12.9734 202.286 13.336 200.603 13.336V15.336ZM205.301 13.9303C206.434 12.9193 206.967 11.5499 206.967 9.944H204.967C204.967 11.0741 204.612 11.8647 203.97 12.4377L205.301 13.9303ZM206.967 9.944C206.967 8.32094 206.438 6.94123 205.289 5.94764L203.981 7.46036C204.608 8.00277 204.967 8.78306 204.967 9.944H206.967ZM205.289 5.94764C204.144 4.95739 202.521 4.552 200.603 4.552V6.552C202.286 6.552 203.35 6.91461 203.981 7.46036L205.289 5.94764ZM200.603 4.552H193.259V6.552H200.603V4.552ZM193.99 6.23499L196.582 3.46299L195.121 2.097L192.529 4.86901L193.99 6.23499ZM194.851 2.78V17.072H196.851V2.78H194.851ZM218.976 25.64L218.69 26.5982L218.701 26.6015L218.976 25.64ZM214.512 23.516L213.6 23.105L213.274 23.8278L213.904 24.3099L214.512 23.516ZM216.492 19.124L217.071 18.309L216.08 17.6041L215.58 18.713L216.492 19.124ZM220.308 21.032L219.982 21.9775L219.992 21.9807L220.001 21.9837L220.308 21.032ZM227.58 21.428L227.876 22.3831L227.886 22.38L227.896 22.3767L227.58 21.428ZM229.164 20.456L228.392 19.8203L229.164 20.456ZM228.876 17.468L228.264 18.2593L228.276 18.2682L228.288 18.2767L228.876 17.468ZM226.788 16.496L226.496 17.4524L226.508 17.4561L226.52 17.4595L226.788 16.496ZM223.908 15.776L223.681 16.75L223.694 16.753L223.708 16.7557L223.908 15.776ZM220.776 14.912L220.466 15.8629L220.473 15.8649L220.776 14.912ZM217.932 13.616L217.41 14.4693L217.932 13.616ZM215.808 11.528L214.955 12.0494L214.96 12.058L214.965 12.0664L215.808 11.528ZM216.168 4.292L215.333 3.74115L215.331 3.74521L216.168 4.292ZM219.696 1.448L220.103 2.36125L220.11 2.35837L219.696 1.448ZM230.316 0.943998L230.073 1.91414L230.081 1.91593L230.088 1.91761L230.316 0.943998ZM234.384 2.6L235.31 2.97658L235.625 2.20197L234.919 1.75492L234.384 2.6ZM232.584 7.028L232.088 7.89624L233.08 8.46321L233.51 7.40458L232.584 7.028ZM229.056 5.552L228.781 6.51352L228.79 6.51613L228.799 6.51856L229.056 5.552ZM222.828 5.444L222.484 4.50512V4.50512L222.828 5.444ZM221.28 6.488L222.074 7.09545L222.083 7.08458L222.091 7.07349L221.28 6.488ZM221.604 9.512L220.992 10.3033L221.004 10.3122L221.016 10.3207L221.604 9.512ZM223.692 10.448L223.424 11.4115H223.424L223.692 10.448ZM226.536 11.168L226.309 12.142L226.314 12.1431L226.536 11.168ZM229.668 11.996L229.379 12.9532L229.385 12.955L229.668 11.996ZM232.548 13.256L233.069 12.4027L232.548 13.256ZM234.636 15.344L233.783 15.8654L233.788 15.874L233.793 15.8824L234.636 15.344ZM234.276 22.508L235.105 23.0666L234.276 22.508ZM230.712 25.352L230.298 24.4416L230.293 24.444L230.712 25.352ZM224.772 25.432C222.844 25.432 221.005 25.1797 219.251 24.6785L218.701 26.6015C220.643 27.1563 222.668 27.432 224.772 27.432V25.432ZM219.262 24.6818C217.492 24.153 216.124 23.4911 215.12 22.7221L213.904 24.3099C215.156 25.2689 216.764 26.023 218.69 26.5982L219.262 24.6818ZM215.424 23.927L217.404 19.535L215.58 18.713L213.6 23.105L215.424 23.927ZM215.912 19.939C217.082 20.7708 218.443 21.4475 219.982 21.9775L220.633 20.0865C219.245 19.6085 218.062 19.0132 217.071 18.309L215.912 19.939ZM220.001 21.9837C221.585 22.4946 223.188 22.752 224.808 22.752V20.752C223.404 20.752 222.007 20.5294 220.615 20.0803L220.001 21.9837ZM224.808 22.752C226.009 22.752 227.045 22.6409 227.876 22.3831L227.284 20.4729C226.722 20.6471 225.911 20.752 224.808 20.752V22.752ZM227.896 22.3767C228.721 22.1018 229.439 21.6949 229.936 21.0917L228.392 19.8203C228.217 20.0331 227.879 20.2742 227.264 20.4793L227.896 22.3767ZM229.936 21.0917C230.419 20.5049 230.668 19.8122 230.668 19.052H228.668C228.668 19.3478 228.581 19.5911 228.392 19.8203L229.936 21.0917ZM230.668 19.052C230.668 18.0711 230.26 17.2379 229.464 16.6593L228.288 18.2767C228.548 18.4661 228.668 18.6889 228.668 19.052H230.668ZM229.487 16.6767C228.828 16.1675 228.004 15.7959 227.056 15.5325L226.52 17.4595C227.3 17.6761 227.867 17.9525 228.264 18.2593L229.487 16.6767ZM227.08 15.5396C226.181 15.2649 225.19 15.0175 224.108 14.7963L223.708 16.7557C224.738 16.9665 225.667 17.1991 226.496 17.4524L227.08 15.5396ZM224.134 14.802C223.129 14.5683 222.111 14.2874 221.079 13.9591L220.473 15.8649C221.553 16.2086 222.622 16.5037 223.681 16.75L224.134 14.802ZM221.085 13.9611C220.122 13.6476 219.246 13.2472 218.453 12.7627L217.41 14.4693C218.346 15.0408 219.365 15.5044 220.466 15.8629L221.085 13.9611ZM218.453 12.7627C217.721 12.3149 217.122 11.7273 216.651 10.9896L214.965 12.0664C215.598 13.0567 216.415 13.8611 217.41 14.4693L218.453 12.7627ZM216.661 11.0065C216.256 10.343 216.016 9.43461 216.016 8.216H214.016C214.016 9.68538 214.304 10.985 214.955 12.0494L216.661 11.0065ZM216.016 8.216C216.016 6.96501 216.346 5.8479 217.005 4.83879L215.331 3.74521C214.454 5.0881 214.016 6.58699 214.016 8.216H216.016ZM217.003 4.84284C217.671 3.82968 218.684 2.99439 220.103 2.36123L219.288 0.534767C217.588 1.2936 216.249 2.35432 215.333 3.74116L217.003 4.84284ZM220.11 2.35837C221.525 1.71486 223.353 1.368 225.636 1.368V-0.632C223.166 -0.632 221.034 -0.258865 219.282 0.537632L220.11 2.35837ZM225.636 1.368C227.138 1.368 228.617 1.54998 230.073 1.91414L230.558 -0.026144C228.943 -0.429983 227.302 -0.632 225.636 -0.632V1.368ZM230.088 1.91761C231.529 2.25552 232.779 2.76811 233.849 3.44508L234.919 1.75492C233.637 0.943889 232.174 0.352477 230.544 -0.0296183L230.088 1.91761ZM233.458 2.22342L231.658 6.65142L233.51 7.40458L235.31 2.97658L233.458 2.22342ZM233.08 6.15976C231.837 5.44952 230.581 4.92203 229.312 4.58544L228.799 6.51856C229.883 6.80597 230.979 7.26248 232.088 7.89624L233.08 6.15976ZM229.331 4.59048C228.073 4.23109 226.828 4.048 225.6 4.048V6.048C226.628 6.048 227.687 6.20091 228.781 6.51352L229.331 4.59048ZM225.6 4.048C224.405 4.048 223.353 4.18643 222.484 4.50512L223.172 6.38288C223.743 6.17357 224.539 6.048 225.6 6.048V4.048ZM222.484 4.50512C221.655 4.809 220.939 5.25226 220.469 5.90251L222.091 7.07349C222.245 6.85974 222.561 6.607 223.172 6.38287L222.484 4.50512ZM220.486 5.88055C220.03 6.47635 219.812 7.1739 219.812 7.928H221.812C221.812 7.5781 221.906 7.31565 222.074 7.09545L220.486 5.88055ZM219.812 7.928C219.812 8.89631 220.228 9.7125 220.992 10.3033L222.215 8.72071C221.924 8.4955 221.812 8.25569 221.812 7.928H219.812ZM221.016 10.3207C221.669 10.796 222.485 11.1506 223.424 11.4115L223.96 9.48448C223.171 9.26536 222.595 8.99603 222.192 8.70326L221.016 10.3207ZM223.424 11.4115C224.304 11.6559 225.266 11.8994 226.309 12.142L226.762 10.194C225.742 9.95664 224.808 9.72009 223.96 9.48448L223.424 11.4115ZM226.314 12.1431C227.348 12.378 228.369 12.648 229.379 12.9532L229.957 11.0388C228.903 10.72 227.836 10.438 226.758 10.1929L226.314 12.1431ZM229.385 12.955C230.364 13.2444 231.243 13.6305 232.026 14.1093L233.069 12.4027C232.125 11.8255 231.084 11.3716 229.951 11.037L229.385 12.955ZM232.026 14.1093C232.755 14.5546 233.337 15.1368 233.783 15.8654L235.489 14.8225C234.878 13.8232 234.069 13.0134 233.069 12.4027L232.026 14.1093ZM233.793 15.8824C234.217 16.5454 234.464 17.4366 234.464 18.62H236.464C236.464 17.1634 236.159 15.8706 235.479 14.8056L233.793 15.8824ZM234.464 18.62C234.464 19.8367 234.127 20.9382 233.446 21.9494L235.105 23.0666C236.008 21.7257 236.464 20.2353 236.464 18.62H234.464ZM233.446 21.9494C232.779 22.9405 231.752 23.7808 230.298 24.4416L231.126 26.2624C232.84 25.4832 234.189 24.4275 235.105 23.0666L233.446 21.9494ZM230.293 24.444C228.906 25.0843 227.081 25.432 224.772 25.432V27.432C227.263 27.432 229.398 27.0597 231.131 26.26L230.293 24.444ZM244.317 26H243.317V27H244.317V26ZM244.317 5.552H245.317V4.552H244.317V5.552ZM236.253 5.552H235.253V6.552H236.253V5.552ZM236.253 0.799998V-0.200002H235.253V0.799998H236.253ZM258.213 0.799998H259.213V-0.200002H258.213V0.799998ZM258.213 5.552V6.552H259.213V5.552H258.213ZM250.149 5.552V4.552H249.149V5.552H250.149ZM250.149 26V27H251.149V26H250.149ZM245.317 26V5.552H243.317V26H245.317ZM244.317 4.552H236.253V6.552H244.317V4.552ZM237.253 5.552V0.799998H235.253V5.552H237.253ZM236.253 1.8H258.213V-0.200002H236.253V1.8ZM257.213 0.799998V5.552H259.213V0.799998H257.213ZM258.213 4.552H250.149V6.552H258.213V4.552ZM249.149 5.552V26H251.149V5.552H249.149ZM250.149 25H244.317V27H250.149V25ZM256.774 26L255.86 25.5929L255.233 27H256.774V26ZM268.006 0.799998V-0.200002H267.357L267.092 0.392892L268.006 0.799998ZM273.766 0.799998L274.679 0.391804L274.414 -0.200002H273.766V0.799998ZM285.034 26V27H286.576L285.947 25.5918L285.034 26ZM278.914 26L277.99 26.3827L278.245 27H278.914V26ZM269.698 3.752V2.752H268.201L268.774 4.1347L269.698 3.752ZM272.002 3.752L272.925 4.13598L273.501 2.752H272.002V3.752ZM262.75 26V27H263.417L263.673 26.384L262.75 26ZM262.39 20.6L261.446 20.27L260.981 21.6H262.39V20.6ZM263.938 16.172V15.172H263.228L262.994 15.842L263.938 16.172ZM276.898 16.172L277.839 15.8352L277.602 15.172H276.898V16.172ZM278.482 20.6V21.6H279.901L279.423 20.2632L278.482 20.6ZM257.687 26.4071L268.919 1.2071L267.092 0.392892L255.86 25.5929L257.687 26.4071ZM268.006 1.8H273.766V-0.200002H268.006V1.8ZM272.853 1.20819L284.121 26.4082L285.947 25.5918L274.679 0.391804L272.853 1.20819ZM285.034 25H278.914V27H285.034V25ZM279.838 25.6173L270.622 3.3693L268.774 4.1347L277.99 26.3827L279.838 25.6173ZM269.698 4.752H272.002V2.752H269.698V4.752ZM271.078 3.36802L261.826 25.616L263.673 26.384L272.925 4.13598L271.078 3.36802ZM262.75 25H256.774V27H262.75V25ZM263.334 20.93L264.882 16.502L262.994 15.842L261.446 20.27L263.334 20.93ZM263.938 17.172H276.898V15.172H263.938V17.172ZM275.956 16.5088L277.54 20.9368L279.423 20.2632L277.839 15.8352L275.956 16.5088ZM278.482 19.6H262.39V21.6H278.482V19.6ZM287.648 26H286.648V27H287.648V26ZM287.648 0.799998V-0.200002H286.648V0.799998H287.648ZM292.472 0.799998L293.246 0.166176L292.946 -0.200002H292.472V0.799998ZM307.34 18.944V19.944H309.452L308.114 18.3102L307.34 18.944ZM305 18.944H304V19.944H305V18.944ZM305 0.799998V-0.200002H304V0.799998H305ZM310.76 0.799998H311.76V-0.200002H310.76V0.799998ZM310.76 26V27H311.76V26H310.76ZM305.972 26L305.199 26.6347L305.499 27H305.972V26ZM291.068 7.856V6.856H288.953L290.295 8.49074L291.068 7.856ZM293.408 7.856H294.408V6.856H293.408V7.856ZM293.408 26V27H294.408V26H293.408ZM288.648 26V0.799998H286.648V26H288.648ZM287.648 1.8H292.472V-0.200002H287.648V1.8ZM291.699 1.43382L306.567 19.5778L308.114 18.3102L293.246 0.166176L291.699 1.43382ZM307.34 17.944H305V19.944H307.34V17.944ZM306 18.944V0.799998H304V18.944H306ZM305 1.8H310.76V-0.200002H305V1.8ZM309.76 0.799998V26H311.76V0.799998H309.76ZM310.76 25H305.972V27H310.76V25ZM306.745 25.3653L291.841 7.22126L290.295 8.49074L305.199 26.6347L306.745 25.3653ZM291.068 8.856H293.408V6.856H291.068V8.856ZM292.408 7.856V26H294.408V7.856H292.408ZM293.408 25H287.648V27H293.408V25ZM316.722 26H315.722V27H316.722V26ZM316.722 0.799998V-0.200002H315.722V0.799998H316.722ZM335.406 2.384L334.955 3.2764L334.963 3.28048L335.406 2.384ZM340.302 20.06L341.149 20.592L341.152 20.5871L340.302 20.06ZM335.406 24.452L335.849 25.3485L335.858 25.3444L335.406 24.452ZM322.554 21.212H321.554V22.212H322.554V21.212ZM332.238 20.276L332.693 21.1669L332.699 21.1635L332.238 20.276ZM335.118 17.54L334.258 17.0307L334.254 17.0372L334.25 17.0439L335.118 17.54ZM335.118 9.26L334.25 9.75614L334.256 9.7667L334.262 9.77711L335.118 9.26ZM332.238 6.56L331.77 7.44379L331.781 7.44923L331.791 7.45443L332.238 6.56ZM322.554 5.588V4.588H321.554V5.588H322.554ZM317.722 26V0.799998H315.722V26H317.722ZM316.722 1.8H328.17V-0.200002H316.722V1.8ZM328.17 1.8C330.776 1.8 333.029 2.30219 334.955 3.27637L335.858 1.49163C333.608 0.353806 331.037 -0.200002 328.17 -0.200002V1.8ZM334.963 3.28048C336.895 4.23518 338.383 5.56495 339.456 7.27195L341.149 6.20805C339.87 4.17104 338.094 2.59682 335.849 1.48752L334.963 3.28048ZM339.456 7.27195C340.516 8.96023 341.066 10.9892 341.066 13.4H343.066C343.066 10.6748 342.441 8.26377 341.149 6.20805L339.456 7.27195ZM341.066 13.4C341.066 15.7845 340.517 17.8165 339.453 19.5329L341.152 20.5871C342.44 18.5115 343.066 16.1035 343.066 13.4H341.066ZM339.456 19.528C338.382 21.2371 336.891 22.5806 334.955 23.5596L335.858 25.3444C338.098 24.2114 339.871 22.6269 341.149 20.5919L339.456 19.528ZM334.963 23.5555C333.035 24.5085 330.779 25 328.17 25V27C331.033 27 333.602 26.4595 335.849 25.3485L334.963 23.5555ZM328.17 25H316.722V27H328.17V25ZM322.554 22.212H327.882V20.212H322.554V22.212ZM327.882 22.212C329.686 22.212 331.3 21.8769 332.693 21.1669L331.784 19.3851C330.729 19.9231 329.439 20.212 327.882 20.212V22.212ZM332.699 21.1635C334.111 20.4305 335.215 19.3856 335.987 18.0361L334.25 17.0439C333.677 18.0464 332.862 18.8255 331.778 19.3885L332.699 21.1635ZM335.979 18.0493C336.78 16.696 337.162 15.1343 337.162 13.4H335.162C335.162 14.8337 334.849 16.032 334.258 17.0307L335.979 18.0493ZM337.162 13.4C337.162 11.6454 336.781 10.0789 335.974 8.74288L334.262 9.77711C334.847 10.7451 335.162 11.9386 335.162 13.4H337.162ZM335.987 8.76386C335.214 7.41105 334.105 6.37504 332.686 5.66557L331.791 7.45443C332.868 7.99296 333.679 8.75695 334.25 9.75614L335.987 8.76386ZM332.706 5.67621C331.31 4.93727 329.691 4.588 327.882 4.588V6.588C329.434 6.588 330.718 6.88673 331.77 7.44379L332.706 5.67621ZM327.882 4.588H322.554V6.588H327.882V4.588ZM321.554 5.588V21.212H323.554V5.588H321.554Z" fill="#333333" mask="url(#path-1-outside-1_1_145)"/>
</svg>
